<svg xmlns="http://www.w3.org/2000/svg" width="19.001" height="22.8" viewBox="0 0 19.001 22.8">
  <path id="Path_1" data-name="Path 1" d="M2.346,10.048l-.891-.1ZM1.208,20.531l.891.1Zm17.19,0-.889.1ZM17.26,10.048l.891-.1Zm-15.805-.1L.317,20.43l1.781.2L3.236,10.149ZM2.662,23.111H16.945V21.276H2.662ZM19.289,20.43,18.151,9.947l-1.78.2,1.138,10.483ZM15.808,7.8H3.8V9.632H15.808Zm2.343,2.149A2.379,2.379,0,0,0,15.808,7.8V9.632a.573.573,0,0,1,.563.516ZM16.945,23.111a2.394,2.394,0,0,0,2.343-2.681l-1.78.2a.575.575,0,0,1-.563.645ZM.317,20.43a2.4,2.4,0,0,0,2.345,2.681V21.276a.575.575,0,0,1-.563-.645ZM3.236,10.149A.572.572,0,0,1,3.8,9.632V7.8A2.38,2.38,0,0,0,1.455,9.947Zm3.075-3.68V5.721H4.52v.748ZM13.3,5.721v.748h1.792V5.721ZM9.8,2.145A3.535,3.535,0,0,1,13.3,5.721h1.792A5.348,5.348,0,0,0,9.8.31ZM6.312,5.721A3.534,3.534,0,0,1,9.8,2.145V.31A5.347,5.347,0,0,0,4.52,5.721Z" transform="translate(-0.303 -0.31)" fill="#3b3a40"/>
</svg>
