<svg xmlns="http://www.w3.org/2000/svg" width="65.62" height="48.038" viewBox="0 0 65.62 48.038">
  <path id="Path_11811" data-name="Path 11811" d="M521.264,3005.331a19.281,19.281,0,0,0-25.64-25.453,24.008,24.008,0,0,0-35.643,29.873l-2.343,13.656,13.665-2.339a24.042,24.042,0,0,0,27.338-4.7c.1-.1.178-.2.273-.3a19.327,19.327,0,0,0,12.71-1.1l11.634,2Zm-39.606,15.514a21.593,21.593,0,0,1-9.25-2.089l-.735-.351-.8.138-10.094,1.728,1.732-10.086.137-.8-.351-.735a21.463,21.463,0,1,1,19.364,12.2Zm38.464-7.012-8.859-1.522-.368.175a16.724,16.724,0,0,1-10.062,1.325,24,24,0,0,0-2.191-31.406c-.24-.241-.5-.447-.747-.675a16.7,16.7,0,0,1,20.884,22.871l-.176.368Z" transform="translate(-457.639 -2975.369)" fill="#ff6846"/>
</svg>
