<svg xmlns="http://www.w3.org/2000/svg" width="65.62" height="55.677" viewBox="0 0 65.62 55.677">
  <path id="Path_11803" data-name="Path 11803" d="M300.643,2513.375h-3.937v-9.743a1.311,1.311,0,0,0-1.312-1.312h-42a1.311,1.311,0,0,0-1.312,1.313v9.743h-3.937a6.569,6.569,0,0,0-6.562,6.562v31.5a6.569,6.569,0,0,0,6.562,6.562h52.5a6.569,6.569,0,0,0,6.562-6.562v-31.5A6.569,6.569,0,0,0,300.643,2513.375Zm-45.934-8.431h39.372v18.5l-13.477,10.64a11.712,11.712,0,0,0-12.417,0l-13.478-10.64Zm49.871,46.49a3.942,3.942,0,0,1-3.937,3.937h-52.5a3.942,3.942,0,0,1-3.937-3.937v-31.5a3.942,3.942,0,0,1,3.937-3.937h3.937v5.372l-.5-.394a1.312,1.312,0,1,0-1.625,2.061l16.02,12.646-16.02,12.646a1.312,1.312,0,1,0,1.625,2.061l17.119-13.514a9.159,9.159,0,0,1,11.384,0l17.118,13.514a1.313,1.313,0,0,0,1.627-2.061l-16.018-12.645,16.018-12.647a1.313,1.313,0,0,0-1.627-2.061l-.5.394V2516h3.937a3.942,3.942,0,0,1,3.937,3.938Z" transform="translate(-241.585 -2502.319)" fill="#ff6846"/>
</svg>
