<svg xmlns="http://www.w3.org/2000/svg" width="54.995" height="65.62" viewBox="0 0 54.995 65.62">
  <g id="Group_1113" data-name="Group 1113" transform="translate(-247.728 -383.384)">
    <path id="Path_11808" data-name="Path 11808" d="M295.651,403.141l2.491-2.489,1.9,1.9a1.458,1.458,0,0,0,2.062-2.062l-5.861-5.859a1.458,1.458,0,1,0-2.062,2.062l1.9,1.9-2.489,2.489a27.359,27.359,0,0,0-14.786-6.813,6.041,6.041,0,1,0-7.155,0,27.525,27.525,0,1,0,24,8.875ZM275.226,386.3a3.125,3.125,0,1,1-3.125,3.123A3.128,3.128,0,0,1,275.226,386.3Zm0,59.787a24.581,24.581,0,1,1,24.581-24.581A24.609,24.609,0,0,1,275.226,446.088Z" transform="translate(0 0)" fill="#ff6846"/>
    <path id="Path_11809" data-name="Path 11809" d="M267.043,395.955a1.457,1.457,0,0,0-1.458,1.458v18.331a1.458,1.458,0,0,0,2.916,0V397.413A1.457,1.457,0,0,0,267.043,395.955Z" transform="translate(8.182 5.76)" fill="#ff6846"/>
  </g>
</svg>
