<svg xmlns="http://www.w3.org/2000/svg" width="65.62" height="57.746" viewBox="0 0 65.62 57.746">
  <path id="Path_11810" data-name="Path 11810" d="M300.643,2148.59h-52.5a6.569,6.569,0,0,0-6.562,6.562v35.7a6.569,6.569,0,0,0,6.562,6.562h24.936v6.3H258.646a1.312,1.312,0,1,0,0,2.625h31.5a1.312,1.312,0,1,0,0-2.625H275.707v-6.3h24.936a6.569,6.569,0,0,0,6.562-6.562v-35.7A6.569,6.569,0,0,0,300.643,2148.59Zm3.937,42.26a3.942,3.942,0,0,1-3.937,3.937h-52.5a3.942,3.942,0,0,1-3.937-3.937v-35.7a3.941,3.941,0,0,1,3.937-3.937h52.5a3.941,3.941,0,0,1,3.937,3.937Z" transform="translate(-241.585 -2148.59)" fill="#ff6846"/>
</svg>
