<svg xmlns="http://www.w3.org/2000/svg" width="65.622" height="73.566" viewBox="0 0 65.622 73.566">
  <g id="Group_1111" data-name="Group 1111" transform="translate(-677.906 -3911.3)">
    <path id="Path_11801" data-name="Path 11801" d="M742.75,3929.509l-2.353-13.171a1.537,1.537,0,0,0-.765-1.072,1.555,1.555,0,0,0-1.314-.084A27.6,27.6,0,0,1,713,3912.536l-1.469-.979a1.54,1.54,0,0,0-1.7,0l-2,1.332a27.288,27.288,0,0,1-15.181,4.6h0a27.29,27.29,0,0,1-9.251-1.614l-.409-.146a1.518,1.518,0,0,0-1.284.116,1.534,1.534,0,0,0-.742,1.053l-2.266,12.552a49.655,49.655,0,0,0,31.442,55.335,1.449,1.449,0,0,0,.512.086,1.85,1.85,0,0,0,.636-.113A49.67,49.67,0,0,0,742.75,3929.509Zm-32.067,52.2a46.589,46.589,0,0,1-28.963-51.716l1.948-10.8a30.335,30.335,0,0,0,8.986,1.36h0a30.357,30.357,0,0,0,16.88-5.111l1.147-.767.618.414a30.689,30.689,0,0,0,26.4,3.584l2.033,11.376A46.605,46.605,0,0,1,710.683,3981.706Z" transform="translate(0 0)" fill="#ff6846"/>
    <path id="Path_11802" data-name="Path 11802" d="M718.7,3928.573,697.811,3942.5l-6.423-6.423a1.533,1.533,0,0,0-2.168,2.167l7.312,7.312a1.533,1.533,0,0,0,1.934.192l21.93-14.623a1.532,1.532,0,1,0-1.7-2.55Z" transform="translate(5.791 9.067)" fill="#ff6846"/>
  </g>
</svg>
