<svg xmlns="http://www.w3.org/2000/svg" width="65.62" height="44.665" viewBox="0 0 65.62 44.665">
  <g id="Group_1112" data-name="Group 1112" transform="translate(-891.585 -977.103)">
    <path id="Path_11804" data-name="Path 11804" d="M918.148,1001.126a6.569,6.569,0,1,0,6.567,6.57A6.576,6.576,0,0,0,918.148,1001.126Zm0,10.512a3.944,3.944,0,1,1,3.942-3.942A3.948,3.948,0,0,1,918.148,1011.638Z" transform="translate(6.247 7.505)" fill="#ff6846"/>
    <path id="Path_11805" data-name="Path 11805" d="M957.017,995.622a37.991,37.991,0,0,0-65.243,0,1.312,1.312,0,1,0,2.248,1.353,35.368,35.368,0,0,1,60.747,0,1.312,1.312,0,1,0,2.248-1.353Z" transform="translate(0 0)" fill="#ff6846"/>
    <path id="Path_11806" data-name="Path 11806" d="M922.4,985.112A27.594,27.594,0,0,0,898.129,999.6a1.312,1.312,0,1,0,2.307,1.252,24.952,24.952,0,0,1,43.929,0,1.312,1.312,0,1,0,2.306-1.252A27.592,27.592,0,0,0,922.4,985.112Z" transform="translate(1.994 2.502)" fill="#ff6846"/>
    <path id="Path_11807" data-name="Path 11807" d="M920.372,993.12a17.029,17.029,0,0,0-15.81,10.641,1.312,1.312,0,0,0,.719,1.711,1.3,1.3,0,0,0,.5.1,1.312,1.312,0,0,0,1.215-.815,14.439,14.439,0,0,1,26.758,0,1.313,1.313,0,0,0,2.431-.993A17.025,17.025,0,0,0,920.372,993.12Z" transform="translate(4.023 5.004)" fill="#ff6846"/>
  </g>
</svg>
