<svg xmlns="http://www.w3.org/2000/svg" width="110.5" height="34" viewBox="0 0 110.5 34">
  <path id="Amazon_logo" data-name="Amazon logo" d="M44.568,34A40.631,40.631,0,0,1,28.62,30.774a42.509,42.509,0,0,1-13.248-8.913.712.712,0,0,1-.22-.774.493.493,0,0,1,.466-.309.781.781,0,0,1,.416.136,55.2,55.2,0,0,0,29.212,8.448,54.269,54.269,0,0,0,22.282-4.969,1.166,1.166,0,0,1,.491-.114.92.92,0,0,1,.875.6,1.04,1.04,0,0,1-.427,1.157C62.362,30.949,53.2,34,44.568,34ZM70.1,31.167a.333.333,0,0,1-.292-.137.475.475,0,0,1,.01-.447l.419-.984c1.429-3.42,1.862-5.4,1.321-6.04-.331-.394-1.3-.594-2.883-.594a46.655,46.655,0,0,0-4.834.352h-.012a1.049,1.049,0,0,1-.115.007c-.225,0-.378-.083-.421-.228-.056-.188.09-.428.373-.613a12.8,12.8,0,0,1,6.719-1.707c2.081,0,3.667.394,4,.775a2.777,2.777,0,0,1,.2,1.746,11.778,11.778,0,0,1-3.939,7.647A.924.924,0,0,1,70.1,31.167ZM62.947,19.833a.681.681,0,0,1-.614-.655V16.561a3.058,3.058,0,0,1,.439-1.773L69.849,4.83H63.688a.646.646,0,0,1-.681-.65V1.6a.646.646,0,0,1,.665-.653l11.794,0a.653.653,0,0,1,.68.652V3.809c0,.361-.289.811-.888,1.625l-6.107,8.554c.149,0,.3-.005.447-.005A12.9,12.9,0,0,1,75.875,15.4a1.179,1.179,0,0,1,.625,1.007v2.753a.672.672,0,0,1-.618.653.543.543,0,0,1-.25-.063A13.691,13.691,0,0,0,69.4,18.281a13.513,13.513,0,0,0-6.225,1.5A.483.483,0,0,1,62.947,19.833Zm46.891,0h-3.458a.646.646,0,0,1-.614-.546l0-9.886c.011-1.283.025-2.879-.764-3.676a1.885,1.885,0,0,0-1.4-.514,2.266,2.266,0,0,0-2,1.386,7.137,7.137,0,0,0-.546,2.966l0,9.647a.658.658,0,0,1-.671.624H96.958a.643.643,0,0,1-.619-.622L96.333,1.876A.652.652,0,0,1,97,1.31h3.2a.656.656,0,0,1,.613.486V4.445h.065c1-2.454,2.406-3.5,4.7-3.5A4.578,4.578,0,0,1,109.6,2.986c.826,1.27.9,3.3.9,5.112V19.287A.652.652,0,0,1,109.839,19.833Zm-23.012,0a6.567,6.567,0,0,1-5.565-2.906,12.352,12.352,0,0,1-1.928-7.048,12.006,12.006,0,0,1,1.939-7.025A6.586,6.586,0,0,1,86.827,0,6.689,6.689,0,0,1,92.49,2.921a12.294,12.294,0,0,1,1.955,7.146,11.581,11.581,0,0,1-2.06,6.926A6.747,6.747,0,0,1,86.827,19.833Zm.032-16.189c-2.321,0-2.6,3.142-2.612,5.505l0,1.153a14.662,14.662,0,0,0,.452,3.807c.414,1.356,1.128,2.043,2.124,2.043,2.705,0,2.705-4.238,2.705-6.048a17.3,17.3,0,0,0-.5-4.733A2.094,2.094,0,0,0,86.858,3.644ZM40.885,19.833H37.524a.635.635,0,0,1-.6-.622V10.024c0-.141,0-.319,0-.525a16.47,16.47,0,0,0-.1-2.721,1.741,1.741,0,0,0-1.978-1.495,2.235,2.235,0,0,0-2.011,1.422,7.812,7.812,0,0,0-.313,2.507v10a.637.637,0,0,1-.649.624H28.511a.635.635,0,0,1-.6-.622l0-9.187c0-.2,0-.4.007-.612.021-1.352.045-2.885-.722-3.664a1.826,1.826,0,0,0-1.357-.5c-2.142,0-2.324,2.112-2.326,4.276V19.21a.638.638,0,0,1-.65.624H19.49a.638.638,0,0,1-.6-.571l0-17.329a.638.638,0,0,1,.65-.625h3.134a.636.636,0,0,1,.612.582V4.154h.063A4.433,4.433,0,0,1,27.779.944c2.063,0,3.41.99,4.366,3.209A4.962,4.962,0,0,1,40.688,2.84c.914,1.248.886,2.959.858,4.614,0,.181-.006.361-.008.538l0,11.217A.637.637,0,0,1,40.885,19.833Zm9.144-.177c-3.162,0-5.126-2.047-5.126-5.343a5.823,5.823,0,0,1,3.653-5.6,19.163,19.163,0,0,1,5.481-1.087c.335-.034.652-.066.959-.1l0-1.079A3.285,3.285,0,0,0,54.58,4.59a2.313,2.313,0,0,0-1.922-.89,2.6,2.6,0,0,0-2.709,1.874l-.044.185a.727.727,0,0,1-.595.63l-3.32-.36a.6.6,0,0,1-.511-.716,5.794,5.794,0,0,1,2.894-4.137A9.8,9.8,0,0,1,53.138.063c.793,0,3.509.123,5.159,1.707C59.827,3.2,59.816,5.105,59.8,7.12c0,.182,0,.366,0,.551v5.341a4.294,4.294,0,0,0,1.092,2.9c.067.09.135.181.2.274a.643.643,0,0,1-.012.911l-.746.635c-.618.53-1.373,1.19-1.88,1.642l-.008-.007a.675.675,0,0,1-.452.17.755.755,0,0,1-.357-.091,7.353,7.353,0,0,1-1.7-1.9c-.08-.119-.165-.246-.26-.383A6.775,6.775,0,0,1,50.029,19.656ZM55,10.268l-.382,0c-3.172.076-4.713,1.2-4.713,3.447,0,1.533.8,2.486,2.083,2.486a2.767,2.767,0,0,0,2.372-1.558A5.894,5.894,0,0,0,55,11.534ZM5.126,19.656C1.964,19.656,0,17.609,0,14.313a6.044,6.044,0,0,1,1.021-3.5A6.017,6.017,0,0,1,3.652,8.709,19.183,19.183,0,0,1,9.135,7.623c.337-.034.653-.066.959-.1l0-1.079A3.285,3.285,0,0,0,9.677,4.59,2.313,2.313,0,0,0,7.754,3.7,2.6,2.6,0,0,0,5.045,5.574L5,5.759a.727.727,0,0,1-.595.63l-3.32-.36a.6.6,0,0,1-.511-.716A5.792,5.792,0,0,1,3.468,1.176,9.8,9.8,0,0,1,8.235.063c.793,0,3.509.123,5.159,1.707C14.925,3.2,14.914,5.106,14.9,7.122l0,.287v5.6a4.3,4.3,0,0,0,1.092,2.9c.067.091.134.181.2.273a.645.645,0,0,1-.012.911l-1.03.879c-.555.479-1.166,1.015-1.6,1.4l-.008-.007a.676.676,0,0,1-.453.17.752.752,0,0,1-.356-.091,7.332,7.332,0,0,1-1.7-1.9c-.081-.12-.166-.247-.262-.385A6.775,6.775,0,0,1,5.126,19.656Zm4.967-9.388-.382,0C6.54,10.349,5,11.476,5,13.72c0,1.533.8,2.486,2.083,2.486a2.765,2.765,0,0,0,2.372-1.558,5.894,5.894,0,0,0,.641-3.114Z" fill="#3b3a40"/>
</svg>
