<svg id="Delete" xmlns="http://www.w3.org/2000/svg" width="22.5" height="25.833" viewBox="0 0 22.5 25.833">
  <path id="Delete-2" data-name="Delete" d="M6.417,25.781a3.7,3.7,0,0,1-3.68-3.655L2.577,20.5,2.3,17.343,2.015,13.88,1.69,9.723A.953.953,0,0,1,2.528,8.68a.924.924,0,0,1,.966.758l.037.38.306,3.9.333,4.039c.151,1.748.28,3.164.384,4.158.132,1.258.773,1.905,1.9,1.93,3.064.069,6.221.07,9.507.007A1.873,1.873,0,0,0,17.945,21.9l.159-1.618c.046-.5.1-1.05.149-1.647l.334-3.973.4-5.1a.944.944,0,0,1,.861-.89l.125,0a.945.945,0,0,1,.839.911l-.012.266-.393,4.974-.413,4.855c-.087.97-.165,1.787-.232,2.43A3.726,3.726,0,0,1,16,25.787q-2.416.047-4.745.047Q8.792,25.833,6.417,25.781ZM17.6,6.445H.915A.944.944,0,0,1,0,5.475a.953.953,0,0,1,.79-.96l.125-.008H4.9a1.1,1.1,0,0,0,1.036-.788l.036-.143.309-1.631A2.516,2.516,0,0,1,8.473.008L8.67,0H13.83a2.5,2.5,0,0,1,2.344,1.8l.06.209.3,1.569a1.122,1.122,0,0,0,.931.923l.141.009h3.983a.943.943,0,0,1,.915.968.953.953,0,0,1-.79.96l-.125.009Zm-2.71-1.938a3.228,3.228,0,0,1-.108-.338l-.047-.214-.283-1.51a.66.66,0,0,0-.516-.5l-.108-.009H8.67a.654.654,0,0,0-.579.359l-.033.087-.3,1.572a3.243,3.243,0,0,1-.155.551Z" fill="#200e32"/>
</svg>
