<svg xmlns="http://www.w3.org/2000/svg" width="329" height="57" viewBox="0 0 329 57">
  <g id="Group_1" data-name="Group 1" transform="translate(-1091 -521)">
    <circle id="Ellipse_4" data-name="Ellipse 4" cx="3" cy="3" r="3" transform="translate(1091 521)" fill="#fd0"/>
    <circle id="Ellipse_4-2" data-name="Ellipse 4" cx="3" cy="3" r="3" transform="translate(1108 521)" fill="#fd0"/>
    <circle id="Ellipse_4-3" data-name="Ellipse 4" cx="3" cy="3" r="3" transform="translate(1125 521)" fill="#fd0"/>
    <circle id="Ellipse_4-4" data-name="Ellipse 4" cx="3" cy="3" r="3" transform="translate(1142 521)" fill="#fd0"/>
    <circle id="Ellipse_4-5" data-name="Ellipse 4" cx="3" cy="3" r="3" transform="translate(1159 521)" fill="#fd0"/>
    <circle id="Ellipse_4-6" data-name="Ellipse 4" cx="3" cy="3" r="3" transform="translate(1176 521)" fill="#fd0"/>
    <circle id="Ellipse_4-7" data-name="Ellipse 4" cx="3" cy="3" r="3" transform="translate(1193 521)" fill="#fd0"/>
    <circle id="Ellipse_4-8" data-name="Ellipse 4" cx="3" cy="3" r="3" transform="translate(1210 521)" fill="#fd0"/>
    <circle id="Ellipse_4-9" data-name="Ellipse 4" cx="3" cy="3" r="3" transform="translate(1227 521)" fill="#fd0"/>
    <circle id="Ellipse_4-10" data-name="Ellipse 4" cx="3" cy="3" r="3" transform="translate(1244 521)" fill="#fd0"/>
    <circle id="Ellipse_4-11" data-name="Ellipse 4" cx="3" cy="3" r="3" transform="translate(1261 521)" fill="#fd0"/>
    <circle id="Ellipse_4-12" data-name="Ellipse 4" cx="3" cy="3" r="3" transform="translate(1278 521)" fill="#fd0"/>
    <circle id="Ellipse_4-13" data-name="Ellipse 4" cx="3" cy="3" r="3" transform="translate(1295 521)" fill="#fd0"/>
    <circle id="Ellipse_4-14" data-name="Ellipse 4" cx="3" cy="3" r="3" transform="translate(1312 521)" fill="#fd0"/>
    <circle id="Ellipse_4-15" data-name="Ellipse 4" cx="3" cy="3" r="3" transform="translate(1329 521)" fill="#fd0"/>
    <circle id="Ellipse_4-16" data-name="Ellipse 4" cx="3" cy="3" r="3" transform="translate(1346 521)" fill="#fd0"/>
    <circle id="Ellipse_4-17" data-name="Ellipse 4" cx="3" cy="3" r="3" transform="translate(1363 521)" fill="#fd0"/>
    <circle id="Ellipse_4-18" data-name="Ellipse 4" cx="3" cy="3" r="3" transform="translate(1380 521)" fill="#fd0"/>
    <circle id="Ellipse_4-19" data-name="Ellipse 4" cx="3" cy="3" r="3" transform="translate(1397 521)" fill="#fd0"/>
    <circle id="Ellipse_4-20" data-name="Ellipse 4" cx="3" cy="3" r="3" transform="translate(1414 521)" fill="#fd0"/>
    <circle id="Ellipse_4-21" data-name="Ellipse 4" cx="3" cy="3" r="3" transform="translate(1091 538)" fill="#fd0"/>
    <circle id="Ellipse_4-22" data-name="Ellipse 4" cx="3" cy="3" r="3" transform="translate(1108 538)" fill="#fd0"/>
    <circle id="Ellipse_4-23" data-name="Ellipse 4" cx="3" cy="3" r="3" transform="translate(1125 538)" fill="#fd0"/>
    <circle id="Ellipse_4-24" data-name="Ellipse 4" cx="3" cy="3" r="3" transform="translate(1142 538)" fill="#fd0"/>
    <circle id="Ellipse_4-25" data-name="Ellipse 4" cx="3" cy="3" r="3" transform="translate(1159 538)" fill="#fd0"/>
    <circle id="Ellipse_4-26" data-name="Ellipse 4" cx="3" cy="3" r="3" transform="translate(1176 538)" fill="#fd0"/>
    <circle id="Ellipse_4-27" data-name="Ellipse 4" cx="3" cy="3" r="3" transform="translate(1193 538)" fill="#fd0"/>
    <circle id="Ellipse_4-28" data-name="Ellipse 4" cx="3" cy="3" r="3" transform="translate(1210 538)" fill="#fd0"/>
    <circle id="Ellipse_4-29" data-name="Ellipse 4" cx="3" cy="3" r="3" transform="translate(1227 538)" fill="#fd0"/>
    <circle id="Ellipse_4-30" data-name="Ellipse 4" cx="3" cy="3" r="3" transform="translate(1244 538)" fill="#fd0"/>
    <circle id="Ellipse_4-31" data-name="Ellipse 4" cx="3" cy="3" r="3" transform="translate(1261 538)" fill="#fd0"/>
    <circle id="Ellipse_4-32" data-name="Ellipse 4" cx="3" cy="3" r="3" transform="translate(1278 538)" fill="#fd0"/>
    <circle id="Ellipse_4-33" data-name="Ellipse 4" cx="3" cy="3" r="3" transform="translate(1295 538)" fill="#fd0"/>
    <circle id="Ellipse_4-34" data-name="Ellipse 4" cx="3" cy="3" r="3" transform="translate(1312 538)" fill="#fd0"/>
    <circle id="Ellipse_4-35" data-name="Ellipse 4" cx="3" cy="3" r="3" transform="translate(1329 538)" fill="#fd0"/>
    <circle id="Ellipse_4-36" data-name="Ellipse 4" cx="3" cy="3" r="3" transform="translate(1346 538)" fill="#fd0"/>
    <circle id="Ellipse_4-37" data-name="Ellipse 4" cx="3" cy="3" r="3" transform="translate(1363 538)" fill="#fd0"/>
    <circle id="Ellipse_4-38" data-name="Ellipse 4" cx="3" cy="3" r="3" transform="translate(1380 538)" fill="#fd0"/>
    <circle id="Ellipse_4-39" data-name="Ellipse 4" cx="3" cy="3" r="3" transform="translate(1397 538)" fill="#fd0"/>
    <circle id="Ellipse_4-40" data-name="Ellipse 4" cx="3" cy="3" r="3" transform="translate(1414 538)" fill="#fd0"/>
    <circle id="Ellipse_4-41" data-name="Ellipse 4" cx="3" cy="3" r="3" transform="translate(1091 555)" fill="#fd0"/>
    <circle id="Ellipse_4-42" data-name="Ellipse 4" cx="3" cy="3" r="3" transform="translate(1108 555)" fill="#fd0"/>
    <circle id="Ellipse_4-43" data-name="Ellipse 4" cx="3" cy="3" r="3" transform="translate(1125 555)" fill="#fd0"/>
    <circle id="Ellipse_4-44" data-name="Ellipse 4" cx="3" cy="3" r="3" transform="translate(1142 555)" fill="#fd0"/>
    <circle id="Ellipse_4-45" data-name="Ellipse 4" cx="3" cy="3" r="3" transform="translate(1159 555)" fill="#fd0"/>
    <circle id="Ellipse_4-46" data-name="Ellipse 4" cx="3" cy="3" r="3" transform="translate(1176 555)" fill="#fd0"/>
    <circle id="Ellipse_4-47" data-name="Ellipse 4" cx="3" cy="3" r="3" transform="translate(1193 555)" fill="#fd0"/>
    <circle id="Ellipse_4-48" data-name="Ellipse 4" cx="3" cy="3" r="3" transform="translate(1210 555)" fill="#fd0"/>
    <circle id="Ellipse_4-49" data-name="Ellipse 4" cx="3" cy="3" r="3" transform="translate(1227 555)" fill="#fd0"/>
    <circle id="Ellipse_4-50" data-name="Ellipse 4" cx="3" cy="3" r="3" transform="translate(1244 555)" fill="#fd0"/>
    <circle id="Ellipse_4-51" data-name="Ellipse 4" cx="3" cy="3" r="3" transform="translate(1261 555)" fill="#fd0"/>
    <circle id="Ellipse_4-52" data-name="Ellipse 4" cx="3" cy="3" r="3" transform="translate(1278 555)" fill="#fd0"/>
    <circle id="Ellipse_4-53" data-name="Ellipse 4" cx="3" cy="3" r="3" transform="translate(1295 555)" fill="#fd0"/>
    <circle id="Ellipse_4-54" data-name="Ellipse 4" cx="3" cy="3" r="3" transform="translate(1312 555)" fill="#fd0"/>
    <circle id="Ellipse_4-55" data-name="Ellipse 4" cx="3" cy="3" r="3" transform="translate(1329 555)" fill="#fd0"/>
    <circle id="Ellipse_4-56" data-name="Ellipse 4" cx="3" cy="3" r="3" transform="translate(1346 555)" fill="#fd0"/>
    <circle id="Ellipse_4-57" data-name="Ellipse 4" cx="3" cy="3" r="3" transform="translate(1363 555)" fill="#fd0"/>
    <circle id="Ellipse_4-58" data-name="Ellipse 4" cx="3" cy="3" r="3" transform="translate(1380 555)" fill="#fd0"/>
    <circle id="Ellipse_4-59" data-name="Ellipse 4" cx="3" cy="3" r="3" transform="translate(1397 555)" fill="#fd0"/>
    <circle id="Ellipse_4-60" data-name="Ellipse 4" cx="3" cy="3" r="3" transform="translate(1414 555)" fill="#fd0"/>
    <circle id="Ellipse_4-61" data-name="Ellipse 4" cx="3" cy="3" r="3" transform="translate(1091 572)" fill="#fd0"/>
    <circle id="Ellipse_4-62" data-name="Ellipse 4" cx="3" cy="3" r="3" transform="translate(1108 572)" fill="#fd0"/>
    <circle id="Ellipse_4-63" data-name="Ellipse 4" cx="3" cy="3" r="3" transform="translate(1125 572)" fill="#fd0"/>
    <circle id="Ellipse_4-64" data-name="Ellipse 4" cx="3" cy="3" r="3" transform="translate(1142 572)" fill="#fd0"/>
    <circle id="Ellipse_4-65" data-name="Ellipse 4" cx="3" cy="3" r="3" transform="translate(1159 572)" fill="#fd0"/>
    <circle id="Ellipse_4-66" data-name="Ellipse 4" cx="3" cy="3" r="3" transform="translate(1176 572)" fill="#fd0"/>
    <circle id="Ellipse_4-67" data-name="Ellipse 4" cx="3" cy="3" r="3" transform="translate(1193 572)" fill="#fd0"/>
    <circle id="Ellipse_4-68" data-name="Ellipse 4" cx="3" cy="3" r="3" transform="translate(1210 572)" fill="#fd0"/>
    <circle id="Ellipse_4-69" data-name="Ellipse 4" cx="3" cy="3" r="3" transform="translate(1227 572)" fill="#fd0"/>
    <circle id="Ellipse_4-70" data-name="Ellipse 4" cx="3" cy="3" r="3" transform="translate(1244 572)" fill="#fd0"/>
    <circle id="Ellipse_4-71" data-name="Ellipse 4" cx="3" cy="3" r="3" transform="translate(1261 572)" fill="#fd0"/>
    <circle id="Ellipse_4-72" data-name="Ellipse 4" cx="3" cy="3" r="3" transform="translate(1278 572)" fill="#fd0"/>
    <circle id="Ellipse_4-73" data-name="Ellipse 4" cx="3" cy="3" r="3" transform="translate(1295 572)" fill="#fd0"/>
    <circle id="Ellipse_4-74" data-name="Ellipse 4" cx="3" cy="3" r="3" transform="translate(1312 572)" fill="#fd0"/>
    <circle id="Ellipse_4-75" data-name="Ellipse 4" cx="3" cy="3" r="3" transform="translate(1329 572)" fill="#fd0"/>
    <circle id="Ellipse_4-76" data-name="Ellipse 4" cx="3" cy="3" r="3" transform="translate(1346 572)" fill="#fd0"/>
    <circle id="Ellipse_4-77" data-name="Ellipse 4" cx="3" cy="3" r="3" transform="translate(1363 572)" fill="#fd0"/>
    <circle id="Ellipse_4-78" data-name="Ellipse 4" cx="3" cy="3" r="3" transform="translate(1380 572)" fill="#fd0"/>
    <circle id="Ellipse_4-79" data-name="Ellipse 4" cx="3" cy="3" r="3" transform="translate(1397 572)" fill="#fd0"/>
    <circle id="Ellipse_4-80" data-name="Ellipse 4" cx="3" cy="3" r="3" transform="translate(1414 572)" fill="#fd0"/>
  </g>
</svg>
