<svg xmlns="http://www.w3.org/2000/svg" width="284" height="66.704" viewBox="0 0 284 66.704">
  <g id="dot_2" data-name="dot 2" transform="translate(-551.151 -464.617)" opacity="0.2">
    <rect id="Rectangle_15" data-name="Rectangle 15" width="5.095" height="5.095" transform="translate(551.151 464.617)"/>
    <rect id="Rectangle_16" data-name="Rectangle 16" width="5.095" height="5.095" transform="translate(551.151 495.421)"/>
    <rect id="Rectangle_17" data-name="Rectangle 17" width="5.095" height="5.095" transform="translate(551.151 526.226)"/>
    <rect id="Rectangle_18" data-name="Rectangle 18" width="5.095" height="5.095" transform="translate(579.041 464.617)"/>
    <rect id="Rectangle_19" data-name="Rectangle 19" width="5.095" height="5.095" transform="translate(579.041 495.421)"/>
    <rect id="Rectangle_20" data-name="Rectangle 20" width="5.095" height="5.095" transform="translate(579.041 526.226)"/>
    <rect id="Rectangle_21" data-name="Rectangle 21" width="5.095" height="5.095" transform="translate(606.932 464.617)"/>
    <rect id="Rectangle_22" data-name="Rectangle 22" width="5.095" height="5.095" transform="translate(606.932 495.421)"/>
    <rect id="Rectangle_23" data-name="Rectangle 23" width="5.095" height="5.095" transform="translate(606.932 526.226)"/>
    <rect id="Rectangle_24" data-name="Rectangle 24" width="5.095" height="5.095" transform="translate(634.822 464.617)"/>
    <rect id="Rectangle_25" data-name="Rectangle 25" width="5.095" height="5.095" transform="translate(634.822 495.421)"/>
    <rect id="Rectangle_26" data-name="Rectangle 26" width="5.095" height="5.095" transform="translate(634.822 526.226)"/>
    <rect id="Rectangle_27" data-name="Rectangle 27" width="5.095" height="5.095" transform="translate(662.713 464.617)"/>
    <rect id="Rectangle_28" data-name="Rectangle 28" width="5.095" height="5.095" transform="translate(662.713 495.421)"/>
    <rect id="Rectangle_29" data-name="Rectangle 29" width="5.095" height="5.095" transform="translate(662.713 526.226)"/>
    <rect id="Rectangle_30" data-name="Rectangle 30" width="5.095" height="5.095" transform="translate(690.603 464.617)"/>
    <rect id="Rectangle_31" data-name="Rectangle 31" width="5.095" height="5.095" transform="translate(690.603 495.421)"/>
    <rect id="Rectangle_32" data-name="Rectangle 32" width="5.095" height="5.095" transform="translate(690.603 526.226)"/>
    <rect id="Rectangle_33" data-name="Rectangle 33" width="5.095" height="5.095" transform="translate(718.494 464.617)"/>
    <rect id="Rectangle_34" data-name="Rectangle 34" width="5.095" height="5.095" transform="translate(718.494 495.421)"/>
    <rect id="Rectangle_35" data-name="Rectangle 35" width="5.095" height="5.095" transform="translate(718.494 526.226)"/>
    <rect id="Rectangle_36" data-name="Rectangle 36" width="5.095" height="5.095" transform="translate(746.384 464.617)"/>
    <rect id="Rectangle_37" data-name="Rectangle 37" width="5.095" height="5.095" transform="translate(746.384 495.421)"/>
    <rect id="Rectangle_38" data-name="Rectangle 38" width="5.095" height="5.095" transform="translate(746.384 526.226)"/>
    <rect id="Rectangle_39" data-name="Rectangle 39" width="5.095" height="5.095" transform="translate(774.274 464.617)"/>
    <rect id="Rectangle_40" data-name="Rectangle 40" width="5.095" height="5.095" transform="translate(774.274 495.421)"/>
    <rect id="Rectangle_41" data-name="Rectangle 41" width="5.095" height="5.095" transform="translate(774.274 526.226)"/>
    <rect id="Rectangle_42" data-name="Rectangle 42" width="5.095" height="5.095" transform="translate(802.165 464.617)"/>
    <rect id="Rectangle_43" data-name="Rectangle 43" width="5.095" height="5.095" transform="translate(802.165 495.421)"/>
    <rect id="Rectangle_44" data-name="Rectangle 44" width="5.095" height="5.095" transform="translate(802.165 526.226)"/>
    <rect id="Rectangle_45" data-name="Rectangle 45" width="5.095" height="5.095" transform="translate(830.055 464.617)"/>
    <rect id="Rectangle_46" data-name="Rectangle 46" width="5.095" height="5.095" transform="translate(830.055 495.421)"/>
    <rect id="Rectangle_47" data-name="Rectangle 47" width="5.095" height="5.095" transform="translate(830.055 526.226)"/>
  </g>
</svg>
