<svg xmlns="http://www.w3.org/2000/svg" xmlns:xlink="http://www.w3.org/1999/xlink" width="140.775" height="140.417" viewBox="0 0 140.775 140.417">
  <defs>
    <linearGradient id="linear-gradient" x1="0.25" y1="0.15" x2="0.75" y2="0.735" gradientUnits="objectBoundingBox">
      <stop offset="0" stop-color="#ed8622"/>
      <stop offset="1" stop-color="#de3a2d"/>
    </linearGradient>
  </defs>
  <g id="Group_1106" data-name="Group 1106" transform="translate(-122.846 -6719.001)">
    <g id="Group_1102" data-name="Group 1102" transform="translate(-268.981 6406.849)">
      <path id="Path_11765" data-name="Path 11765" d="M462.216,344.282,418.981,376.96l43.235,41.2,43.232-41.2Zm-28.367,31.259,28.457-21.756L490.583,375.8l-28.277,24.341Z" transform="translate(0 -14.886)" fill="url(#linear-gradient)"/>
      <path id="Path_11766" data-name="Path 11766" d="M470.8,312.151l-33.288,25.16L470.8,369.033l33.289-31.722Zm-21.84,24.067,21.91-16.753,21.77,16.95-21.77,18.741Z" transform="translate(-8.584 0)" fill="url(#linear-gradient)"/>
    </g>
    <g id="Group_1105" data-name="Group 1105" transform="translate(122.846 218.651)">
      <g id="Group_1103" data-name="Group 1103" transform="translate(0 6604.932)">
        <path id="Path_11777" data-name="Path 11777" d="M317.785,594.886a10.057,10.057,0,1,0-10.043,10.072,10.554,10.554,0,0,0,2.531-.313l2.247,2.56h4.894l-3.764-4.049A9.922,9.922,0,0,0,317.785,594.886Zm-10.043,6.551c-3.573,0-6.018-2.554-6.018-6.551s2.444-6.5,6.018-6.5c3.545,0,5.994,2.5,5.994,6.5S311.287,601.436,307.742,601.436Z" transform="translate(-297.67 -584.843)" fill="#191415"/>
        <path id="Path_11778" data-name="Path 11778" d="M375.8,585.658v12.151c0,2.7-1.465,4.106-4,4.106-2.5,0-3.967-1.408-3.967-4.106V585.658H363.9V597.78c0,5.178,3.545,7.709,7.848,7.709s8.021-2.531,8.021-7.709V585.658Z" transform="translate(-340.858 -585.375)" fill="#191415"/>
        <path id="Path_11779" data-name="Path 11779" d="M428.6,585.575h-4.581l-7.06,19.663h4.135l2.381-6.892h-.017l2.838-8.212,2.844,8.212h-.023l2.386,6.892h4.164Z" transform="translate(-375.459 -585.32)" fill="#191415"/>
        <path id="Path_11780" data-name="Path 11780" d="M491.181,585.575v13.5l-8.919-13.5h-3.938v19.663h3.938V591.761l8.919,13.477h3.938V585.575Z" transform="translate(-415.477 -585.32)" fill="#191415"/>
        <path id="Path_11781" data-name="Path 11781" d="M534.779,585.658v3.174h5.23v16.46h3.938v-16.46h5.23v-3.174Z" transform="translate(-452.293 -585.375)" fill="#191415"/>
        <path id="Path_11782" data-name="Path 11782" d="M596.16,585.658v12.151c0,2.7-1.465,4.106-4,4.106-2.5,0-3.968-1.408-3.968-4.106V585.658h-3.938V597.78c0,5.178,3.545,7.709,7.848,7.709s8.021-2.531,8.021-7.709V585.658Z" transform="translate(-484.559 -585.375)" fill="#191415"/>
        <path id="Path_11783" data-name="Path 11783" d="M657.755,585.658l-6.243,14.6-6.244-14.6H640.8v19.634h3.932V592.521l5.294,12.771H653l5.265-12.771v12.771H662.2V585.658Z" transform="translate(-521.429 -585.375)"/>
      </g>
      <g id="Group_1104" data-name="Group 1104" transform="translate(25.208 6631.527)">
        <path id="Path_11784" data-name="Path 11784" d="M373.328,670.531c-1.806,0-3.2-.988-3.2-2.586h1.585a1.449,1.449,0,0,0,1.611,1.338c1.04,0,1.625-.558,1.625-1.325,0-2.183-4.8-.766-4.8-4.093,0-1.585,1.261-2.573,3.106-2.573,1.729,0,2.95.91,3.08,2.456h-1.637a1.413,1.413,0,0,0-1.52-1.2c-.858-.026-1.521.39-1.521,1.26,0,2.04,4.782.767,4.782,4.067C376.447,669.231,375.343,670.531,373.328,670.531Z" transform="translate(-370.132 -661.292)" fill="#fd5f1b"/>
        <path id="Path_11785" data-name="Path 11785" d="M433.879,670.531a4.619,4.619,0,1,1,4.613-4.626A4.52,4.52,0,0,1,433.879,670.531Zm0-1.286a3.336,3.336,0,1,0-3.093-3.34A3.059,3.059,0,0,0,433.879,669.245Z" transform="translate(-408.694 -661.292)" fill="#fd5f1b"/>
        <path id="Path_11786" data-name="Path 11786" d="M497.329,661.628h5.315v1.208h-3.833V665.5H501.8v1.209h-2.988v3.95h-1.482Z" transform="translate(-453.079 -661.511)" fill="#fd5f1b"/>
        <path id="Path_11787" data-name="Path 11787" d="M552.578,661.628h6.3v1.208h-2.4v7.823H555v-7.823h-2.417Z" transform="translate(-489.108 -661.511)" fill="#fd5f1b"/>
        <path id="Path_11788" data-name="Path 11788" d="M614.911,670.531c-1.806,0-3.2-.988-3.2-2.586H613.3a1.449,1.449,0,0,0,1.611,1.338c1.04,0,1.624-.558,1.624-1.325,0-2.183-4.795-.766-4.795-4.093,0-1.585,1.26-2.573,3.106-2.573,1.728,0,2.95.91,3.08,2.456h-1.638a1.412,1.412,0,0,0-1.52-1.2c-.858-.026-1.52.39-1.52,1.26,0,2.04,4.782.767,4.782,4.067C618.029,669.231,616.925,670.531,614.911,670.531Z" transform="translate(-527.672 -661.292)" fill="#fd5f1b"/>
      </g>
    </g>
  </g>
</svg>
