<svg xmlns="http://www.w3.org/2000/svg" width="113.839" height="35.803" viewBox="0 0 113.839 35.803">
  <g id="Group_1109" data-name="Group 1109" transform="translate(-170.054 -380.819)">
    <path id="Path_11795" data-name="Path 11795" d="M184.272,393.573V397.4h9.157a8.12,8.12,0,0,1-2.087,4.828,9.375,9.375,0,0,1-7.07,2.8,10.186,10.186,0,0,1,0-20.37,9.737,9.737,0,0,1,6.9,2.741l2.694-2.694a13.226,13.226,0,0,0-9.593-3.893,14.017,14.017,0,1,0,0,28.031,12.844,12.844,0,0,0,9.779-3.925,12.676,12.676,0,0,0,3.317-8.954,12.317,12.317,0,0,0-.2-2.4Z" transform="translate(0 0)" fill="#3b3a40"/>
    <path id="Path_11796" data-name="Path 11796" d="M245.666,402.427a9.048,9.048,0,1,0,9.079,9.048A8.916,8.916,0,0,0,245.666,402.427Zm0,14.529a5.5,5.5,0,1,1,5.108-5.482A5.233,5.233,0,0,1,245.666,416.956Z" transform="translate(-36.851 -11.968)" fill="#3b3a40"/>
    <path id="Path_11797" data-name="Path 11797" d="M340.114,404.452h-.14a6.272,6.272,0,0,0-4.766-2.025,8.8,8.8,0,0,0-8.456,9.048c0,5.077,3.94,9.048,8.456,9.048a6.179,6.179,0,0,0,4.766-2.056h.14v1.262c0,3.457-1.853,5.31-4.828,5.31a5.018,5.018,0,0,1-4.563-3.224l-3.457,1.433a8.62,8.62,0,0,0,8.02,5.341c4.656,0,8.6-2.741,8.6-9.422V402.894h-3.768Zm-4.563,12.5c-2.741,0-4.828-2.336-4.828-5.482,0-3.192,2.087-5.482,4.828-5.482,2.71,0,4.828,2.336,4.828,5.513C340.395,414.667,338.261,416.956,335.551,416.956Z" transform="translate(-86.792 -11.968)" fill="#3b3a40"/>
    <path id="Path_11798" data-name="Path 11798" d="M291.046,402.427a9.048,9.048,0,1,0,9.079,9.048A8.916,8.916,0,0,0,291.046,402.427Zm0,14.529a5.5,5.5,0,1,1,5.108-5.482A5.233,5.233,0,0,1,291.046,416.956Z" transform="translate(-61.986 -11.968)" fill="#3b3a40"/>
    <path id="Path_11799" data-name="Path 11799" d="M372.132,381.657h3.909v27.362h-3.909Z" transform="translate(-111.926 -0.464)" fill="#3b3a40"/>
    <path id="Path_11800" data-name="Path 11800" d="M396.81,416.956a4.605,4.605,0,0,1-4.392-2.741l12.1-5-.405-1.028c-.748-2.025-3.052-5.762-7.74-5.762-4.656,0-8.534,3.66-8.534,9.048a8.845,8.845,0,0,0,8.97,9.048,9.028,9.028,0,0,0,7.537-4l-3.084-2.056a5.181,5.181,0,0,1-4.454,2.492Zm-.281-11.134a3.577,3.577,0,0,1,3.426,1.993l-8.176,3.379C391.78,407.395,394.474,405.822,396.53,405.822Z" transform="translate(-120.626 -11.968)" fill="#3b3a40"/>
  </g>
</svg>
