<svg xmlns="http://www.w3.org/2000/svg" width="116.149" height="115.187" viewBox="0 0 116.149 115.187">
  <g id="dot" transform="translate(-133.921 -221.968)" opacity="0.2">
    <circle id="Ellipse_2" data-name="Ellipse 2" cx="2.824" cy="2.824" r="2.824" transform="translate(207.588 221.968)"/>
    <circle id="Ellipse_3" data-name="Ellipse 3" cx="2.824" cy="2.824" r="2.824" transform="translate(244.421 221.968)"/>
    <circle id="Ellipse_4" data-name="Ellipse 4" cx="2.824" cy="2.824" r="2.824" transform="translate(133.921 258.481)"/>
    <path id="Path_7" data-name="Path 7" d="M176.4,261.3a2.824,2.824,0,1,1-2.824-2.824A2.824,2.824,0,0,1,176.4,261.3Z"/>
    <circle id="Ellipse_5" data-name="Ellipse 5" cx="2.824" cy="2.824" r="2.824" transform="translate(207.588 258.481)"/>
    <circle id="Ellipse_6" data-name="Ellipse 6" cx="2.824" cy="2.824" r="2.824" transform="translate(244.421 258.481)"/>
    <circle id="Ellipse_7" data-name="Ellipse 7" cx="2.824" cy="2.824" r="2.824" transform="translate(133.921 294.994)"/>
    <path id="Path_8" data-name="Path 8" d="M176.4,297.818a2.824,2.824,0,1,1-2.824-2.824A2.824,2.824,0,0,1,176.4,297.818Z"/>
    <circle id="Ellipse_8" data-name="Ellipse 8" cx="2.824" cy="2.824" r="2.824" transform="translate(207.588 294.994)"/>
    <circle id="Ellipse_9" data-name="Ellipse 9" cx="2.824" cy="2.824" r="2.824" transform="translate(244.421 294.994)"/>
    <circle id="Ellipse_10" data-name="Ellipse 10" cx="2.824" cy="2.824" r="2.824" transform="translate(133.921 331.507)"/>
    <path id="Path_9" data-name="Path 9" d="M176.4,334.331a2.824,2.824,0,1,1-2.824-2.824A2.824,2.824,0,0,1,176.4,334.331Z"/>
    <circle id="Ellipse_11" data-name="Ellipse 11" cx="2.824" cy="2.824" r="2.824" transform="translate(207.588 331.507)"/>
    <circle id="Ellipse_12" data-name="Ellipse 12" cx="2.824" cy="2.824" r="2.824" transform="translate(244.421 331.507)"/>
  </g>
</svg>
