<svg xmlns="http://www.w3.org/2000/svg" xmlns:xlink="http://www.w3.org/1999/xlink" width="319.551" height="339.186" viewBox="0 0 319.551 339.186">
  <defs>
    <clipPath id="clip-path">
      <rect id="crop" width="268" height="214" transform="matrix(-0.502, -0.865, 0.865, -0.502, 1221.912, 4401.192)" fill="none"/>
    </clipPath>
  </defs>
  <g id="Mask_Group_18" data-name="Mask Group 18" transform="translate(-1087.5 -4062.007)" clip-path="url(#clip-path)">
    <path id="Path_170" data-name="Path 170" d="M1641.728,2259.966c-.649.642-1.337,1.279-2.029,1.914.017-.706-1.181-.262-2.093-.078a2.555,2.555,0,0,1,.749-.543,2.352,2.352,0,0,0-1.15.6c-.576.045-.861-.177-.217-1.268.394-1.529,2.493-3.122,4.04-4.606.444-.066.962-.163.992.17l-.661,1.011.829-.138c.949-1.114-.285-.57-.05-1.177-.161-.868,1.757-1.915,1.97-2.923l-.551.851c-.181-.2-.069-.5-.3-.552l.924-.856c-1.3.2-2.08,2.308-3.254,2.688-.1.115-.184.215-.254.3a.478.478,0,0,1-.276-.4,13.282,13.282,0,0,1,2.9-2.55c-.617.348,1.48-2.492-.381-1.051l.038.249c-.514.46-1.145,1.11-1.787,1.708.285-.4.622-.834.969-1.266-1.118.929-1.465.739-1.8.679.03-.014.046-.031.08-.045-.3-.181-.534-.338-.739-.457a15.612,15.612,0,0,0,2.085-1.419c-.066.428.316.394.058.848.978-1.093,1.986-2.137,2.926-3.262l.081.843c.521-.444,1.1-.888,1.678-1.33a.911.911,0,0,1-.324.563l.951-.366-.146-.34c.355-.4.857-.459,1.169-.715a1.021,1.021,0,0,1-.083-.333,10.328,10.328,0,0,0,2.455-2.388c-.569.712-1.415.912-1.637.587a1.525,1.525,0,0,0,.081-.417,1.385,1.385,0,0,0-.124.1,1.306,1.306,0,0,1,.194-.429,7.328,7.328,0,0,1,1.8-3.11,1.82,1.82,0,0,0,1.278-.324c-.261.853-1.014,1.944-1.687,1.969.183.716.733,1.419,1.548.418-.289.255-.352.015-.577-.025.481-.591.767-.846.768-.318a22.122,22.122,0,0,0,1.455-2.895c.537-.238.785-.1.3,1.168,2.113-3.285,1.04-2.4,2.875-5.673-.43.705-.891,1.381-1.342,2.072a.787.787,0,0,1-.248-.242c.156-.287-.008-.366-.219-.4-.072-.169-.142-.35-.214-.529.092-.087.2-.184.358-.305a.751.751,0,0,0-.405.195,2.114,2.114,0,0,0-.351-.612c1.362-1.243,2.761-.537,2.941-2.2l1.035.033c-.127-.62.4-1.014.953-1.571l-.457-.041c.585,0,1.816-1.212,2.416-2.094l.264-.967.8.107c.736-1.087,1.474-2.139,2.2-3.273-.924.855.771-1.482-.8.777a9.293,9.293,0,0,1,.556-2.046,2.771,2.771,0,0,0,.618-.444,2.341,2.341,0,0,1-.047.247l-.388.552c.1-.036.186-.09.282-.131-.146.571-.23,1.077.557.416.291-.466-.906.707-.536-.38l.1-.093a5.1,5.1,0,0,0,1.761-1.388,2.341,2.341,0,0,1-.148.823l-.818.957.681.146-.929,1.734,1.661-.181c.613-1.047,1.213-2.15,1.809-3.245,1.662-1.139,2.526-3.739,3.743-5.812l1.132-.909c.949-1.734,2.625-4.041,2.7-6.65l.459.4c-.206-.794.859-1.364,1.229-2.078.014-1.05-.948.269-.809-1.25l-1.572,2.415.3-.808c.5-.245.62-1.07.7-1.849l.341-.9-.225-.034c.006-.029.01-.066.016-.093.645-1.357,1.28-.493,1.741-.325-.446-2.468-1.843.606-2.6.158.239-.239.478-.476.71-.729-.574.612-.121-.577-.29-.627.368-.2.678-.095.974-.644.228-.773.3-2.455.954-3.434l-.6-.227c-.159-.739.6-2.166.431-2.748.008-.009.011-.017.02-.026a2.187,2.187,0,0,0,.857,1.436,7.213,7.213,0,0,0-.167-3.868,4.381,4.381,0,0,1,.3-.976c.8-.456.151,1.577.188,2.1.843-1.454.722-2.53,1.3-3.76.269.245.43.638.054,1.577l.881.42,1.066-3.406c.3,1.1.715-.749.929-1.324a15.182,15.182,0,0,1,.712-2.714l.94-.2-.223-1.317,1.022-1.867c-.681.277-.024-1.459.01-2.367-.3.881-.649,1.559-.717.106.187,2.56-1.205,6-2.15,6.351-.362-1.694.441-5.281,1.014-6.472l.808-1.344c-.374-.577-.589-2-1.264-.65.063-.812.106-1.626.125-2.443l.929-2.074c.091.658.343-.321.566-.163a7.481,7.481,0,0,0,.163-1.244c.54-.708.981-.543,1.306.56-.079,1.079-.41,1.246-.763.879l.324.73-.431,2.14.252.019c-.172,1.077-.41,2.138-.622,3.2l.685-1.93a2.907,2.907,0,0,1-.218,1.79l.635-.486c-.093,1.452-.189,2.909-.361,4.36,1.246-4.843.962-10.309,1.983-14.564-.36.277-1.151,1.489-1.513,1.535l.108.5c-.3,1.089-.519.361-.817-.177.244-1.38.49-2.766.659-4.176.111.1.286-.242.414-.242-.363-.364-.636.174-1.247-.7-.061.294-.14.677-.247,1.185l.255-.735-.314,2-.511-1.763c0,.713-.511-1.4.066,1.243-.252-.349-.507-1.393-1.011-.66-.193.541-.371,1.08-.585,1.608l.348,1.034-.465,2.1-.828.162c.606-.861.368-2.758.705-3.989l-.632.025-.069-1.551-.125,1.04a3.354,3.354,0,0,1-.255-1.363c.757-.391.933-2.661,1.521-3.09.389-.386-.245,2.666-.067,2.818.656-.394.114-3.712.952-2.913-.358-.859.8-.632-.319-1.4l.574.1c0,.842.008,1.687-.021,2.522.189-.313.366-.63.54-.951.07.478.115.951.163,1.426-.066-.886.779-1.708,1.005-.811l.079-2.4.452.127c.659-1.95-.2-2.393,0-2.237.225-.381.4-1.607.654-.957l.222-.7-.5.093-.256-3.188c.155-.544.281-1.1.421-1.651l-.544-2.4c-.368.1.113-2.184-.46-.071-.359-2.243.215-3.444-.24-5.72l.62.8.007,1.495c.073.007.174.057.2-.144q.043.412.087.824c-.018-.5.075-.742.454-.379.145.765.168,1.573.464,1.077-.3-.848-.212-.882-.094-.835-.031-.306-.069-.612-.1-.919-.045-.115-.093-.237-.151-.38l.144.305c-.217-1.952-.472-3.91-.823-5.887l-.545,1.934-1.655,1.142c.408,1.06.745,2.117,1.091,3.184-.281,1.574-.576,3.12-.958,4.623l.853.891c.081.846.187,1.7.233,2.54l.594,2.415c-.195.986-.4,1.96-.65,2.916l-2.306-.148-.229,1.591c-.369.885-.712,1.763-1.115,2.616l-.9.089c.042-1.508.007-3.032-.005-4.551l-.371,3.2-1.052-.968.562-1.46c-.219-1.093-.509-2.188-.795-3.273a1.755,1.755,0,0,0,.64.333,2.379,2.379,0,0,0-.292-1.637l.732-.422c-.561-.625-1.169-1.238-1.759-1.838a6.337,6.337,0,0,0-.11-.916c.178-1,.36-2.011.474-3.043l.5-2.55c-.242-1.366-.613-2.743-.933-4.11-.459-.5-.893-.989-1.378-1.472l-.927-2.747c-.492-1.626-1.135-3.24-1.724-4.846-.28-1.159-.63-2.314-.962-3.475l-.872,0-.013-.022,2.722-1.022c-.373-.525-.721-1.05-1.118-1.56-.6-1.654-1.188-3.365-1.872-4.975l-2.039-2.513c-.043-.207-.081-.415-.135-.618-.036-.137-.306-.2-.47-.3l.149.821.39,1.06q.118.474.259.973c-.048.195-.271.376-.417.564-.1-.1-.272-.189-.286-.307a5.474,5.474,0,0,1,.02-.868c0-.057.048-.155.022-.168-.686-.349-.1-.825.013-1.253h0l-.149-.821-.085-.337.361-.173-.738-.944-.272.066c-.619.412-.165.668.048.96l0,1.457c.064.609.143,1.217.186,1.829.019.262.187.63-.432.652l.21.439a2.213,2.213,0,0,1,.486-.069c.039,0,.081.269.037.294a1.705,1.705,0,0,1-.448.122l-.163-.082-.19.531h0l.19-.531.088-.264-.21-.439-.362-1.843a2.067,2.067,0,0,1-.017-.892,1.311,1.311,0,0,0-.32-1.579l-.406-.5c.892-.626-.167-.723-.276-1.074l-.643.165-.419-2.018c.007-.218.021-.437.006-.652a1.24,1.24,0,0,0-.287-.012l-.032.619-.147.4-.3-.526-.065.27.036.819-.036-.82.065-.269c-.036-.46-.1-.918-.093-1.383a2.247,2.247,0,0,1,.219-.643c.542.152.468-.194.466-.437,0-.534-.376-.731-.966-.7l-.361-.26h0l.361.26.409-.373.382-.305-.469-.081-.276-.057c.171-.238.466-.48.427-.625-.276-1.076-.491-2.2-1.61-2.849h-.1l-.039-2.04-.313-1.988a6.81,6.81,0,0,0-.076-.813c-.027-.12-.16-.211-.245-.315a1.614,1.614,0,0,0-.238.418,2.461,2.461,0,0,0,.053.615l-.7-.752.023.12.331,1.47-.331-1.471-.023-.119c-.189.143-.553.329-.537.419.089.522-.328.721-.768.956-.063-.177-.117-.33-.172-.486-.23-.585-1.137-.914-.595-1.8.072-.115-.275-.379-.439-.566-.027-.03-.114-.019-.173-.026a4.811,4.811,0,0,0,.6-.4.79.79,0,0,0,.286-.434c.008-.154-.134-.292-.212-.436l-.238.276c-.4.293-.661.3-.734-.16a7.765,7.765,0,0,0-.232-.867h0c.126-.28.421-.63.343-.825a3.37,3.37,0,0,0-.779-.876l-.049.985,0,0a1.174,1.174,0,0,1,.232-.009.261.261,0,0,1,.227.112.261.261,0,0,0-.227-.112,1.174,1.174,0,0,0-.232.009l0,0,.05-.985-.12-.449.536-.129a5.44,5.44,0,0,0-.211-.544,1.046,1.046,0,0,0-.221-.227c.058-.037.137-.112.168-.1.132.04.321.075.36.169a2.266,2.266,0,0,1,.24.879c-.007.662.409.8,1.085.681.047-1.923-.026-2.231-.682-2.558a3.62,3.62,0,0,0,.277.748,1.428,1.428,0,0,1,.057.32c-.145-.01-.347.026-.423-.042a1.991,1.991,0,0,1-.368-.514c-.135-.229-.2-.615-.583-.052a.532.532,0,0,1-.3.037l-.437-1.941c-.046-.2-.108-.4-.145-.6a5.723,5.723,0,0,1-.072-.594c-.019-.24.056-.527-.056-.714a4.975,4.975,0,0,0-.731-.79l.191,1.3h0l-.19-1.3-.246-.275-.4-.578c-.616.393-.5-.073-.575-.319-.068-1.076,1.175-1.1,1.7-1.475a3.952,3.952,0,0,1-.788-1.89c-.074-.711-1.055-1.186-.316-2.146-.342.354-.76.779-.694,1.048a10.635,10.635,0,0,0,.866,2.136c.221.435.1.993-.375,1.023a2.218,2.218,0,0,1-1-.375c-.073-.035-.136-.19-.1-.246.345-.507.216-.711-.413-.656-.068.006-.164-.12-.175-.2-.047-.323-.188-.43-.517-.112-.287.277-.435.149-.464-.074-.055-.44-.054-.894-.077-1.342.3-.019.827.149.47-.417l-.04-.716c.338-.645.31-.681-.461-.579l-.11-.316c-.165-.323-.318-.66-.838-.443.151-.19.142-.338-.1-.6a1.985,1.985,0,0,1-.383-.614l.084-.2.627.21c-.094-.561-.173-1.026-.251-1.491l-.02.021c-.048.09-.089.184-.134.275.045-.092.086-.186.134-.275l.02-.021c-.059-.6-.06-.6.527-.707.056-.01.167-.135.155-.162l-.55-1.191a4.862,4.862,0,0,1-.21.965,6.56,6.56,0,0,1-.5.675,4.253,4.253,0,0,0-.265.522c-.017-.065-.041-.13-.058-.2.014-.408.068-.833-.137-.944-.069-.038-.118-.084-.179-.125-.172-.536-.349-1.066-.538-1.59.284-.1.469.1.624.462.142-.663-.189-.819-.687-.843l-.034.041h0l-.019.011h0l.019-.011.034-.041c-.026-.019-.061-.037-.092-.056-.023-.062-.044-.126-.067-.189l-.151.061c-.144-.082-.266-.163-.248-.244.146-.659-.286-.225-.519-.172l.024.145h0l-.023-.144c-.043-.382-.071-.768-.135-1.144-.027-.157-.061-.146.3-.821a.3.3,0,0,0,.036-.119l.076-1.322a2.9,2.9,0,0,0-.416.65,1.894,1.894,0,0,1-.334.375c-.392-.2-.932-.332-1.1-.657a5.339,5.339,0,0,1-.295-1.608l.109-.161.474-.13a1.112,1.112,0,0,0-.165-.448c-.045-.045-.291.07-.446.114l-.312-.482-.4-1.193h.006a1.288,1.288,0,0,1-.038-.4c.134-.694-.327-1.161-.493-1.738a4.991,4.991,0,0,0,.562-.123c.157-.052.4-.133.438-.225.206-.519.359-1.047.591-1.761a6.648,6.648,0,0,0-1.223.766c-.349.356.142.422.3.6.057.064,0,.211,0,.32-.1-.044-.2-.084-.291-.135-.3-.171-.565-.443-1.021-.044l-.09.168c-.026.14.006.324-.086.411a8.278,8.278,0,0,1-.8.611l0-.655c0-.146.1-.41.039-.426-.72-.2-.591-.864-.778-1.353-.044-.241.014-.624-.154-.7-.51-.225-.458-.7-.6-1.093a6.244,6.244,0,0,0-.493-.915l-.176.087a4.585,4.585,0,0,1,.256.824,1.834,1.834,0,0,1-.12.578,4.016,4.016,0,0,1-.306-.345c-.04-.057-.016-.156-.046-.222a5.744,5.744,0,0,0-.743-1.495c-.451-.513-.522-.491.17-1l.226-.172.465-.381.106.465a1.082,1.082,0,0,0,.875.941,3.131,3.131,0,0,0-1.066-2.236c-.027-.335-.053-.675-.079-1-.01-.087-.078-.234-.114-.227-.138.031-.342.094-.392.182a1.253,1.253,0,0,0-.079.47,1.857,1.857,0,0,0-.627.223c-.68.637-.861.646-1.282-.017,1.01-.06,1.234-1,1.893-1.453.047-.032-.019-.213-.032-.325l-.645.191c.005-.1.017-.2.015-.3-.009-.167-.018-.323-.028-.483-.17.077-.417.126-.491.24a.705.705,0,0,0-.027.487,3,3,0,0,0,.164.493l-.7.135c-.159.024-.316.024-.474.035l-.032-.1c.689-.4.824-.856.461-1.355a14.331,14.331,0,0,1-.735-1.239c.138-.072.372-.14.4-.218a3.07,3.07,0,0,0-.3-2.255c-.139-.317-.4-.546-.007-.962.052-.055-.056-.218-.089-.331l-.242.227-.454.371-.853.641.853-.641-.337-.1.017-.764h0l-.312-.461c-.354-.624-.328-.7.446-1.237.256-.179.522-.347.765-.54a2,2,0,0,0,.334-.388c.006-.009-.138-.127-.173-.109a1.1,1.1,0,0,0-.424.293c-.281.489-.472.336-.66.087a2.08,2.08,0,0,1-.156-.3.678.678,0,0,1-.412.085.678.678,0,0,0,.412-.085l-.256-1.114c.02-.224.125-.495.038-.657s-.365-.245-.559-.362l-.161-.061-.968-3.31a1.38,1.38,0,0,0-.029-.571c-.061-.113-.3-.125-.451-.182a1.294,1.294,0,0,0-.03.449,1.665,1.665,0,0,0,.273.415l-.062.646c.544-.155.341.188.328.438a7.965,7.965,0,0,0,.046.9c.457-.214.272.084.26.265a1.125,1.125,0,0,0,.043.437c.083.223.2.429.3.644h0c-.809.261-.8.257-.427.732.061.077.041.214.059.322l-.459-.152-.315-.117a1.725,1.725,0,0,0-.139.406.649.649,0,0,0,.1.317l.373.744-.2.136c-.292-.249-.713-.434-.843-.76a5.18,5.18,0,0,1-.156-1.472.585.585,0,0,1,.288-.125,1.375,1.375,0,0,1,.379.133c.1-1.145.036-1.2-.906-.857l-.048-.081.725-.975c.307-.821.266-.87-.764-.8a1.968,1.968,0,0,1,.307.348,2.469,2.469,0,0,1,.139.473c-.6.333-.628-.108-.739-.369-.151-.352-.284-.665-.884-.382-.055.026-.189-.053-.228-.119a4.386,4.386,0,0,1-.222-.516l.133-1.3.482-.736-.083-.026.083.026.436,1.141.24-.1-.125-.8c0-.358-.007-.726-.01-1.07-.013-.319-.038-.312-.42-.146a.243.243,0,0,1-.235-.112c-.11-.345.3-.988.771-1.259a1.956,1.956,0,0,0,.287-.252,1.3,1.3,0,0,0-.321-.062l-.991.072-.214.613-.021.383.021-.383.214-.613c-.134.045-.271.08-.4.136-.582.244-.79.121-.666-.436.036-.16-.11-.313-.172-.468a1.034,1.034,0,0,0,.146-.154c.109-.178.334-.432.285-.527-.132-.259-.361-.151-.554.127a.356.356,0,0,1-.243,0,2.791,2.791,0,0,1-.363-.22l-.175.465c-.024.078-.034.169-.052.252.017-.083.027-.174.052-.252l-.348-.076.051-.278.009-.755.31-.59c.209-.365.178-.584-.292-.545l-.737-1.4c.033-.3.243-.7-.386-.6-.136.021-.545-.157-.057-.493.075-.052.1-.175.151-.265a2.3,2.3,0,0,1-.27-.021l-.68-.138-.04-.088a7.211,7.211,0,0,0-.209-1.086,7.518,7.518,0,0,0-.548-1.046l-.22.475-.267-.231a2.5,2.5,0,0,1,.248-.458c.347-.414.227-.7-.129-.812-.339-.1-.58.153-.668.5a1.561,1.561,0,0,1-.228.035l-.269-.616-.181-1.175-.646-.1c.082.5.15.915.218,1.328l-.984-.445s-.083.107-.062.144c.193.332.435.648-.226,1.03-.025.015.031.208.068.308l.228-.082c.156-.036.4-.132.451-.076a.448.448,0,0,1,.076.452c-.206.351-.156.485.221.528.133.015.225.18.293.3.155.284.284.584.423.877.009-.3.019-.6.03-.951-.011.354-.021.652-.03.951l-.008.547c-.173-.024-.423.014-.5-.08-.312-.358-.58-.752-.863-1.133l-.135.072h0l.135-.072c-.048-.177-.031-.416-.155-.521a2.03,2.03,0,0,1-.467-2.061h0l-.127-.306c.017-.386.108-.813-.482-.833-.057,0-.031-.261-.043-.4l.494-.336a1.077,1.077,0,0,1,.166.182c.134.219.262.429.391.643l.756-.7-.956-1.523h0l-.616-1.057a.569.569,0,0,1-.045-.094c-.417-.729-.425-.734-.129-1.5-.675.414-.868.317-.528-.342a.427.427,0,0,0,.011-.36,2.348,2.348,0,0,0-.364-.4l-.409.4h0a5.525,5.525,0,0,1-.01-.7,1.533,1.533,0,0,0-.273-1.276.361.361,0,0,0-.078.252l-.08.576a1.825,1.825,0,0,1-.507-.274c-.309-.334-.558-.7-.866-1.05-.057-.065-.221-.038-.335-.054,0,.129-.05.3.016.379l1.323,1.425.426.936-.02.466c-.271-.052-.72-.014-.776-.172-.158-.448-1.092-.541-.493-1.368.013-.018-.064-.085-.105-.124-1.013-.928-1.457-2.411-2.813-3.088l-.09.473v0l-1.146.668c-.557-.526-.527-.608.23-1.03a3.634,3.634,0,0,0,.623-.575l-.8.1c.637-.769-.066-.873-.369-1.2l-.332-.652c-.049-.212-.039-.476-.161-.626a8.458,8.458,0,0,0-.881-.842l-.341-.359a1.47,1.47,0,0,1-.221.218,1.47,1.47,0,0,0,.221-.218l-.469-.564-.248-.988.151-.089.6.372a3.643,3.643,0,0,0-.094-1.159,10.359,10.359,0,0,0-.955-1.667,4.177,4.177,0,0,0-.74-.679,6.653,6.653,0,0,0,.366.991c.314.551.687,1.061,1.034,1.589a8.951,8.951,0,0,1-.855-.4,3.1,3.1,0,0,0-.7-.117h0c.117-.2.367-.548.327-.586a2.63,2.63,0,0,0-.676-.375c.018-.192.109-.527.039-.556-.387-.161-.243-.441-.152-.775.135-.495.47-1.11-.342-1.225-.173-.024-.259-.364-.4-.545a8.765,8.765,0,0,0-1.464-1.747c-.47-.342-.985-.526-1.118-1.207-.04-.2-.255-.337-.4-.494-.26-.286-.531-.574-.808-.843-.233-.224-.485-.423-.729-.632-.394-.594-.834-1.189-1.265-1.775-.048-.065-.159-.131-.222-.107-.531.2-.663-.26-.94-.521-.512-.473-1.061-.895-1.592-1.33l-.144.192c.269.312.525.637.807.936q1.486,1.581,2.857,3.194l1.563,1.591a7.861,7.861,0,0,1,.94.813,10.6,10.6,0,0,1,.84,1.226,2.69,2.69,0,0,0-.39-.1c-.4-.045-1.134.388-.875-.6.006-.023-.126-.056-.186-.095a4.041,4.041,0,0,1-.482-.327l-1.145-1.042-.952-.886a2.738,2.738,0,0,0-.251-.666c-.072-.1-.291-.08-.442-.114a1.959,1.959,0,0,1-.487-.388c-.414-.629-.874-.706-1.579-.214-.41-.55-.879-1.087-1.306-1.639-.272-.346-.5-.2-.719.167l-.006.048h0l.006-.048c-.649.279-.156-.554-.471-.61l.2-.318c-.524-.27-.119-.729-.068-1.129a.45.45,0,0,0-.166-.355c-.7-.526-1.45-1.014-2.2-1.5l-.138.207.1.519a9.28,9.28,0,0,1-1.275-1.259.571.571,0,0,1-.186-.347c.034-.615-.207-.416-.47-.166l-.255.255-.764-1.146.525-.278c-1.227.035-1.956-.864-2.848-1.461a16.8,16.8,0,0,0-4.128-1.987,6.856,6.856,0,0,1-2.245-1l-1.264-.04c.148.131.239.275.362.308.382.1.549.331.361.85a.411.411,0,0,0,.03.325c.289.338.279.318-.11.818-.358.458-.376.006-.525-.141-.288-.3-.649-.547-.188-1.18a.353.353,0,0,0-.1-.277.265.265,0,0,0-.284.019c-.425.6-.856.83-1.384.513-.081-.048-.305.21-.462.327l-1.07-.473a.986.986,0,0,0-1.35-.367l1.243.854.313.409c-.191.042-.418.177-.565.114-.565-.24-1.106-.539-1.646-.828a.579.579,0,0,1-.312-.407c-.053-.608-.341-.74-.785-.695a2.321,2.321,0,0,1-.712-.138c-.519-.048-.469.542-.611.917l-1.868-.363c-.6-.069-1.206-.1-1.805-.126l-.744-.121a1.6,1.6,0,0,0-.608-.156,5.091,5.091,0,0,1-2.857-.068c-.132-.052-.312.055-.469.09l-.195-.047c-.841.246-1.626-.015-2.487.327-.592.234-1.315.786-1.933.315-.051-.039-.2.171-.3.265l.876.448-.876-.448-.091-.007c-.438-.065-.877-.118-1.31-.2-.092-.017-.179-.13-.244-.232a3.488,3.488,0,0,1-.19-.441c-.188.265-.538.587-.529.785,0,.064,0,.094,0,.143a3.847,3.847,0,0,0-1.021.268l-.476-.047-1.013.133c-.141-.332-.272-.576-.582-.165a.452.452,0,0,1-.54.122,6.578,6.578,0,0,1-.879-.761c.086.5.149.873.222,1.3a4.414,4.414,0,0,0-.835.2c-.483.212-.923.36-1.192-.47a.493.493,0,0,0-.266-.279c-.076-.034-.176.044-.266.072a1.6,1.6,0,0,0,.065.39c.043.088.138.107.211.157-.355.375-.663-.518-.879.155-.348-.056-.693-.109-1.018-.159.613-.624-.593-1.54.089-1.845a3.59,3.59,0,0,0-2.514.587c1.988.826.963.937-.165,1.073-.215.027-.432.062-.635.1l.023-.023a6.893,6.893,0,0,0-2.947.406,8,8,0,0,1-.779-.45c.05.019.1.055.149.041l1.355-.427c.071-.025.131-.177.2-.27-.068-.082-.146-.253-.2-.231-.516.179-1.028.424-1.537.645l.023.23a14.6,14.6,0,0,0-2.121-1.284c.152-.392,3.766-.485.947-1.306-3.37,1.086.445,1.974-2.184,3.4l.779.263c-.074.37-.3.292-.476.349-.128.182-.021.568-.1.79-.1-.015-.2-.032-.294-.05l.008-.282-.278-.353-.2.494-.184-.008a1.827,1.827,0,0,1-.041-.306c.032-.7-.1-.654-.468-.473-.28.141-.221.419-.19.668a1.124,1.124,0,0,0-.617.01c-1.225-.537,1.757-.319.6-1.573-1.857-.564-2.846.6-4.023-.082,1.2-1.128.44-.686,1.815-1.693-4.469-.04.275-1.332-3.149-2.1-1.1.2-.412,1.21-2.166.935,1.021,1.246.885,1.65,3.692,1.727-1.01,1.776-3.686-.479-5.646.58,1.564.156.49.363,2.182.114.229,1.5.834,1.737-.68,3.114,1.773-.382,2.578-1.981,5.149-1.51.654,1.533-3.177,1.132-3.223,3.111-1.261,1.018-4.289.027-5.714-.549-2.415,1.377-5.405,1.611-7.116,3.506-1.8-.453-5.928,1.95-9.227,1.9-.627-.845-4.055.328-2.222-1.1-.239.349-2.9,1.141-2.053,1.757.224-.347.568-.187,1.136-.37l-.327,1.2c-1.628-.085-3.081,1.687-4.681,1.386-.667-.739,2.664-1.208,1.465-1.981-.551,1.005-2.263,1.866-4,2.812a11.881,11.881,0,0,1-4.6,1.448c-1.267.185-1.789-1.072-2.345-1.046a20.836,20.836,0,0,0-1.992.912c-.366-.315-.552-.8-1.1-1.163a3.759,3.759,0,0,0-2.179,1.36c-2.932.311-1.9-1.323-.8-2.771l1.669-.22c.923-1.059,2.608-1.5,1.306-2.267-.744.459-.562.938-.752,1.326l-1.118-.285c-.748.9-3.156,2.233-2.569,3.011a8.012,8.012,0,0,0-2.935.976,7.031,7.031,0,0,1-2.793,1.037c1.332.009.088,1.071.7,1.594l2-.7c-.708.509-1.539,1.206-2.4,1.789a6,6,0,0,1-2.547,1.236c-.078-.637-.1-.852-1.06-.969,1.331.155-2.129,2.477.461,2.149a6.656,6.656,0,0,1,2.4-1.789c1.185.807-.361,1.853-.938,3.02-1.007.859-2.915,2.614-4.146,3.923-1.02.361-1.994-.706-3.1,1.122,2.521-.336-.8,3.056-.548,4.531-1.693.612-1.617,2.657-3.239,2.762a9.525,9.525,0,0,1,1.276-1.778,3.921,3.921,0,0,0,1.139-2c-.4-.824-1.762-1.608.184-3.746-2.87,1.7-1.139,1.879-2.134,3.134l.821-.81c-.211.621.914.6.143,1.232a14.873,14.873,0,0,1-3.6,1.9,28.456,28.456,0,0,0-3.219,1c.824.082.32,1.424-.093,1.9-2.345,1.221-1.175-1.5-3.155-1.333-.1,1.331-1.47,2.517-.63,2.53-.693.807-.564.134-1.245.519a4.374,4.374,0,0,1-1.068,3.141c-.191-.37-.469-.939.559-1.923-1.206,1.031-2.529.6-2.61-.48.683-.584,1.319-1.222,2.033-1.743.1-.778-.385-.391-.949.125-.542.543-1.171,1.2-1.449.856.593-1.115,1.551-1.417,1.9-2.143-1.178-.159-2.007,2.411-2.78,3.562-1.459,1.622-1.628.407-2.025.081-.53,2.1.412,1.429,1.356.794.983-.607,1.951-1.2,1.424.624a7.5,7.5,0,0,1-1.067,3.1c-.619,1.113-1.358,2.285-1.821,3.374,1.948-.982,1.262,1.233.473,3.435,1.512-2.575,1.509.148,2.613-3.317l.8.547c-.754,1.223-1.945,2.48-2.678,3.751-.083-.421-.422-.236-.318-.746-.558,1.392-1.044,2.821-1.557,4.213l-.359-.714c-1.207,2.455-3.023,5.462-3.11,7.247.3-1.356,1.494-2.119,1.355-.672a9.025,9.025,0,0,1-.2,3.635c-1.165.312-2.109,5.121-2.559,1.848a10.3,10.3,0,0,0,.155,3.336,19.056,19.056,0,0,1,.394,3.144v-2.534c.883-.156,2.076,2.007,2.878-.175a2.482,2.482,0,0,0,1.032,2.057,1.985,1.985,0,0,1,.567.856,9.648,9.648,0,0,0-.551,2.06,4.036,4.036,0,0,1-.987-2.86c-.212.974-.673,1.877-.149,2.94-.745.746-1.154-1.975-1.438-1.911-.149,1.875.466,0,.611,1.771.936,3.063-1.5,1.954-.79,4.932-.091-.65.176-1.815.593-1.051a7.259,7.259,0,0,0,.369,2.429c-.017.01-.038.017-.053.027-.1.074-.256-.067-.309-.2-.083-.208-.162-.409-.248-.626-.2.014-.284.06-.231.218a.815.815,0,0,1-.055.71,3.655,3.655,0,0,1-.574.854c-.066.078-.15.161-.246.086a.212.212,0,0,1-.019-.289,1.636,1.636,0,0,0,.257-.706l.091-.62c.047-.184-.069-.28-.317-.343l-.029.064a2.459,2.459,0,0,1-.406,1.3,5.921,5.921,0,0,1-1.251,3.478.52.52,0,0,0,.2.905.876.876,0,0,1,.488.38.841.841,0,0,0-.359.728h0l-.29.167c-.066-.487-.455-.531-.748-.707-.515.478-.042.983-.094,1.469-.012.115.412.089.28.354-.112.225-.49.171-.569.079-.548-.635-.664.072-.8.432-.193.509-.423.834-.919.723.052.323.327.546.235.928.376-.055.589.1.533.581-.04.348.087.442.377.463.268.022.535.155.356.6-.157.391-.272.766.253.941-.294.3-.519.013-.723.134h0c-.218-.2-.049-.863-.471-.726-.368.121-.209.661-.272,1.016a1.515,1.515,0,0,0,.035.394h0a1.619,1.619,0,0,1-.4.881,1.107,1.107,0,0,0,.09,1.626,1.343,1.343,0,0,1,.381.789l.074.283c-.162.511-.561.98-.253,1.592l-.007.131a1.141,1.141,0,0,1-.157.625c-.094.208-.144.469.032.609.306.24.24.611.334.937-.1.356-.55.507-.487.9a5.58,5.58,0,0,1-.092,1.637,3.076,3.076,0,0,1,.026,1.38c-.049.786-.1,1.622-.151,2.421-.01.2.013.487.206.5.224.015.19-.288.2-.473.028-.4.03-.794.085-1.194.094-.681.189-1.382.275-2.012.161-1.079.184-2.186.282-3.275l.458-.241c.233.206.131.4.014.617-.073.134-.261.285-.13.444.157.187.3-.061.442-.122a.439.439,0,0,0,.552-.177c.075-.108,0-.431.253-.3.188.1.116.329.148.513.123.7-.375,1.242-.32,1.944a14.652,14.652,0,0,0,.04,1.911c.115.56.015.761-.448.817-.173.021-.351.077-.363.324a.386.386,0,0,0,.345.439c.334.051.494.287.582.622.092.5-.024,1.056.287,1.518l.027.02h0l-.027-.02c-.059.522.185,1.032.1,1.559-.123.056-.348,0-.305.265.087.54.1.539-.391.5a.679.679,0,0,0,.452.744c.612.119.383.358.16.651-.178.234-.275.453.054.679.234.16.183.4.081.627-.412.918.023,1.734.932,1.736.031.168.075.34-.047.469a.748.748,0,0,0-.043.911c.181.384.068.543-.271.689a.7.7,0,0,0-.122,1.088c.122.438.258.812.793.574.241-.106.221.174.164.307-.142.323-.122.548.194.7.137.073.075.207.1.322.053.235-.577.738.208.7,0,0,.021.031.015.043-.22.4.179.706.047,1.086-.142.413.063.6.417.641.441.057.5.274.313.646-.3.288-.4.623-.1.826.068.025.079.076.031.148-.134.2.415.115.1.386h.178c.082,0,.171,0,.113.071-.182.208,0,.2.216.175.191-.02.234.059.259.146a3.669,3.669,0,0,0,.137.484c.09.2.13.441.71.344.3-.053.271.239.7.073-.01.031,0,.063-.032.092a.718.718,0,0,1-.515.306c-.169.018-.4.1-.333.2.191.292-.173.852.885.766-.609.275-.87.47-.483.647.133.061.16.263-.1.419a.409.409,0,0,1-.461-.024c.205-.337-.365-.294-.514-.457-.095-.105-.5-.087-.8.082-.265.148.012.215.007.329,0,.028.023.049.028.076.074.479.25.545,1.181.465h0l.29.207a.242.242,0,0,1,.2-.137.242.242,0,0,0-.2.137l-.29-.207c.015.176.018.362.043.537.02.145.156.2.459.087.708-.049.71-.046.461.377a.108.108,0,0,0,.018.139c.168.225-.023.406-.521.545-.292.082-.351.178-.2.265.11.062.108.19.353.195.163-.143.191-.328.5-.438l.246.048c-.316.287-.394.523-.065.685a.863.863,0,0,0,.11,1.1l.039.178c-.287.13-.37.266-.4.448a.9.9,0,0,0,.381.79.51.51,0,0,1,.177.6c-.061.242-.447.6.26.621a.086.086,0,0,1,.059.106c-.137.281-.044.566-.314.833s-.114.331.209.38c.172.026.374.05.32.215l-.16.567-.109.024c-.13.177-.181.368-.418.528.505.211.271.671.525.953.123.136.149.148-.073.271-.337.186-.238.812.119.857a2.519,2.519,0,0,0,.817-.181l.025.129a3.181,3.181,0,0,0-1,.428c-.148.1-.153.3-.484.254-.267-.04-.415-.133-.416-.3-.005-.346-.429-.594-.243-.986.034-.071-.082-.1-.177-.129-.178-.14-.484-.244-.086-.517.132-.09.024-.192-.027-.278-.068-.115-.151-.223-.021-.379.208-.251.039-.313-.337-.253l-.118-.044c.27-.211.4-.445.285-.627a1.18,1.18,0,0,1-.2-.794l-.144-.156c-.179,0-.505.143-.489-.036s-.216-.118-.355-.15c-.334-.115-.547.161-.828.246-.046-.066-.077-.12-.118-.17a.35.35,0,0,0-.4-.05c-.282.1-.1.163-.052.231.072.1.067.191-.134.292a.837.837,0,0,1-1.023.269,2.2,2.2,0,0,0-.44-.044c-.44-.008-.633.072-.469.323a1.453,1.453,0,0,1,.351.786c0,.116.191.124.353.151.12.02.411-.074.341.078-.046.1-.256.147-.433.162-.125.011-.275,0-.349.092-.092.119.045.159.19.189l.111-.025a1.408,1.408,0,0,1,.564-.193c.408-.042.475-.139.287-.281-.213-.16-.144-.338.12-.542l.1-.085c.367-.059.559.048.563.215.01.348.372.628.151,1.058-.083.158.1.273.27.362l-.1.085c-.5.335.068.473.107.7.032.183.192.346.1.564h0c-.127.19.071.34-.066.542-.169.248-.036.466.245.619-.029.322.426.525.356.83-.11.482.178.875.2,1.328.019.368-.215.849.3,1.141.019.01.006.045,0,.069a5.191,5.191,0,0,0-.014,1.43c.085.329-.34.45-.523.641-.158.162-.226-.118-.388-.151a.56.56,0,0,0-.318.077.621.621,0,0,0,.171.4c.037.307.2.646-.275.971-.049.035-.02.119-.028.18l.562-.095.724.179.148.264c.219,0,.365.3.663,0a.52.52,0,0,1,.13.039c.2.136.035.52-.281.62-.122.039-.213.085-.211.168,0,.038.065.093.116.1.986.038.109.233-.02.364-.118.094-.207.194-.183.313.336.215.766-.025,1.141-.051.2-.013.351-.083.49.04s.272.237.066.433a.321.321,0,0,0,0,.505.271.271,0,0,0,.281.069c.132-.037.167-.118.138-.2-.158-.439.213-.268.472-.226a.28.28,0,0,0-.066-.135.28.28,0,0,1,.066.135l.621.276.478.157.013.071.082.678a.288.288,0,0,1-.21.346.624.624,0,0,1-.562-.026.345.345,0,0,1-.217-.278c-.015-.14-.154-.151-.32-.091-.151.055-.326.095-.278.262.08.286.622.559,1.094.527.581-.04.927.334.638.7-.053.066-.217.142-.106.193a1.47,1.47,0,0,0,.545.131c.2.008.1-.157.167-.211.315-.248.02-.7.7-.817.189-.034.361-.1.288-.244-.092-.175-.308-.09-.451.01a.515.515,0,0,1-.762-.034l-.151-.282c.07-.168,0-.347.2-.531.2.095.222.34.566.244h0c.114.094.223.223.4,0a.508.508,0,0,1,.316-.232c.241-.049.528-.077.55-.3.018-.2-.047-.376-.353-.444a.386.386,0,0,1-.269-.21c-.507-.126-.612.335-.99.4h0l-.573-.062a1.4,1.4,0,0,0-.055-.376c-.126-.284.02-.678-.578-.771-.179-.029-.088-.174.107-.262.284-.127.269-.314.031-.34-.464-.05-.462-.286-.486-.507a3.393,3.393,0,0,0-.54-1.412c.107-.235.45-.468.246-.71h0l-.049-.354a4.131,4.131,0,0,0-.066-.8c-.058-.189-.358-.539.408-.655.023,0,.044-.041.067-.063a.477.477,0,0,1,.585-.121c.315.1.76.068.424.45-.018.02.024.085.056.087.441.028.4.29.333.465-.172.457.8.616.343,1.142a.139.139,0,0,0,.034.023c.367.134.38.45.658.638.2.133.437.3.115.581-.128.109.036.2.183.252l.011.072a2.887,2.887,0,0,1,.62,1.255c.133.669-.168,1.39.027,2.054.036.125-.046.27-.237.348-.29.12-.242.259-.249.438-.015.351.4.381.679.518.265.756.219,1.642,1.105,2.2l-.1.1a1.121,1.121,0,0,0-1,.167c.4.048.793-.042,1.042.146.484.873.241,1.948.638,2.881l.23,1.52h0l-.23-1.52c-.121.177,0,.358-.094.524-.087.147.1.379-.193.425a.668.668,0,0,1-.583-.279.638.638,0,0,1-.1-.26l-.5-1.865c-.054.06-.092.145-.166.178-.525.24-.379.416-.175.727.287.438.673.891.468,1.473-.078.22.067.311.29.347.393.064.6.234.631.534.1.16.053.363.219.523.253.242.039.613-.406.76-.071.023-.205.051-.183.08.221.278-.344.71.169.939a.446.446,0,0,1,.266.6c-.077.258-.079.629.163.745a.367.367,0,0,1,.238.506,1.113,1.113,0,0,0,.419,1.27.336.336,0,0,1,.1.186,4.747,4.747,0,0,0,.67,1.563,1.62,1.62,0,0,1,.227.691l-.228-.337c-.009.27-.012.543-.229.693.107-.079.216-.289.322-.225l.145.822a1.525,1.525,0,0,1,.17-.349.762.762,0,0,0,.073.125,6.721,6.721,0,0,0,.106,1.954c-.018.061-.024.12-.048.184a.926.926,0,0,0,0,.349l-.492.817c-.056.1-.12.221-.009.295s.243-.039.363-.078a1.789,1.789,0,0,1,.938.4,3.079,3.079,0,0,0,.266.5c-.62-.365-.074.339-.18.564.706-.318.735,1.833,1.428,2.239-.842.844-.072,2.894-.117,4.1.545.33-.258-.623.322-.658l.43.668c.53-.662-.755-1.413.211-1.54.537.726.322,1.3.431,1.913.112.063.214.121.212-.016l-.106.77c.319.226.537.394.719.548,0,.025-.014.051-.013.076.04.01.089.015.13.024l.1.09c.225.513.929.766.835,1.444l.05.168a.767.767,0,0,1,.237.216l0,.427.173-.278a.413.413,0,0,0,.2.046l.114.006.192.315a.766.766,0,0,0,.285.769h0a.3.3,0,0,0,.176.225,7.874,7.874,0,0,0,1.015,2.311,6.969,6.969,0,0,1,1.14,1.4,2.818,2.818,0,0,0,.411.787c.175.169.348.353.53.529.353.616.689,1.241,1.032,1.868a.752.752,0,0,1-.084.064c-2.342-1.52-4.568-5.789-7.516-8.246a4.3,4.3,0,0,0,.4,1.759c-.317.42-.847-.531-1.169-.853a5.455,5.455,0,0,1-.695-1,3.027,3.027,0,0,1,.257.318l-.434-.948a.9.9,0,0,0-.016.217c-.067-.155-.16-.3-.215-.459-.045-.134-.144-.19-.322-.129a.274.274,0,0,0-.218.313c.018.1.027.236.107.289.41.273.163.85.528,1.136a1.193,1.193,0,0,0,.269.918c.21.319.637.475.8.849l.387.835c-.534.118-.768.243-1.239,1.255l.962,1.493-1.24,1.145c-.049-.06-.08-.131-.123-.194.019-.009.037,0,.058-.018.081-.075.042-.16.026-.241a15.545,15.545,0,0,0-.729-1.537l0-.009c-.092-1,.223-1.827.925-1.643-.611-.022-1.324-.694-1.849-.526a1.261,1.261,0,0,0-.259-.677l-.255-.852c.849-.161.932-.3.552-.868a1.085,1.085,0,0,1-.08-.258.62.62,0,0,0-.768-.5c-.133.019-.337.068-.345-.105-.006-.14.169-.175.292-.2a.454.454,0,0,0,.382-.337c.054-.2-.088-.26-.239-.33a.833.833,0,0,1-.482-.408c-.16-.454-.59-.617-1.089-.726h0a6.671,6.671,0,0,0-.58-1.191.231.231,0,0,0-.365-.121c-.249.154-.106.253.04.344a.518.518,0,0,1,.2.563,1.34,1.34,0,0,0,.053.629.485.485,0,0,1,.281.234c.3.77.6,1.5.962,2.264.135.29.44.5.423.853a.7.7,0,0,0,.455.733,10.25,10.25,0,0,0,.589,1.676.35.35,0,0,0,.512.243l.528,1a3.121,3.121,0,0,1-.157-.27.337.337,0,0,0-.39-.257,4.606,4.606,0,0,0,.576,1.479c-.771-.027-1.157-2.375-1.908-1.851l.974,1.129c-.221,1.178-1.182-.316-2.005-.984-.234,1.545,1.927,2.619,3.235,4.311.141-.2.547-.2.933-.217a.3.3,0,0,0,.389.147c.111-.039.105-.122.077-.21.361-.094.529-.345.027-1.136.528-.438,1.526.325,2.012.984-.405-.091-.454,1.543-1.2,1.607a2.5,2.5,0,0,1-.417-.74c-.037-.087-.091-.188-.227-.131a.226.226,0,0,0-.117.276,1.033,1.033,0,0,0,.14.36c-.038-.028-.067-.031-.107-.064.045.027.067.043.108.067.087.156.19.3.287.46.016.025.035.049.05.075-.3-.09-.566-.108-.743.079l1.636,2.191a3.414,3.414,0,0,1-.163-.9,1.385,1.385,0,0,1,.035.135c.376-.007.494-.158.447-.365.1.1.191.206.328.338-.082.012-.067.111-.017.243-.018.01-.037,0-.054.022-.093.1-.015.2.013.292.263.246.434.579.687.865a6.992,6.992,0,0,1,.433.888l-.451.555a4.843,4.843,0,0,1-.96-1.34c-.855.572-1.919-2.5-2.648-1.864l1.279,1.168c.04,1.262-1.31-.3-2.329-.983.106,1.65,2.636,2.735,4.377,4.484.224-.5,2.1.066,1.585-.959.053-.025.11-.046.164-.068a2.544,2.544,0,0,0,.175.191c.225.009.433.071.5.288a1.918,1.918,0,0,0,.734.9c-.083.5-.254.954-.848.77,1.189.628.349.561,2.033,1.823-.081.018-.059.106.018.235-1.613.557-2.879,1.327-3.372,2.416.183,1.1-2.448-.7-1.416.927l2.086.569c-.607.176-.4,1.512-.623,2.058,1.289-.253-.223-3.263,2.306-2.69.821-.113,1.8,1.286,2.234,2.064-1.062-1.633.771-.747,1.562-.489.43,1.239,1.8,2.482,1.646,3.451.3-.068.988.514,1.32,1.063l-.222.334c1.158.785-.061-.634.451-.671.757.65,1.248,2.451,2.38,3.637a11.982,11.982,0,0,0-3.482-2.356c1.547,2.756-1.7,1.1-2.825,1.326,1.933,1.482,3.049,1.621,4.8,2.606,1.073,2.409-2.032,2.033-2.527,1.66a36.624,36.624,0,0,0,5.358,2.5c-2.121-.032-2.249.547-4.075.39.627,1.989,1.592,1.427,2.552,1.6-.431-.255-1.019-.741-.943-1.105,1.355,1.651,2.651-.422,4.059-.409.652,1.608,2.507,3.968,1.48,4.91l.935-1.168c1.485,1.03.168,1.273.054,1.856,1.117-.306,1.457-2.043,3.851-.2-1.839,1.553,1.783,2.086.361,3.753,1.109.887,2.33.365,3.237,1.6.423,2.133-3.438.791-3.854-.125-1.508-1.414.816-.6.212-1.165l-1.811-.883c.488,1.147,1.7,3.1.9,3.7,1.74,1.04-.525-1.952,1.421-.864l.617,1.367c1.935,1.081.7-1.656,2.939.1-2.036-.469,2.249,2.141,1.171,3.3,1.279-1.526,3.925,3.285,5.335,2.346l-.856-1.376-.276.948c-1.259-1.047-2.568-1.568-3.616-3,1.422.317.676-1.66,2.2-1.129,2.839,1.011-.072,1.4.235,1.663l2.343.692-.656-1.74a30.784,30.784,0,0,1,5.178,4.216c2.078,3.363-.984.624.357,3.262,1.138.406,1.2-.192,2.376,1.018-.354-1.061-1.353-.836-1.78-1.312.123-1.58,2.578,1.45,3.139.344l0,0c.247.827-.135,1.167-.839,1.256,2.423,1.376,4.351,3.276,4.322,5.247l1.782-.552c.819.827,1.047,1.2.971,1.35-.185-.183-.322-.369-.284-.517a1.278,1.278,0,0,0,.044.6c-.808-.022-3.166-1.151-1.441,1.064,1.215,1.176,2.539,2.135,3.451,2.037l-1.111-.923a4.853,4.853,0,0,0,.935-.13c.305.688.188,1.37,1.027,1.852l-.19-.44c.648.378,1.318.715,1.989,1.046.406.591-.639.8.748,1.562.283.053-.554-.617-.618-1.021l.624.243c-.414-.594-.9-.812-1.167-1.377.833.147.766.27,1.386.241l.821,1.446-.764-.264c.193.4.327.74.479,1.071a6.448,6.448,0,0,1-1.206.508,8.476,8.476,0,0,0,2.538,1.313c.057.055.105.105.165.162a1.5,1.5,0,0,1-1.287.476c-1.252-2.916-1.642.8-1.614-1.306l-.427-.383a2.145,2.145,0,0,0-.261.154c.723.943.448,1.4-.026,1.653l1.208-.012-.135,1.729c.693.748,1.862.029,1.854,1.1.537,1.9-2.556.519-.241,2.827a.473.473,0,0,1,.088.29,3.927,3.927,0,0,1,1.106,1.214.274.274,0,0,0,.066-.079l.9.645c-.307-.3-.159-.281-.1-.406.536.464.613.6.569.993,1.451.172,1.794,1.3,2.9,2.182.411.424.172.927-.361.748.183-.373-.438-.678-.948-.882.159,1.23,2.634,2.193,3.19,2.635.022-.394.441.033.463-.359,1.619.773.337.945,1.722,1.569l1.1.2c.17,1.36,1.983,1.37,2.737,2.831.6.013.613-1.163,1.924.031.1.529-1.076-.276-.741.382.788.674,3.1,1.615,2.615,2.141a2.4,2.4,0,0,1,1.285-.681l1.088,1.139.639-.158c.039-.52-2.27-.7-1.134-1.392l.712.493c.546-.3-1.017-1.754-1.823-2.7-.212.143-.62-.1-.951-.36,3.321.475.223-2.055,3.18-2.143l-1.622-1.558c.5-1.638,3.351,1.55,4,1.484.967,1.059-1.794-.511-1.157,1.182,1.565,1.354,2.894.863,3.753,2.062a8.673,8.673,0,0,1-2.336.649c4.182,2.286-.775,1.11,2.178,3.516,1.125.348.834-.906,2.427.184-.522-1.638-.241-1.943-2.875-3.4,1.619-1.137,3.319,2.262,5.631,2.185-1.463-.874-.342-.565-2.07-1.136.341-1.494-.151-2,1.823-2.56-1.853-.483-3.223.6-5.462-1.128-.019-.672.492-.741,1.167-.68l.374.251a.433.433,0,0,0-.042-.215c1.027.129,2.277.373,2.715-.63,1.562-.281,4.166,1.924,5.292,3.241a21.4,21.4,0,0,1,3.232.282,9.425,9.425,0,0,0,2.867,1.279,3.032,3.032,0,0,1-.11.362.552.552,0,0,0,.173-.34,11.67,11.67,0,0,1,3.026,1.262c-.032.132-.055.247-.095.4.214.663.338.325.458-.146.95-.469,1.424.057,2.755.217a3.163,3.163,0,0,1,.031.711.726.726,0,0,0,.076-.7c.082.008.155.02.243.025l.745.609.853-.24-.676-.08c.5-.258-.415-.419-.819-.767.284-.438.121-1.147.217-1.618l.184.025c.057.337.675-.082.641,1.26.013-.866.192-1.056.4-1.113a19.878,19.878,0,0,1,3.775.843c.223.641,1.761,1.008,2.37,1.337,0,.114,0,.226-.006.338l.067-.3c.235.143.266.281-.078.434,0-.044.008-.086.011-.132l-.031.141a3.08,3.08,0,0,1-.442.147,1.2,1.2,0,0,1,.428-.082l-.1.446.055.162c.023-.165.049-.376.071-.611.1-.008.212-.018.337-.025l.086.557c.209.178.268-1.153.426-.268.37,1.268-.326,2.069.44,2.535.819.375.616-2.069,1.166-1.781-.084-.442-.213-.384-.382-.437a2.58,2.58,0,0,0-.015-.85c.2-.106.278-.261.1-.5a.411.411,0,0,1-.136.052,1.028,1.028,0,0,1,.093-.441c.25,1.327.8,1.2,1.22,1.113-.057.739.271,1.425.169,1.86a1.437,1.437,0,0,0,.43-1.063c-.937-.9.736-1.218-.032-2.475h.005c.4,0,.644.447.88.939-.3.111-.419.291-.114.643a3.3,3.3,0,0,1,.34-.2,3.36,3.36,0,0,0,.265.463c.011.41-.7.923-.051,1.424a3.237,3.237,0,0,0,.053-2.044,6.905,6.905,0,0,1,1.109-.437c-.013.138-.037.32-.1.737.927-.137.086,1.355.878,1.993.206-.249-.046-1.235.345-1.036-.347-1.211-.362-1.622-.95-1.59,0-.075.009-.105.013-.167a17.41,17.41,0,0,1,2.951-.534,15.28,15.28,0,0,1,5.052,0c1.338.159,1.573,1.551,2.149,1.665l2.265-.335a9.672,9.672,0,0,0,.864,1.47,3.746,3.746,0,0,0,2.557-.761c3.094.431,1.685,1.8.2,2.951l-1.783-.214c-1.2.788-3.072.68-1.894,1.835.888-.222.809-.746,1.1-1.068.365.211.731.406,1.1.593.987-.693,3.792-1.4,3.346-2.34a9.159,9.159,0,0,0,3.243-.335,7.392,7.392,0,0,1,3.071-.373c-1.362-.322.13-1.085-.39-1.751l-2.189.224c.494-.191,1.043-.446,1.611-.705l0,.031,1.053-.172a1.544,1.544,0,0,1-.7-.016,8.027,8.027,0,0,1,3.707-.986h0c-.882.221-.706.413-.629.609a2.019,2.019,0,0,1,.617-.319c-.008.426.111.644.9.919-.8-.268.333-.957.76-1.511.054-.023.111-.044.165-.068l-.343.485c.724-.315,1.273-.651,1.277-.133.126-.636,1.228-.79,1.26-1.177a16.065,16.065,0,0,1-2.276.769c.175-.306.055-.553-.884-.629a6.178,6.178,0,0,1-2.807,1.225c-1.047-1.087.743-1.754,1.569-2.773,1.178-.7,3.5-1.883,4.993-3,1.118-.1,1.9,1.218,3.375-.386-2.623-.25,1.435-2.858,1.49-4.385,1.176-.144,1.75-1.034,2.449-1.58a.84.84,0,0,1,.406.536c-.214.167-.437.337-.663.519a3.875,3.875,0,0,0-1.57,1.74c.085.34.311.714.432,1.135-.066.016-.13.037-.2.054l-.11.131c.106-.038.21-.08.317-.116.177.685.054,1.49-1.405,2.47,3.256-.966,1.534-1.594,2.8-2.6l-.994.617c.146-.245.021-.427-.1-.593.18-.064.362-.12.535-.2-.181.063-.373.107-.562.157-.147-.205-.252-.389.237-.633a12.646,12.646,0,0,1,4.806-1.038c.028,0,.055,0,.086,0,.756-.02,1.541-.018,2.571-.128-.446-.17-.392-.605-.172-1.024.245.227.6.308,1.5-.256.2.074.392-.112.618-.385.4.553.058,1.72,1.387,1.967.408-1.251,2.034-2.006,1.211-2.269.859-.606.581.025,1.329-.162a3.918,3.918,0,0,1,1.819-2.712c.088.417.233,1.086-1.032,1.676,1.458-.574,2.6.237,2.424,1.326-.785.366-1.6.683-2.39,1.022-.428,1.189,1.228-.157,2.1-.323-.269.244-.477.4-.568.351l.158.413a3.883,3.883,0,0,0-1.464.855.875.875,0,0,0,.558.015l-1.088,1,.737-.307.4-.706a2.425,2.425,0,0,0,.857-.489c.574.038-.432,1.09.951.52l-.077-.109,2.4-1.455a1.721,1.721,0,0,1,.141-.833c-.788.227-2.056,1.634-3.183,1.922l.268-.5c.558-.552,1.1-1.2,1.554-1.6,1.781-1.1,1.655.183,1.945.61a2.443,2.443,0,0,0,.411-1.019,23.236,23.236,0,0,1,3.017-1.938C1642.431,2260.038,1642.6,2259.288,1641.728,2259.966Zm11.728-19.959c-.338.148-.936,1.043-1.195.661.42-.233.837-.5,1.178-.683C1653.444,2240,1653.453,2239.991,1653.456,2240.008Zm-197.735-94.466a.2.2,0,0,0,.133-.109A.2.2,0,0,1,1455.721,2145.542Zm3.68,30.625a.519.519,0,0,0-.249-.2A.516.516,0,0,1,1459.4,2176.167Zm1.115-24.407.1-.032.009-.068-.008.069Zm-9.578-17.116-.038.009h0Zm2.387-11.318a4.457,4.457,0,0,1-.459.007,4.348,4.348,0,0,0,.46-.007,2.007,2.007,0,0,1,.355-.139A2.01,2.01,0,0,0,1453.323,2123.326Zm120.531-128.713,0,.339h0Zm-.054-.854h0l.636.065Zm-.872,1.649c.9-.014,1.821-.04,2.738,0-.917-.042-1.836-.016-2.738,0l-.751-.27Zm74.516,76.683h0l-.41.155.094.355h0l-.094-.355ZM1658.349,2097c-.089.5-.179,1.011-.265,1.5.086-.484.176-.995.265-1.5Zm.28,1.308a8.2,8.2,0,0,0-.541.729h0A8.2,8.2,0,0,1,1658.629,2098.306Zm9.941,23.321-.37.235-.221.756.221-.756Zm2.035,17.488a.836.836,0,0,1-.02-.086c-.042-.624-.081-.825.218-.953a1.9,1.9,0,0,1,.123.906Zm.124,4.3c-.035,0-.076,0-.114,0a2.041,2.041,0,0,1-.194-.427l-.13.023c.024.133.052.266.075.4h0c-.024-.133-.051-.266-.075-.4l.13-.023.184-.636c.043-.017.1-.046.146-.07Zm5.938,7c.033.339.065.705.094,1.04a4.455,4.455,0,0,1-.275-.664C1676.476,2150.541,1676.568,2150.438,1676.666,2150.419Zm-1.232,57.63c.173-.2.359-.536.561-.817C1675.829,2207.674,1675.646,2208.031,1675.434,2208.049Zm-203.151-24.3a1.1,1.1,0,0,1-.683.191h0a1.1,1.1,0,0,0,.683-.191c.033.042.065.085.1.128h0C1472.347,2183.83,1472.316,2183.787,1472.282,2183.745Zm-16.816-59.951a.322.322,0,0,1,.214.06h0A.322.322,0,0,0,1455.466,2123.794Zm-3.845-12.125c-.037-.09-.083-.177-.123-.266.04.089.086.176.123.266Zm-3.315-11.912a1.881,1.881,0,0,0,.073-.241,1.988,1.988,0,0,1-.073.241Zm20.133-54.172c.748-1.312,1.344-.88,1.784-1.421.162,0,.274-.15.467,0-.036.285-.3.181-.424.289-.075.063-.255.038-.214.2.176.679-.237.8-.575,1.01v0c-.033.015-.064.034-.1.05,0-.11,0-.234-.008-.336C1469.04,2046.224,1468.78,2046.1,1468.438,2045.585Zm4.708-2.652a1,1,0,0,1,.222-.085c-1.006,1.6-1.972,3.233-2.877,4.915a1.688,1.688,0,0,0-.829.434c-.088.107-.215.223-.368.071s-.022-.276.045-.365a2.531,2.531,0,0,0,.322-1.044l-.208.046h0l.208-.046c.255-.078-.075-.547.2-.586.536-.068.767-.576,1.181-.816a.26.26,0,0,0,.1-.307h0a.362.362,0,0,1,.449.016c.106.064.192.078.2-.077.015-.218-.283-.78.3-.406.074.045.114-.172.05-.3-.124-.255-.028-.331.114-.4a.467.467,0,0,0,.277-.33A1.077,1.077,0,0,1,1473.147,2042.933ZM1592,1997.23l.019.4c-.114.044-.231.1-.346.158.115-.058.232-.114.346-.158Zm17.726,12.556.138.079-.138-.079Zm22.618,34.3h0l.029.123Zm19.126,35.9h0l-.673-.234Zm9.364,26.918-.1.025c.039.294.067.59.1.885-.035-.294-.063-.59-.1-.885Zm6.993,16.235h0l-.281-.06a1.38,1.38,0,0,1,.1-.727,1.38,1.38,0,0,0-.1.727Zm1.8,19.406.251.916h0l-.251-.916.209-.41h0ZM1504.633,2215.4c.205.063.424.145.645.228.248.267.5.523.749.788-.03.056-.067.11-.1.165C1505.493,2216.192,1505.064,2215.8,1504.633,2215.4Zm-29.994-19.156a1.843,1.843,0,0,0-.3-.685l.075-.06c.165.138.35.279.535.425.064.083.131.163.191.247C1474.97,2196.2,1474.806,2196.222,1474.639,2196.248Zm-3.182-13.766-.267-.078.267.078a7.036,7.036,0,0,1,.451.608A7.036,7.036,0,0,0,1471.458,2182.482Zm-16.314-63.974a.367.367,0,0,0,.418-.021l.025.057-.025-.057A.367.367,0,0,1,1455.144,2118.508Zm-5.264-24.7c0,.285.017.571.014.855a4.519,4.519,0,0,1,.608,1.356,4.524,4.524,0,0,0-.608-1.357C1449.9,2094.376,1449.88,2094.09,1449.88,2093.805Zm162.9-78.272-.294.415a.556.556,0,0,0-.065-.081.556.556,0,0,1,.065.081Zm-112.807,194.89a.557.557,0,0,0-.1-.2c-.042-.051-.076-.082-.115-.128-.058-.247.2-.331.393-.119-.484-.821-.685-.71-.849-.34-.448-.363-.674-.231-.862.043q-2.791-2.617-5.505-5.2a.665.665,0,0,0-.065-.212c.016.074.036.131.053.2-.158-.149-.311-.3-.467-.446l-.059-.1a.392.392,0,0,1,.03.076l-.364-.348c.212-.1.514-.151.326-.807-.345-.159.077.705-.38.5-.569-1.2.53-1.1.809-1.508-.9-.278-.849-1.859-1.29-1.926a.772.772,0,0,0,.212-.811q4.474,6.216,9.3,11.806A3.353,3.353,0,0,1,1499.973,2210.423Zm-24.172-22.537c-.4-1.053-1.237-2.633-1.812-4.184.446.585,1.056,1.034,1.534,1.576l-.051-.368-.049-.163.015-.021h0l-.015.021.049.163.051.368a3,3,0,0,0,1.119,1.14.455.455,0,0,1,.224.253c.071.238.275.281.524.278l.021-.029h0l-.021.029c.189.189.522.252.535.585a2.531,2.531,0,0,0,1.1,1.032c.276.166.588.283.852.471a7.88,7.88,0,0,0,2.288,1.095h0c.029.408-.2.6-.6.948-.573.494-.99.266-1.466.39a.772.772,0,0,1-.2.008l.014-.5.569.437c.18-.448-.6-1-.72-1.338a.273.273,0,0,1-.1.222l-.364-.884c.246.68-.265,1.234-.636.208.317-.1.541.155.3-.526-.2-.024-.336.333-.473.407l.182.26a.682.682,0,0,1-.052.222c-.241-.188-.486-.367-.739-.537-.007-.307-.416-.779-.355-1.128a1.438,1.438,0,0,1-.1.82A11.642,11.642,0,0,1,1475.8,2187.886Zm-.75-.965a1.752,1.752,0,0,0,.245.053.583.583,0,0,0-.161.188c-.056-.069-.113-.125-.169-.2Zm-18.018-56.443a.187.187,0,0,1,.022-.135.187.187,0,0,0-.022.135Zm-1.327-8.533,0,0h0Zm206.534-11.586,0,.031,0-.031ZM1490.8,2201.168c-.1.552-.473.38-.5.788l-.576-.55c.094-.3.13-.685.382-.569-.767-1.14-.455-.069-.487.468l-.45-.431a1.8,1.8,0,0,0-.81-1.265l.352-.918-.414.207-.651-1.266c-.077.372.512.925.084.991l-.413-1.014a1.051,1.051,0,0,1-.018.4c.1.184.2.369.319.558.023.284-.2.173-.315.122a3.106,3.106,0,0,1,.5.88l-1.454-1.392.234.038a.487.487,0,0,0-.6-.391l-.932-.893c.087.036.172.085.261.115a3.32,3.32,0,0,0,1.551.167l.043-.008.1.212a.975.975,0,0,0-.047-.222c.195-.035.389-.067.578-.088.034.016.066,0,.1,0a1.214,1.214,0,0,1,.392.008l.357-.145c.073-.056.185-.107.209-.169.045-.115-.055-.145-.132-.117a2.653,2.653,0,0,1-1.317.058,1.478,1.478,0,0,0-.368-.344.517.517,0,0,1,.018-.05.671.671,0,0,0,.415-.145.9.9,0,0,1,.154,0c.02.034.043.069.058.1l.134-.184a.355.355,0,0,1-.051.03.367.367,0,0,0,.081-.119,1.085,1.085,0,0,1,.416-.52c.4.563.771,1.066,1.115,1.576a2.856,2.856,0,0,0-.228-1.546,2.654,2.654,0,0,0,.42.055q.931,1.358,1.878,2.688c-.958-.353-.76-1.133-2.041-1.153A10.975,10.975,0,0,1,1490.8,2201.168ZM1458.21,2130a.561.561,0,0,0-.008-.194h0A.561.561,0,0,1,1458.21,2130Zm-8.793-40.448c-.068.011-.137.025-.206.037.068-.011.137-.027.206-.037l.1.012Zm19.03-39.765a1.331,1.331,0,0,0-.282.339l0,.019h0l0-.019A1.331,1.331,0,0,1,1468.447,2049.792Zm3.478,125.116c.064,0,.117.018.131.08C1472.041,2174.927,1471.988,2174.911,1471.924,2174.908Zm-.263.227c-.023-.087-.007-.172.14-.221h0C1471.654,2174.964,1471.638,2175.048,1471.661,2175.135Zm181.872-80.162-.251.277c-.012.209-.026.426-.037.628l.037-.628Zm-.76,2.757c.024-.058.044-.121.071-.178.2-.151.4-.3.6-.447-.2.15-.4.3-.6.448C1652.817,2097.609,1652.8,2097.672,1652.773,2097.73Zm10.506,51.578h0a.921.921,0,0,1,.1.031A.921.921,0,0,0,1663.279,2149.308Zm-14.191-52.406Zm14.955,55.74h0a.333.333,0,0,1-.173-.184A.338.338,0,0,0,1664.043,2152.642Zm-15-55.853Zm-183.6-38.11.066.058h0l-.066-.058c.026-.152-.013-.344.01-.5C1465.438,2058.335,1465.477,2058.527,1465.451,2058.679Zm16.564,125.788a.336.336,0,0,0,.3.1l.066.146-.066-.146A.336.336,0,0,1,1482.014,2184.467Zm182.991-53.944a1.03,1.03,0,0,1-.251.031,1.03,1.03,0,0,0,.251-.031l.027.109Zm-178.947,62.353a.781.781,0,0,0,.487.222h0A.781.781,0,0,1,1486.058,2192.876Zm171.319-69.533a3.055,3.055,0,0,0,.375-.55c-.1.173-.192.357-.29.55A.7.7,0,0,0,1657.377,2123.343Zm-4.252-24.084a1.216,1.216,0,0,0-.1.252,1.216,1.216,0,0,1,.1-.252l.434-.017ZM1468.2,2051l-.119.136-.253.144.253-.144.119-.136a4.139,4.139,0,0,1-.086-.441A4.139,4.139,0,0,0,1468.2,2051Zm-17.458,37.164a.37.37,0,0,1,.293-.2c.008-.049.026-.1.038-.151-.012.049-.03.1-.038.151A.37.37,0,0,0,1450.74,2088.168Zm35.9,108.522h-.009c-.11,0-.251.019-.2-.165.015-.051.047-.062.073-.087C1486.557,2196.523,1486.6,2196.607,1486.644,2196.689Zm170.664-73.329a1.151,1.151,0,0,0-.112.06,1.458,1.458,0,0,0-.167.008l-.009-.029a1.294,1.294,0,0,1,.215-.023,6.2,6.2,0,0,1,.018-.658A1.608,1.608,0,0,0,1657.308,2123.361Zm5.031-12.654h0l.517.158Zm0,0-.119.262-.5.144.5-.144.119-.262Zm-71.932-106.647a1.941,1.941,0,0,1-.25.307,1.941,1.941,0,0,0,.25-.307Zm-134.716,130.973a1.094,1.094,0,0,1,.227-.053,1.094,1.094,0,0,0-.227.053Zm27.108,55.279,1.022.8-1.022-.8a1.026,1.026,0,0,0-.345-.4A1.026,1.026,0,0,1,1482.8,2190.312Zm-3.912,5.3c-.119-.084-.219-.149-.317-.215a3.755,3.755,0,0,0-.274-.317l.265.312a4.973,4.973,0,0,0-.514-.3c.006-.136.053-.2.249-.008l-.368-.433c.19.073.385.158.579.251A1.148,1.148,0,0,1,1478.888,2195.614Zm190.191-58.332-.106-.623.106.623Zm-6.8-26.574h0a.767.767,0,0,1,.25-.155A.767.767,0,0,0,1662.275,2110.708Zm.514-.192c.015,0,.033-.005.048,0C1662.821,2110.51,1662.8,2110.518,1662.789,2110.516Zm-6.672,2.042-.719.081h0Zm-46.227-99.219c-.111.007-.222,0-.332.007.11,0,.221,0,.332-.007a2.243,2.243,0,0,1,.2.274A2.243,2.243,0,0,0,1609.89,2013.339Zm-2.341-.872.847-.3h0l-.847.3Zm-138.516,36.869.124.4-.124-.4Zm-20.642,40.94,0-.007h0Zm.869,1.573a3.148,3.148,0,0,1-.4-.018A3.148,3.148,0,0,0,1449.259,2091.849Zm1.036-.139a.714.714,0,0,1,.126-.29,3.137,3.137,0,0,1,.028-.884,3.1,3.1,0,0,0-.027.883A.712.712,0,0,0,1450.3,2091.71Zm.349,7.335a.726.726,0,0,1-.2.217.277.277,0,0,0-.009.2.277.277,0,0,1,.009-.2A.726.726,0,0,0,1450.644,2099.046Zm6.445,30.483c0,.057-.027.118-.03.175,0-.056.026-.117.03-.175l-.254-.145Zm213.077,14.822h0l-.058-.162h0Zm-.981-6.751.343-.17h0l-.343.17Zm-1.618-11.264,0-.006h0Zm-3.557-10.552h0l0,0Zm-2.525-6.178-.062.39h0l0,.036,0-.036.062-.389Zm-28.594-62.417h0l-.051-.09a1.786,1.786,0,0,1-.574.112,1.786,1.786,0,0,0,.574-.112Zm-23.575-34.091-.268-.057c-.194.21-.334.248-.452.207.118.041.258,0,.452-.207Zm-1.143-2.147c.014-.025.027-.056.04-.085-.013.03-.026.06-.04.085Zm-14.232-8.226a2.228,2.228,0,0,1,.016.554,2.184,2.184,0,0,0-.017-.554l.266-1.251Zm-.742-2.549c-.116-.1-.23-.2-.347-.3.117.1.231.2.347.3Zm-143.373,85.277-.07.378h0l.07-.378h0Zm-.79,2.12.043-.244a2.168,2.168,0,0,1-.043-.655,2.2,2.2,0,0,0,.043.655l-.043.244a1.583,1.583,0,0,0-.358.873c-.041.313-.034.64-.066.954a1.582,1.582,0,0,0-.177.414,1.582,1.582,0,0,1,.177-.414c.032-.314.025-.64.066-.954A1.583,1.583,0,0,1,1449.037,2087.574Zm-.4,4.751.126.024-.126-.024Zm1.245,2.454a1.231,1.231,0,0,1,.034.473,1.234,1.234,0,0,0-.033-.472l-.114-.008a.889.889,0,0,1-.043.283.889.889,0,0,0,.043-.283Zm-.348,1.458,0,.363a2.187,2.187,0,0,1,.106.464,2.187,2.187,0,0,0-.106-.464Zm2.639,9.024a2.124,2.124,0,0,1,.032.377,1.526,1.526,0,0,1-.434.068,1.564,1.564,0,0,0,.434-.068A2.124,2.124,0,0,0,1452.169,2105.261Zm.15.356h0a4.99,4.99,0,0,0-.437.268A4.99,4.99,0,0,1,1452.319,2105.617Zm.836,6.014Zm1.544,6.766h0a.519.519,0,0,0-.25.116A.519.519,0,0,1,1454.7,2118.4Zm-1.6,19.6c-.1.045-.166.1-.036.2h0C1452.929,2138.093,1452.994,2138.04,1453.1,2137.995Zm4.457-1.261a1.469,1.469,0,0,1,.371-.556,1.469,1.469,0,0,0-.371.556Zm2.365,10.653c.274.021.338.114.339.229,0-.114-.065-.208-.339-.229a.525.525,0,0,1-.139-.226A.525.525,0,0,0,1459.918,2147.386Zm1.974,8.9-.092.1.092-.1Zm-.12,3.436c.029-.077.057-.154.078-.229-.021.075-.049.151-.078.229Zm4.99,14.394h0l-.038.027h0Zm1.051.33a.3.3,0,0,0,0,.2.3.3,0,0,1-.005-.2Zm-.338.479a.656.656,0,0,1,.045.4h0a.656.656,0,0,0-.045-.4Zm2.618,2.385h0c-.126-.072-.239-.142-.256-.227C1469.854,2177.17,1469.967,2177.24,1470.093,2177.312Zm1.83,4.4h0l-1.3-1.268Zm-1.264-.419a.536.536,0,0,0-.037-.132.536.536,0,0,1,.037.132Zm1.322,1.428c-.036-.013-.047-.115-.019-.162a.167.167,0,0,1,.109-.076c.027.119.051.233.08.355A.49.49,0,0,0,1471.982,2182.721Zm1.6,2.547c0-.041,0-.08-.008-.121.354-.1.522.46.589.932-.149-.181-.295-.366-.431-.559A1.515,1.515,0,0,0,1473.582,2185.268Zm.651.9.049-.579c.423.234.506.453.5.648-.084.037-.084.264-.107.482-.059-.075-.122-.143-.18-.218C1474.413,2186.385,1474.323,2186.275,1474.233,2186.165Zm4.283,7.057c.019.042.054.083.09.086a.711.711,0,0,1,.367.141c0,.122-.039.213-.163.2a2.294,2.294,0,0,1-.467-.342Zm195.5,1.782c0-.03,0-.06.006-.09l.057.044C1674.059,2194.975,1674.038,2194.989,1674.018,2195Zm-3.375-50.138h0c-.019-.092-.035-.186-.053-.279h0C1670.608,2144.68,1670.623,2144.774,1670.642,2144.866Zm-1.2-5.637c-.012-.125-.025-.252-.039-.374-.031-.239-.066-.482-.111-.731l.513.917h0l.011.056.006.058C1669.713,2139.169,1669.576,2139.2,1669.447,2139.229Zm.151-1.461a.607.607,0,0,1-.028-.113.607.607,0,0,0,.028.113Zm-1.567-10.519-.032-.175h0l.033.176Zm-4.886-17.483c.013.045.032.109.048.162-.016-.053-.036-.117-.048-.162.038-.229.12-.475.173-.709C1663.266,2109.291,1663.183,2109.537,1663.146,2109.766Zm-6.768-14.188c.028-.1.076-.214.112-.321-.036.107-.084.217-.112.321l.195.907Zm-19.347-42.185-.147,0a5.7,5.7,0,0,1,.135-.695,5.7,5.7,0,0,0-.135.695Zm-3.342-5.337h0l-.651-.952c-.005-.035-.005-.075-.009-.112,0,.037,0,.077.009.112Zm-3.446-6.172-.5,1.314.5-1.314Zm-12.565-18.446a.709.709,0,0,1,.069.024c0,.028,0,.061,0,.09A.2.2,0,0,0,1617.678,2023.438Zm-.2-1.3c-.019-.041-.028-.088-.048-.128.023.044.038.094.059.139Zm-5.269-6.738h0a1.607,1.607,0,0,1,.851-.109A1.607,1.607,0,0,0,1612.209,2015.4Zm-.7-1.851h0l.539.55Zm-9.214-7.582-.644.005.645-.006Zm-7.937-5.847a1.131,1.131,0,0,1-.318.257,1.131,1.131,0,0,0,.318-.257c-.264-.439-.517-.893-.8-1.317C1593.845,1999.224,1594.1,1999.677,1594.362,2000.116Zm-1.08-.017h0l.417-.794Zm-1.44-1.811a2.236,2.236,0,0,0,.009.433.327.327,0,0,0,.105.218.327.327,0,0,1-.105-.218,2.277,2.277,0,0,1-.009-.434,1.923,1.923,0,0,1,.2-.293A1.85,1.85,0,0,0,1591.842,1998.289Zm-8.605-2.056.345-.121h0l-.345.121-.087-.048Zm-136.489,92.6c.036.024.075.048.113.074-.037-.026-.077-.049-.113-.074Zm.365.728-.337.882.047.39-.047-.391Zm1.741,7.405c.1.125.183.257.288.371-.1-.114-.192-.246-.288-.371Zm1.4,6.075a.566.566,0,0,0-.191.415.566.566,0,0,1,.191-.415.828.828,0,0,1-.021-.181A.828.828,0,0,0,1450.255,2103.046Zm2.331,11.419h0a1.85,1.85,0,0,0-.074.367A1.85,1.85,0,0,1,1452.587,2114.465Zm1.093,1.926a.653.653,0,0,1,.238.006.653.653,0,0,0-.238-.006,1.979,1.979,0,0,1-.349-.41A1.979,1.979,0,0,0,1453.68,2116.391Zm.412,1.642c-.01.042.021.058.07.063-.049-.005-.081-.021-.07-.063a1.549,1.549,0,0,1,.022-.355A1.549,1.549,0,0,0,1454.091,2118.034Zm.762,5.761c-.164-.125-.094-.245.046-.364-.14.119-.209.24-.046.364Zm.229.929h0a.615.615,0,0,1,.028-.539A.615.615,0,0,0,1455.082,2124.724Zm-.2.174c-.019-.021-.009-.05.056-.095C1454.873,2124.848,1454.863,2124.877,1454.882,2124.9Zm1.043-.068a1.046,1.046,0,0,0,.391.2.311.311,0,0,1,.115.131.3.3,0,0,0-.116-.13,1.057,1.057,0,0,1-.39-.2.783.783,0,0,0-.535-.109A.783.783,0,0,1,1455.925,2124.83Zm-.535,4.815h0l-.021.014Zm-.233,7.237h0c.163-.061.349-.077.332.05C1455.506,2136.8,1455.32,2136.821,1455.157,2136.881Zm2.3,1.955a.561.561,0,0,0,.069.15.392.392,0,0,1,.143.053.259.259,0,0,1,.111.178.259.259,0,0,0-.111-.178.392.392,0,0,0-.143-.053A.561.561,0,0,1,1457.461,2138.836Zm2.16,6.583a1.792,1.792,0,0,1-.047.23l-.231.045.231-.045A1.792,1.792,0,0,0,1459.621,2145.419Zm1.361,9.459.109-.025-.11.025a.647.647,0,0,1-.437.058A.647.647,0,0,0,1460.982,2154.878Zm13.3,40.515-.013.068c-.056-.084-.112-.17-.182-.269A1.836,1.836,0,0,0,1474.281,2195.393Zm178.726,40.25v.034c-.009.006-.013.006-.022.012C1652.994,2235.672,1653,2235.659,1653.007,2235.643Zm5.23-5.162c.055.205-.03.5-.5,1.052a5.376,5.376,0,0,1-1.453,1.616c-.1-.1-.157-.283.226-.928C1657.073,2230.676,1657.644,2230.55,1658.238,2230.481Zm4.04-5.6.239.057c-.04.044-.075.094-.114.14A.835.835,0,0,0,1662.278,2224.876Zm-.031-.029a.7.7,0,0,0-.111-.107l-.665.423q.383-.422.81-.879c.285.044.546.1.8.147A1.241,1.241,0,0,1,1662.247,2224.847Zm13.44-17.967.282-.625a1.16,1.16,0,0,1,.1.114C1675.94,2206.542,1675.811,2206.709,1675.688,2206.88Zm-.012-21.435a.843.843,0,0,1-.093-.017c.021-.154.036-.31.055-.464a.551.551,0,0,1,.109.29C1675.726,2185.308,1675.7,2185.37,1675.676,2185.445Zm-2-1.213c-.233-1.264.164-1.778.487-1.275a2.9,2.9,0,0,0-.514-.831c.389.289.606,1.1.806,1.3-.039.439-.071.875-.1,1.307C1674.1,2184.794,1673.855,2184.695,1673.671,2184.232Zm.329-1.941c-.321-.96,0-1.229.412-1.43l.2.118c-.014.653-.064,1.3-.118,1.938C1674.343,2182.839,1674.043,2183.01,1674,2182.292Zm3.913-20.1-.107.662a1.246,1.246,0,0,0-.353-.394C1677.6,2162.134,1677.757,2162.133,1677.913,2162.192Zm-2.75-4.373c.066-.641.136-1.287.2-1.919,1.061-.523,1.151,1.524,1.969,2.01l.475-1.051a4.917,4.917,0,0,0,.285,1.041l-.546.263c-.014.659-.043,1.31-.063,1.964C1676.339,2160.146,1675.942,2158.7,1675.163,2157.819Zm2.1-2.03a3.569,3.569,0,0,1,.447-.789c0,.177-.008.354-.007.535A1.433,1.433,0,0,0,1677.266,2155.789Zm-7.171-17.534h0l.027.007Zm-.859-7.65q-.059-.443-.137-.882h0q.078.439.137.882Zm-.093-3.68-.032-.182.032.182.243.548Zm2.984,1.341c-.258-.454-.533-.972-.817-1.417a.478.478,0,0,0,.1-.313c-.151-.6-.373-1.184-.534-1.783-.019-.07.168-.266.282-.295.376-.1.594.005.653.366.075.461.265.9.355,1.357.078.4.087.817.126,1.227.088.379.155.764.226,1.147Zm-3.98-6.546-.141-.195.141.195Zm-.816-1.192a2.272,2.272,0,0,1,.177-.571c-.018-.056-.044-.111-.067-.164.023.053.049.108.067.165A2.231,2.231,0,0,0,1667.331,2120.527Zm-.39.3h0l.01,0Zm-2.366-8.658c.051-.2.1-.38.141-.56l-.087-.238.087.238C1664.671,2111.785,1664.626,2111.963,1664.575,2112.165Zm.032-3.668.014-.028-.014.028Zm-1.1-1.046a1.106,1.106,0,0,0-.15.275,1.106,1.106,0,0,1,.15-.275Zm-4.47-3.416h0l.089.105Zm.619-.957a.8.8,0,0,1,.034.566A.8.8,0,0,0,1659.659,2103.078Zm-.841-4.881c.075-.029.158-.053.229-.085h0C1658.975,2098.143,1658.892,2098.168,1658.817,2098.2Zm-2.9-5.389.126-.033-.126.033c-.1-.092-.254-.165-.286-.278C1655.664,2092.643,1655.82,2092.715,1655.919,2092.808Zm-4.375-12.237-.072-.564h0Zm-5.238-9.623a.836.836,0,0,1,.135-.618.84.84,0,0,0-.135.618Zm.7-.933a.784.784,0,0,0-.046.5A.784.784,0,0,1,1647.009,2070.015Zm-9.589-17.724a.937.937,0,0,0,.017.519.937.937,0,0,1-.017-.519c-.095-.286-.172-.582-.29-.857C1637.248,2051.709,1637.325,2052.005,1637.42,2052.291Zm-5.1-9.361a2.04,2.04,0,0,1-.39.128h0l-.3-.343h0l.3.344A2.04,2.04,0,0,0,1632.317,2042.93Zm-2.968-2.1-.7-.146.7.146a1.082,1.082,0,0,1,.229-.145A1.082,1.082,0,0,0,1629.349,2040.832Zm.068-3.781c-.116-.045-.234-.089-.349-.135h0C1629.183,2036.962,1629.3,2037.005,1629.417,2037.051Zm-1.308-1.048a.966.966,0,0,1,.321-.09c.014.043.017.09.027.134Zm-3.905-4.295h0a.633.633,0,0,0,.018.217A.633.633,0,0,1,1624.2,2031.708Zm0-.011v0h0Zm-.009-3.893-.168-.165-.717.514.717-.514Zm-.841-.3c-.156-.025-.369,0-.456-.085a5.7,5.7,0,0,1-.971-1.108c-.12-.205.027-.584.053-.885a3.234,3.234,0,0,1,.715.641,11.652,11.652,0,0,1,.659,1.437Zm-5.093-2.957a1.638,1.638,0,0,0,.224,0A.87.87,0,0,1,1618.26,2024.544Zm-4.633-7.325c.139.219.268.441.4.659-.133-.218-.262-.441-.4-.659l.194-.53Zm-1.408-1.847a1.436,1.436,0,0,0,.242-.851A1.436,1.436,0,0,1,1612.22,2015.371Zm-.692-2.439c-.278-.565-.591-1.113-.82-1.707a2.766,2.766,0,0,1-.006-.884,4.821,4.821,0,0,1,1.243,2.159Zm-9.228-6.97h0l-.754-.842h0Zm-4.5-4.194c-.7-.694-1.375-1.39-2.122-2.047h0C1596.429,2000.377,1597.1,2001.074,1597.8,2001.768Zm-124.7,40.689h-.052c.1-.175.2-.352.305-.53a.72.72,0,0,0-.019.188C1473.345,2042.344,1473.241,2042.454,1473.1,2042.457Zm-.462,0c-.214.021-.383.112-.372.507a.446.446,0,0,0-.083.01c.133-.362.264-.731.408-1.112C1472.937,2042.027,1472.761,2042.283,1472.64,2042.46Zm-1.664,1.079a1.658,1.658,0,0,0-.588.333,3.457,3.457,0,0,0,.254-.814A.452.452,0,0,1,1470.977,2043.539Zm-19.6,31.681a.246.246,0,0,1-.1.075l-.454.45h0l.454-.45A.259.259,0,0,0,1451.38,2075.22Zm-3.187,5.281a1.017,1.017,0,0,0,.074-.17A1.017,1.017,0,0,1,1448.193,2080.5Zm-.416,19.8a.425.425,0,0,1,.18.155.429.429,0,0,0-.18-.155l-.329.007Zm.689,2.109.222-.034c.034-.015.069-.041.1-.061-.035.02-.07.045-.1.061Zm2.151,4.691c-.075-.171-.181-.33-.27-.5.089.167.195.327.27.5.039.118.057.244.089.365C1450.673,2107.346,1450.656,2107.22,1450.617,2107.1Zm1.919,8.062a.787.787,0,0,0,.426.506l.068-.136c-.279-.132-.252-.345-.173-.566-.079.221-.105.434.173.566l-.068.136a2,2,0,0,0,.156.551,2,2,0,0,1-.156-.551A.787.787,0,0,1,1452.536,2115.163Zm1.992,4.711.107-.111-.107.111Zm-2.429,20.012a.433.433,0,0,1-.029-.179h0A.436.436,0,0,0,1452.1,2139.887Zm7.415,6.173a.4.4,0,0,1-.16-.054.4.4,0,0,0,.16.054Zm1.01,11.674-.006.009.006-.009a3.473,3.473,0,0,1,.262-.39A3.473,3.473,0,0,0,1460.525,2157.733Zm.5,1.016-.2-.369.2.369a1.668,1.668,0,0,1-.117.391h0A1.668,1.668,0,0,0,1461.025,2158.75Zm12.83,32.391a.728.728,0,0,0,.823-.067,1.621,1.621,0,0,0,.022.8Q1474.283,2191.528,1473.855,2191.14Zm85.961,81.315,0,0-.012,0Zm.092.034.012-.034c.144,0,.289.006.43,0,.005.063.011.124.017.185C1560.209,2272.59,1560.06,2272.54,1559.908,2272.489Zm.547-.033a5.631,5.631,0,0,0,1.688-.342,6.782,6.782,0,0,0-.193.737,2.885,2.885,0,0,0,.542-.772,3.29,3.29,0,0,0,.7.36,8.03,8.03,0,0,1-.2,1.051c-.818-.283-1.7-.552-2.54-.82C1560.456,2272.6,1560.455,2272.526,1560.454,2272.456Zm78.228-18.375c-.026.036-.048.062-.076.1l-.452-.613c.019-.014.039,0,.057-.022l.139-.282C1638.545,2253.4,1638.54,2253.792,1638.682,2254.082Zm14.489-18.49-.027-.061.771-.463-.656,0c.662-1.836-.959-1.984.918-4.6a.9.9,0,0,1,.342-.108c-.15.181-.3.358-.473.527a1.051,1.051,0,0,1,.983.056,3.133,3.133,0,0,1-.095.992l-.256-.01-.269.921.333-.278a6.524,6.524,0,0,1-.626,1.281c.689-.723,1.62-1.083,1.83-2.344.681-.04.34,1.053.118,1.832a9.191,9.191,0,0,0-1.126,1.133l.124-.058c.3.049-.314.675-.733,1.116C1654.082,2235.3,1653.722,2235.269,1653.171,2235.592Zm11.944-11.955c.066-.068.123-.107.191-.186l-.134.192Zm10.7-18.682a2.05,2.05,0,0,1,.487-.632A5.252,5.252,0,0,0,1675.811,2204.955Zm2.285-20.158a4.23,4.23,0,0,0-.668,1.158.458.458,0,0,0-.422.176C1677.549,2184.906,1677.961,2184,1678.1,2184.8Zm.211-11.334-.3.639c.456-.136.382.022.5-.793.639.844-.307,3.088.218,3.611-.254-.016-.555-.2-.524-1.341-.74,2.533.981,3.531-.115,6.22.252.034.557-.254.847-.049a29.382,29.382,0,0,1-2.123,3.315c.012-.441-.01-.885-.015-1.325.456-1.231,1.371-2.262,1.109-3.78l-.711.569c-.379.428-.151,3.748-1.132,4.391.134.028.742-1.178.472-.076-.242.575-.351.374-.459.226a10.387,10.387,0,0,1-.2-1.115l.029,1.05a.507.507,0,0,0-.142.217,2.743,2.743,0,0,0-.042-.954c.039-.338.092-.677.123-1.016,0-1.139-1.171-1.474-1.156-1.941.105-.247.19-.5.289-.754a.916.916,0,0,0,.336-.877c.155-.416.324-.826.477-1.246-.946.991-.585-2.027-1.413-.344a2.29,2.29,0,0,1-.66-1.491c1.379-.773,2.667-.1,3.175-1.659l-.14.894a2.645,2.645,0,0,0,1.166-1.844c-.047-.254-.109-.5-.164-.75Zm.076-6.884.181-.13-.369,1.979,1.01.3c-.2.5-.042,1.308-.791.994a4.476,4.476,0,0,1-.605,2.6l-.042-.488c-.056.232-.118.461-.175.692-.124-.479-.261-.951-.407-1.419l.042-.079a.254.254,0,0,1-.1-.086c-.058-.182-.114-.365-.174-.545-.023-.16-.043-.271-.085-.265-.168-.5-.341-1-.514-1.5a1.269,1.269,0,0,0-.3-.875c-.046-.135-.089-.27-.134-.4a2.233,2.233,0,0,1-.015-.421l.444-.184c.428-1.448-.634-1.64-.271-2.493.005.048.015.087.018.14-.008-.069,0-.1-.006-.161a1.8,1.8,0,0,1,.2-.35c-.015-.084-.029-.169-.045-.253.315-.124.978.536,1.265.45.274-.846-.653-.493-.289-1.435.2.023.373.234.536.488l-.232,1.437C1677.963,2164.377,1678.662,2165.114,1678.383,2166.579Zm.916-12.194-.159-.167.005-.033A.468.468,0,0,1,1679.3,2154.385Zm-3.933-17.9-.71-.607.735,2.184.226-.322c.376.935.69,1.877,1,2.822l-.163,1.219q.772,1.377,1.439,2.787c.241-.087.307-.867.617-.425.379,2.11-.876,2.38.236,4.356-.2.613-.276,1.883-.833,1.692-.17,1.112-.158-.477-.119-1.568.016.712-.2.6-.513.344.018-.655.045-1.312.027-1.976-.459,1.071-.166-1.752-.7.068.2-2.073-1.285-2.922-.976-4.91l-1.312-1.646c-.242-1.022-.576-2.037-.888-3.053.045-.447.09-.9.134-1.336,0-.037-.17-.067-.26-.1-.187.412-.375.824-.558,1.227-.006.014.122.086.137.075.487-.34.286.09.3.2a7.8,7.8,0,0,1,.017.832l.144-.03c.027-.263.052-.521.079-.783.458,2,.268,3.814,1.125,5.453l-.059-1.075q.681,1.925,1.211,3.871l.036-.376c.678,2.632.171,3.488.547,4.062l.242-.081a2.947,2.947,0,0,1,.092.554c-.488.1-1.356.718-1.734.023-.15-.766.3-1.062.573-.752-.666-1.135-1.418-.457-1.711-1.2l-.118.35a.293.293,0,0,0-.1-.033c-.046-.06-.094-.12-.142-.182.025-.242.049-.473.075-.728a.777.777,0,0,0-.375.341c-.241-.306-.5-.622-.757-.941l-.009-.287a1.01,1.01,0,0,0,.185-.006,1.987,1.987,0,0,1-.2-.618l0-.1c0-.019,0-.037,0-.057l.1-.146c0-.2-.009-.392-.008-.589a4.607,4.607,0,0,1,.31-.759.4.4,0,0,1-.337,0,3.7,3.7,0,0,0-.165-.517l-.026.118c-.12-.423-.07-.672.077-.816.051.254.185.555.18.677.065-1.1.851,1.059.267-.646-.073-.092-.122-.142-.175-.2.283-.118.608-.166.656-.444.221-1.6-.885-.684-1.678-.813a.8.8,0,0,0-.287-.22.953.953,0,0,1-.24-.161,1.763,1.763,0,0,1-.189-.625l-.009.471c-.088-.088-.174-.18-.267-.259l-.184-.433a.633.633,0,0,0,.406-.74c.423.254.278-1.323.766-1.744l.053-.011a1.366,1.366,0,0,0,.247-.086h.014l0,0c.063-.025.125-.043.188-.066-.1-.024-.206-.066-.307-.1a4.962,4.962,0,0,1-.907-3.365c0-1.344.119-2.856-.622-4.025a.693.693,0,0,1-.184.2c-.216-.1-.113-.349-.126-.548.568-.459.275-.97.265-1.444a16.2,16.2,0,0,0-.207-1.783,7.441,7.441,0,0,1,.928.094c.017,0,.029.021.045.027a1.284,1.284,0,0,1,.118.321l-.277.093.232.278c-.112.175-.231.389.049,1.155l-.083-.593c.761,1.511,1.491,3.035,2.124,4.591.006.076.016.149.021.225l-.294,2.083c.1-.258.063-.841.315-.58-.445.943.409.413.539,1.308a3.5,3.5,0,0,0-.182-1.184c.028-.183.062-.366.094-.549l.807.085A7.858,7.858,0,0,1,1675.366,2136.483Zm-1.862-10.8c.238.739.911,2.071.314,2.043l-1.147-2.1c.177,1.9,1.261,2.022,1.3,3.992l-.652-.479a5.321,5.321,0,0,0-.243-1.427c-.234-.624-.5-1.237-.692-1.871-.135-.439-.129-.922-.264-1.361-.126-.409-.294-.8-.451-1.2l-.036-.524C1672.262,2123.718,1672.919,2124.645,1673.5,2125.678Zm-4.488.558.021.225h0l-.021-.225-.016-1.568Zm-.547-7.253-.419.216-.08-.3Zm-2.626-2.1.266.814-.266-.814h0Zm.426-1.563c-.4-.112-.506.1-.539.3.033-.2.136-.409.539-.3Zm-.538-1.8h0l-.036-.4Zm-.247-1.146h0l-.032-.219Zm-1.578-5.765c.189.418.38.841.565,1.251-.185-.41-.376-.833-.565-1.251l-.033-.1Zm-3.564-4.456a1.112,1.112,0,0,0,.066.274l.063.818.4,1.112-.4-1.112-.063-.818a1.112,1.112,0,0,1-.066-.274.468.468,0,0,1,.21-.448A.468.468,0,0,0,1660.341,2102.15Zm-.461-.45a1.057,1.057,0,0,1-.31-.831h0A1.057,1.057,0,0,0,1659.88,2101.7Zm.1-1.676-.047-.009h0Zm-.019-.259a.989.989,0,0,0,.028-.252A.989.989,0,0,1,1659.965,2099.765Zm-1.623-3.961.378.351-.378-.351c.079-.269.259-.562.219-.8C1658.6,2095.242,1658.421,2095.535,1658.342,2095.8Zm-2.958-6.945a6.391,6.391,0,0,1,.456.914c.113,0,.229,0,.334.007-.105-.007-.221,0-.334-.006l-.1.654.4.487a2.354,2.354,0,0,0-.41.972,2.354,2.354,0,0,1,.41-.972l-.4-.487.006.439-.2.079-.4-.858a6.153,6.153,0,0,1-.346-.837c-.036-.129.052-.3.084-.455C1655.053,2088.813,1655.323,2088.772,1655.384,2088.859Zm-1.894-2.888,0,.144,0-.144Zm-2.463-7.552.074-.04h0l-.075.041-.529-.723Zm-3.044-7.029-.484-.067.484.067Zm-.94-1.486h0a1.453,1.453,0,0,0-.068-1A1.453,1.453,0,0,1,1647.043,2069.905Zm-3.812-4.606c-.084-.175-.159-.357-.25-.526l-.016-.056.016.056C1643.073,2064.942,1643.147,2065.125,1643.231,2065.3Zm-3.291-6.352.606,1.361-.06.734c.129.078.27.146.4.219-.134-.073-.275-.141-.4-.218l.061-.735-.606-1.361Zm.1-1.294a1.8,1.8,0,0,1-.092.666l-.476-.343.147-.694C1639.766,2057.4,1639.995,2057.49,1640.039,2057.652Zm-1.76-3.772.02-.533.5.29Zm-.339-2.689-.079-.509h0Zm-.34-1.729h0l.815-.253-.1.434h0l-.845.257C1637.008,2049.737,1637.358,2049.6,1637.6,2049.462Zm-2.37,1.408-.013-.006-.434-.713.433.712.014.006.4-.837Zm-1.767-9.437c.119.319.219.648.363.952-.144-.3-.244-.633-.363-.952l-.164-.043h0l-.045-.278.045.278Zm-1.914-.558.467,1.153a1.8,1.8,0,0,1,.353.26,1.759,1.759,0,0,0-.354-.259l-.466-1.154a1.291,1.291,0,0,1-.152-.514A1.294,1.294,0,0,0,1631.548,2040.875Zm-1.121.393a12.6,12.6,0,0,1-.48-1.227h0A12.63,12.63,0,0,0,1630.427,2041.268Zm.394-3.678-.616.311-.093.545c-.059.1-.14.195-.208.292.068-.1.149-.2.208-.292l.093-.545.616-.311-.035-.6Zm-7.538-13.531-.012.009h0Zm.115.973-.263.15.263-.15Zm-2.2-.6-.321.313.321-.313v-.519C1621.2,2024.162,1621.2,2024.3,1621.2,2024.433Zm-1.092.346.433.291-.433-.291-.035.054h0l-.487.216a1.294,1.294,0,0,1-.613-1,1.294,1.294,0,0,0,.613,1l.487-.216.035-.053c-.063-.026-.126-.068-.19-.1C1619.985,2024.711,1620.048,2024.753,1620.111,2024.779Zm-.479-2.451a.4.4,0,0,0-.157.147A.4.4,0,0,1,1619.632,2022.328Zm-3.073-4.118a.384.384,0,0,1-.028.132l-.473.721c-.147-.189-.3-.373-.437-.571-.039-.059-.017-.164-.024-.248l.138-.352h0l.537.076Zm-2.013-2.714-.236-.141c-.235.179-.344.18-.4.1.053.078.163.077.4-.1Zm-1.87-2.589-.613.413.613-.413.653.593Zm-1.22-4.219c.032-.035.318.076.312.122-.116.829.57,1.183.737,1.813a3.913,3.913,0,0,1,.059.779c-.6-.689-1.187-1.286-1.711-1.956-.175-.227-.139-.642-.2-.974C1610.856,2008.69,1610.907,2009.29,1611.455,2008.688Zm-4.351-2a3.463,3.463,0,0,0,.36,1.089,3.463,3.463,0,0,1-.36-1.089Zm-2.076-1.772a1.309,1.309,0,0,0-.077.276,1.309,1.309,0,0,1,.077-.276Zm-5.258-3.955h0c.047.082.089.168.135.253C1599.859,2001.126,1599.817,2001.04,1599.77,2000.958Zm-1.3-1.076c.441.354.889.708,1.3,1.076h0c-.416-.368-.864-.723-1.3-1.076-.218-.463-.439-.93-.653-1.385C1598.026,1998.951,1598.247,1999.419,1598.465,1999.881Zm-8.4-6.45c.079.059.095.218.139.333-.112,0-.24.045-.328,0s-.135-.173-.27-.365C1589.839,1993.409,1589.981,1993.371,1590.062,1993.431Zm-5.626.522c.511.076,1.27-.274,1.284.818l-.511,0-.371-.061-.462-.123h0l-.292-.2a.95.95,0,0,0-.095-.069.95.95,0,0,1,.095.069C1584.2,1994.236,1584.356,1993.94,1584.436,1993.953Zm-6.542.441.534.063-.534-.063-1.2-.37Zm-28.145.11a.674.674,0,0,0,.418.018,1.642,1.642,0,0,0,.652.49,9.179,9.179,0,0,1-1.5-.3C1549.471,1994.579,1549.625,1994.457,1549.748,1994.5Zm-3.949,1.128a.952.952,0,0,1,.152-.177c-.05.562-.607.676-1.3.62a.712.712,0,0,1,.371-.512C1545.286,1995.406,1545.492,1996.163,1545.8,1995.632Zm-68.055,39.912.584.254c-1.556,1.958-3,4.02-4.368,6.139a.888.888,0,0,1-.112-.11c-.171-.108-.3-.132-.384-.087A59.685,59.685,0,0,1,1477.744,2035.543Zm-28.316,41.362c-.11.068-.22.264-.349.125-.1-.105-.054-.281.01-.432.116-.273.5-.491.058-.832-.13-.1.083-.232.215-.254.38-.063.8-.033.845-.654.01-.122.172-.17.285-.12.146.064.1.2.052.318l-.185.458A2.366,2.366,0,0,1,1449.428,2076.905Zm1.3-1.331a.386.386,0,0,0,.1.172h0A.386.386,0,0,1,1450.731,2075.574Zm-1.273,2.772a.685.685,0,0,0-.387.4l-.4.129.4-.129A.685.685,0,0,1,1449.459,2078.346Zm-3.347,4.689c-.271-.062-.32-.3-.2-.564s.157-.623.472-.725a1.187,1.187,0,0,1,.3,1.043C1446.6,2083.157,1446.333,2083.087,1446.112,2083.035Zm.893,1.451c-.16-.11-.42-.094-.541-.245.12.151.381.135.54.244a.381.381,0,0,0,.09.192A.376.376,0,0,1,1447.005,2084.486Zm-1.431,6.471a1.187,1.187,0,0,1-.136.111,2.759,2.759,0,0,0-.017.345,2.759,2.759,0,0,1,.017-.345A1.187,1.187,0,0,0,1445.574,2090.958Zm2.049,5.537a.233.233,0,0,0,.141.146A.233.233,0,0,1,1447.623,2096.495Zm1.15,6.523h0a1.562,1.562,0,0,1-.626-.01A1.562,1.562,0,0,0,1448.773,2103.018Zm.018.121.017.122h0Zm4.51,16.593a1.964,1.964,0,0,0,.274-.009A1.964,1.964,0,0,1,1453.3,2119.732Zm.6,0-.131-.016h0l.046-.023h0l-.046.023.131.016-.145.3Zm.906,14.764a.648.648,0,0,1,.38-.265.648.648,0,0,0-.38.265.468.468,0,0,1-.168-.313A.468.468,0,0,0,1454.806,2134.5Zm-.383,9.513a.218.218,0,0,0-.04-.185,1.3,1.3,0,0,0-.2.118,1.3,1.3,0,0,1,.2-.118A.218.218,0,0,1,1454.423,2144.013Zm-.867-2.566a.527.527,0,0,0-.266.108h0A.527.527,0,0,1,1453.556,2141.447Zm3.455-2.8.01-.009-.01.009Zm1.6,6.783a1.72,1.72,0,0,1-.243-.438,2.5,2.5,0,0,1-.14-.945,2.5,2.5,0,0,0,.14.945,1.72,1.72,0,0,0,.243.438l.1.252Zm.616,3.659.343.019a.5.5,0,0,1,.147-.2.5.5,0,0,0-.147.2c-.024.036-.072.076-.1.115.029-.039.077-.079.1-.115Zm1.136,8.388a.4.4,0,0,0,.145.274h0A.4.4,0,0,1,1460.365,2157.481Zm11.863,27.8a1.783,1.783,0,0,1,.235.163.8.8,0,0,1-.217.386Zm1.661,2.929a18.76,18.76,0,0,1,1.91,1.4.342.342,0,0,0,.172.2.93.93,0,0,1,.153.1c.04.076.072.156.109.234a1.347,1.347,0,0,0-.229-.043l.448.6a2.626,2.626,0,0,1,.156.975c-1.574-1.878-2.429-1.065-3.734-3.3.813,1.39.2-1.185,1.014.389l-.472-.8a16.3,16.3,0,0,0,1.139,1.629C1474.666,2189.155,1474.179,2188.689,1473.889,2188.208Zm-9.555-8.837,0,0Zm.716,1.882a.972.972,0,0,0,.191.028.639.639,0,0,1-.264-.331.98.98,0,0,0-.017-.143c.046-.259.385-.458.435-.659.143.257.323.54.572.918a6.6,6.6,0,0,1-.874.274A.606.606,0,0,1,1465.05,2181.253Zm3.827,11.787c-.061-.053-.121-.11-.18-.164a1.694,1.694,0,0,1,.945.573.924.924,0,0,0-.09.3.988.988,0,0,0-.166-.086A2.294,2.294,0,0,0,1468.877,2193.04Zm53.487,68.534a6.387,6.387,0,0,0,1.97.176,5.593,5.593,0,0,1,.714.559l-.732.235a24.022,24.022,0,0,1,2.3,1.49,1.065,1.065,0,0,0-.116.651A35.456,35.456,0,0,1,1522.363,2261.574Zm4.255,2.458-.167-.264.346.174A.278.278,0,0,0,1526.619,2264.032Zm11.843,5.831c-.267.268-3.122-1.046-1.837.317-1.045-.423-1.67.4-1.851.151-.718-.8-2.091-1.458-2.969-2.544-.379-.155-.2.12-.4.24-.469-.292-.44-.683-.239-.8-1.214.057-1.745-.113-3.323-1.269l.871.062-.859-.67c.063.079.123.167.165.229-.339-.167-.66-.39-.992-.584a3.925,3.925,0,0,1,1.212.3l-.4-.942c-.11-.072-.191-.108-.284-.16-.643-1.293-1.969-1.818-2.988-2.434a2.726,2.726,0,0,1,1.665.756c-.009-.532-.566-.856-1.2-1.376,1.012-.084.054-1.4,1.464-1.024.032,1.59,2.318,3.086,4.071,4.232-.793.32,0,1.689-.741,1.681a3.6,3.6,0,0,0,2.556.527c-3.134-3.217,3.985,1.3,1.8-1.686C1536.944,2266.743,1536.966,2268.143,1538.461,2269.862Zm20.28,2.527c.253.026.508.052.757.065.111.164.231.4.065.508A5.068,5.068,0,0,0,1558.741,2272.39Zm4.4,1.153c.172-.313.334-.657.481-.977.064.018.125.038.192.056-.083.413-.146.771-.2,1.1C1563.458,2273.658,1563.3,2273.6,1563.143,2273.542Zm3.732,1.181a.479.479,0,0,1-.064-.084l-.276.074a.731.731,0,0,1,.148-.431Zm-.4-.511c-.409.062.074-1.057-.09-1.032l-.4.691c.107.254.269.532.392.885l-.566.153a5.86,5.86,0,0,0-1.888-1.078c.065-.3.117-.7.164-1.13.309.072.648.135,1,.2a4.6,4.6,0,0,1,0,.489l.013-.487c.079.014.146.03.225.043,0,.071,0,.14.005.2.009-.062.015-.129.023-.194.54.086,1.122.164,1.716.243C1566.883,2273.917,1566.577,2274.439,1566.476,2274.212Zm1.711-.868.048.008A.24.24,0,0,1,1568.187,2273.344Zm11.572,1.857a3.869,3.869,0,0,1,.036-.966c.125,0,.249,0,.372,0,0,.013,0,.022.009.035a.211.211,0,0,0,.3,0,2.528,2.528,0,0,1,.5.132c-.03.315-.038.47-.044.591A10.1,10.1,0,0,1,1579.759,2275.2Zm1.5-.679a.278.278,0,0,1-.146.4C1581.142,2274.681,1581.192,2274.553,1581.261,2274.522Zm39.8-12.279.179.2c-.095.082-.192.163-.3.251Zm15.1,1.146a3.046,3.046,0,0,1-.8.568l.006-.3a4.077,4.077,0,0,0,.628-.414A.265.265,0,0,1,1636.166,2263.389Z" transform="translate(-311.725 2069.6)" fill="#f6e1c7" opacity="0.45"/>
  </g>
</svg>
