<svg xmlns="http://www.w3.org/2000/svg" xmlns:xlink="http://www.w3.org/1999/xlink" width="160.5" height="61.124" viewBox="0 0 160.5 61.124">
  <defs>
    <linearGradient id="linear-gradient" x1="0.25" y1="0.15" x2="0.75" y2="0.735" gradientUnits="objectBoundingBox">
      <stop offset="0" stop-color="#ed8622"/>
      <stop offset="1" stop-color="#de3a2d"/>
    </linearGradient>
  </defs>
  <g id="Group_1117" data-name="Group 1117" transform="translate(-161.5 -9.938)">
    <g id="Group_1083" data-name="Group 1083" transform="translate(-257.481 -302.213)">
      <path id="Path_11765" data-name="Path 11765" d="M447.982,344.282l-29,21.92,29,27.636,29-27.636ZM428.954,365.25l19.088-14.593,18.968,14.765-18.968,16.327Z" transform="translate(0 -20.563)" fill="url(#linear-gradient)"/>
      <path id="Path_11766" data-name="Path 11766" d="M459.839,312.151,437.51,329.028l22.329,21.279,22.329-21.279Zm-14.65,16.144,14.7-11.237,14.6,11.37L459.886,341Z" transform="translate(-11.858)" fill="url(#linear-gradient)"/>
    </g>
    <g id="Group_1115" data-name="Group 1115" transform="translate(233.149 -6574.24)">
      <g id="Group_1103" data-name="Group 1103" transform="translate(0 6604.932)">
        <path id="Path_11777" data-name="Path 11777" d="M310.366,591.182a6.348,6.348,0,1,0-6.339,6.357,6.661,6.661,0,0,0,1.6-.2l1.418,1.616h3.089l-2.376-2.555A6.263,6.263,0,0,0,310.366,591.182Zm-6.339,4.134c-2.255,0-3.8-1.612-3.8-4.134s1.543-4.1,3.8-4.1c2.237,0,3.783,1.579,3.783,4.1S306.264,595.316,304.027,595.316Z" transform="translate(-297.67 -584.843)" fill="#191415"/>
        <path id="Path_11778" data-name="Path 11778" d="M371.41,585.658v7.669a2.514,2.514,0,1,1-5.026,0v-7.669H363.9v7.651c0,3.268,2.237,4.865,4.953,4.865s5.063-1.6,5.063-4.865v-7.651Z" transform="translate(-349.356 -585.479)" fill="#191415"/>
        <path id="Path_11779" data-name="Path 11779" d="M424.3,585.575h-2.892l-4.456,12.411h2.61l1.5-4.35h-.011l1.791-5.183,1.795,5.183h-.015l1.506,4.35h2.628Z" transform="translate(-390.765 -585.414)" fill="#191415"/>
        <path id="Path_11780" data-name="Path 11780" d="M486.439,585.575V594.1l-5.629-8.521h-2.486v12.411h2.486v-8.506l5.629,8.506h2.486V585.575Z" transform="translate(-438.658 -585.414)" fill="#191415"/>
        <path id="Path_11781" data-name="Path 11781" d="M534.779,585.658v2h3.3V598.05h2.486V587.661h3.3v-2Z" transform="translate(-482.717 -585.479)" fill="#191415"/>
        <path id="Path_11782" data-name="Path 11782" d="M591.77,585.658v7.669a2.514,2.514,0,1,1-5.026,0v-7.669h-2.486v7.651c0,3.268,2.237,4.865,4.953,4.865s5.063-1.6,5.063-4.865v-7.651Z" transform="translate(-521.332 -585.479)" fill="#191415"/>
        <path id="Path_11783" data-name="Path 11783" d="M651.5,585.658l-3.941,9.212-3.941-9.212H640.8V598.05h2.482v-8.06l3.341,8.06H648.5l3.323-8.06v8.06h2.486V585.658Z" transform="translate(-565.457 -585.479)"/>
      </g>
      <g id="Group_1104" data-name="Group 1104" transform="translate(15.911 6621.718)">
        <path id="Path_11784" data-name="Path 11784" d="M372.149,667.123c-1.14,0-2.017-.623-2.017-1.632h1a.915.915,0,0,0,1.017.845c.656,0,1.025-.352,1.025-.836,0-1.378-3.027-.484-3.027-2.583,0-1,.8-1.624,1.96-1.624a1.738,1.738,0,0,1,1.944,1.55h-1.033a.892.892,0,0,0-.96-.755c-.541-.016-.96.246-.96.8,0,1.288,3.018.484,3.018,2.567A1.771,1.771,0,0,1,372.149,667.123Z" transform="translate(-370.132 -661.292)" fill="#fd5f1b"/>
        <path id="Path_11785" data-name="Path 11785" d="M432.177,667.123a2.916,2.916,0,1,1,2.911-2.92A2.853,2.853,0,0,1,432.177,667.123Zm0-.812a2.105,2.105,0,1,0-1.952-2.108A1.931,1.931,0,0,0,432.177,666.311Z" transform="translate(-416.282 -661.292)" fill="#fd5f1b"/>
        <path id="Path_11786" data-name="Path 11786" d="M497.329,661.628h3.355v.763h-2.419v1.681h1.886v.763h-1.886v2.493h-.935Z" transform="translate(-469.4 -661.554)" fill="#fd5f1b"/>
        <path id="Path_11787" data-name="Path 11787" d="M552.578,661.628h3.978v.763h-1.517v4.937H554.1v-4.937h-1.526Z" transform="translate(-512.518 -661.554)" fill="#fd5f1b"/>
        <path id="Path_11788" data-name="Path 11788" d="M613.732,667.123c-1.14,0-2.018-.623-2.018-1.632h1a.915.915,0,0,0,1.017.845c.656,0,1.025-.352,1.025-.836,0-1.378-3.026-.484-3.026-2.583,0-1,.8-1.624,1.96-1.624a1.738,1.738,0,0,1,1.944,1.55H614.6a.891.891,0,0,0-.959-.755c-.541-.016-.96.246-.96.8,0,1.288,3.018.484,3.018,2.567A1.771,1.771,0,0,1,613.732,667.123Z" transform="translate(-558.67 -661.292)" fill="#fd5f1b"/>
      </g>
    </g>
  </g>
</svg>
