<svg xmlns="http://www.w3.org/2000/svg" width="154.456" height="32.994" viewBox="0 0 154.456 32.994">
  <g id="Group_1108" data-name="Group 1108" transform="translate(-14.639 -259.894)">
    <g id="Group_1107" data-name="Group 1107" transform="translate(57.505 265.035)">
      <path id="Path_11789" data-name="Path 11789" d="M199.375,297.7l-.921,2.609h-.077a18.49,18.49,0,0,0-.9-2.558l-4.936-12.4h-4.834v19.771h3.2v-12.2c0-.767,0-1.637-.026-2.711-.025-.537-.077-.946-.1-1.253h.077a11.975,11.975,0,0,0,.46,1.688l5.934,14.425H199.5l5.883-14.553a15.476,15.476,0,0,0,.384-1.56h.077c-.077,1.458-.128,2.762-.154,3.555v12.532h3.4V285.293h-4.655Zm12.942-6.829h3.325v14.169h-3.325ZM214,284.884a1.992,1.992,0,0,0-1.407.563,1.885,1.885,0,0,0,0,2.737,1.971,1.971,0,0,0,1.407.537,2.038,2.038,0,0,0,1.407-.537,1.8,1.8,0,0,0,.588-1.355,1.9,1.9,0,0,0-.588-1.381,1.865,1.865,0,0,0-1.407-.563m13.427,5.857a9.261,9.261,0,0,0-1.867-.2,8.024,8.024,0,0,0-4.041,1,6.68,6.68,0,0,0-2.66,2.737,8.7,8.7,0,0,0-.921,4.092,7.591,7.591,0,0,0,.9,3.657,6.131,6.131,0,0,0,2.506,2.532,7.379,7.379,0,0,0,3.657.9,8.041,8.041,0,0,0,4.016-.946l.026-.026v-3.069l-.128.1a5.715,5.715,0,0,1-1.611.844,4.925,4.925,0,0,1-1.586.307,3.923,3.923,0,0,1-3.12-1.228,4.718,4.718,0,0,1-1.151-3.351,4.835,4.835,0,0,1,1.176-3.453,4.1,4.1,0,0,1,3.12-1.279,5.444,5.444,0,0,1,3.172,1.074l.128.1v-3.248l-.026-.025a7.709,7.709,0,0,0-1.586-.511m10.972-.1a3.508,3.508,0,0,0-2.251.793,4.771,4.771,0,0,0-1.279,1.918h-.026v-2.481h-3.325v14.169h3.325V297.8a4.88,4.88,0,0,1,.819-2.992,2.563,2.563,0,0,1,2.148-1.151,8.219,8.219,0,0,1,1,.128,2.626,2.626,0,0,1,.793.333l.128.1v-3.325l-.077-.026a2.526,2.526,0,0,0-1.253-.23m9.054-.077a7.332,7.332,0,0,0-5.5,2.046,7.618,7.618,0,0,0-1.969,5.576,7.291,7.291,0,0,0,1.944,5.294,7.987,7.987,0,0,0,10.589-.128,7.593,7.593,0,0,0,1.969-5.5,7.4,7.4,0,0,0-1.867-5.346,6.732,6.732,0,0,0-5.167-1.944m2.66,10.9a3.352,3.352,0,0,1-2.788,1.176,3.493,3.493,0,0,1-2.865-1.227,5.054,5.054,0,0,1-1.023-3.4,5.37,5.37,0,0,1,1.023-3.478,3.518,3.518,0,0,1,2.839-1.228,3.4,3.4,0,0,1,2.762,1.177,5.245,5.245,0,0,1,1.023,3.453,5.918,5.918,0,0,1-.972,3.53m11.791-4.706a7.969,7.969,0,0,1-2.021-1.049,1.453,1.453,0,0,1-.384-1.074,1.188,1.188,0,0,1,.537-1.023,2.464,2.464,0,0,1,1.458-.384,6.631,6.631,0,0,1,1.714.256,4.413,4.413,0,0,1,1.483.691l.128.1v-3.12l-.077-.026a9.235,9.235,0,0,0-1.509-.435,10.252,10.252,0,0,0-1.637-.153,5.926,5.926,0,0,0-3.913,1.228,3.781,3.781,0,0,0-1.509,3.12,4.061,4.061,0,0,0,.332,1.739,3.879,3.879,0,0,0,1.023,1.33,8.924,8.924,0,0,0,2.046,1.151c.767.332,1.356.588,1.714.793a3.467,3.467,0,0,1,.767.614,1.455,1.455,0,0,1,.2.793c0,.946-.716,1.407-2.174,1.407a5.745,5.745,0,0,1-1.842-.332,7.123,7.123,0,0,1-1.867-.946l-.128-.1v3.248l.077.025a9.926,9.926,0,0,0,1.79.563,11.427,11.427,0,0,0,1.918.23,6.228,6.228,0,0,0,4.118-1.228,3.916,3.916,0,0,0,1.56-3.223,3.587,3.587,0,0,0-.818-2.43,10.373,10.373,0,0,0-2.993-1.765m12.584-6.189a7.332,7.332,0,0,0-5.5,2.046,7.725,7.725,0,0,0-1.969,5.576,7.29,7.29,0,0,0,1.944,5.294,7.987,7.987,0,0,0,10.589-.128,7.593,7.593,0,0,0,1.969-5.5,7.4,7.4,0,0,0-1.867-5.346,6.732,6.732,0,0,0-5.167-1.944m2.635,10.9a3.353,3.353,0,0,1-2.788,1.176,3.46,3.46,0,0,1-2.865-1.227,5.054,5.054,0,0,1-1.023-3.4,5.37,5.37,0,0,1,1.023-3.478,3.518,3.518,0,0,1,2.839-1.228,3.435,3.435,0,0,1,2.762,1.177,5.245,5.245,0,0,1,1.023,3.453,5.581,5.581,0,0,1-.972,3.53" transform="translate(-187.712 -283.835)" fill="#3b3a40"/>
      <path id="Path_11790" data-name="Path 11790" d="M585.432,290.42v-2.737h-3.351v-4.195l-.1.026-3.172.946-.077.025v3.2h-5.013v-1.79a2.8,2.8,0,0,1,.563-1.867,1.986,1.986,0,0,1,1.56-.614,3.734,3.734,0,0,1,1.484.332l.128.077v-2.89l-.077-.026a6.4,6.4,0,0,0-4.527.358,4.44,4.44,0,0,0-1.816,1.816,5.235,5.235,0,0,0-.665,2.635v1.969H568.04v2.711h2.328v11.458h3.35V290.42h5.013v7.289c0,2.992,1.407,4.5,4.22,4.5a8.763,8.763,0,0,0,1.407-.154,4.6,4.6,0,0,0,1.049-.332l.026-.025v-2.737l-.128.1a2.16,2.16,0,0,1-.691.307,2.348,2.348,0,0,1-.665.1,1.772,1.772,0,0,1-1.458-.537,2.77,2.77,0,0,1-.46-1.816v-6.7Z" transform="translate(-473.842 -280.65)" fill="#3b3a40"/>
    </g>
    <path id="Path_11791" data-name="Path 11791" d="M14.639,259.894H30.317v15.678H14.639Z" fill="#3b3a40"/>
    <path id="Path_11792" data-name="Path 11792" d="M84.55,259.894h15.678v15.678H84.55Z" transform="translate(-52.596)" fill="#3b3a40"/>
    <path id="Path_11793" data-name="Path 11793" d="M14.639,329.8H30.317v15.678H14.639Z" transform="translate(0 -52.596)" fill="#3b3a40"/>
    <path id="Path_11794" data-name="Path 11794" d="M84.55,329.8h15.678v15.678H84.55Z" transform="translate(-52.596 -52.596)" fill="#3b3a40"/>
  </g>
</svg>
