<svg xmlns="http://www.w3.org/2000/svg" xmlns:xlink="http://www.w3.org/1999/xlink" width="323.153" height="345.449" viewBox="0 0 323.153 345.449">
  <defs>
    <clipPath id="clip-path">
      <rect id="crop" width="156" height="319" transform="translate(361.115 4583.775) rotate(39.449)" fill="none"/>
    </clipPath>
  </defs>
  <g id="Vector_Smart_Object" data-name="Vector Smart Object" transform="translate(-158.424 -4583.775)" clip-path="url(#clip-path)">
    <g id="Group_4" data-name="Group 4">
      <path id="Path_102" data-name="Path 102" d="M414.788,4658.23c-.856.1-1.4,1.047-1.959,1.909A2.916,2.916,0,0,0,414.788,4658.23Z" fill="#d4e0ff"/>
      <path id="Path_103" data-name="Path 103" d="M412.807,4660.147v.021l.021-.029Z" fill="#d4e0ff"/>
      <path id="Path_104" data-name="Path 104" d="M372.366,4612.875c.3-.648.959-.79.973-.408.334-1.626.816-1.149.12-2.158.087-1.18,1.134-1.411.913-.2l.889-2.716-.945,1.177c-.435-1.068,1.511-1.881,1-3.125l-1.424,2.441-.144-.355a3.992,3.992,0,0,1-1.182,2,.636.636,0,0,1-.028-.768c-1.847,2.811.669,2.017-.6,4.629A1.467,1.467,0,0,1,372.366,4612.875Z" fill="#d4e0ff"/>
      <path id="Path_105" data-name="Path 105" d="M369.226,4613.568l.2,1.892-1.265,1.445c.274.328-.261,1.8.508,1.242a2.531,2.531,0,0,1,.36-.85c.5.851-1.091,2.561-.158,2.741.668-1.5.931-1.56.942-2.917a7.624,7.624,0,0,1,2.1-2.21c.133-.461-.213-.92,0-1.46-.054.112-.1.214-.172.336l-.958-.951c-.044.594-.363.855-.609,1.3l.147-3.132c-1.264-.3-1.964,2.174-2.807,2.555C368.889,4613.448,367.42,4614.739,369.226,4613.568Z" fill="#d4e0ff"/>
      <path id="Path_106" data-name="Path 106" d="M356.645,4633.778l-.023.021c-.014.062-.015.119-.032.181Z" fill="#d4e0ff"/>
      <path id="Path_107" data-name="Path 107" d="M366.628,4625.37c-.01.017-.019.039-.026.049l.1.134Z" fill="#d4e0ff"/>
      <path id="Path_108" data-name="Path 108" d="M366.434,4622.094c.107-.246.224-.5.339-.743A2.446,2.446,0,0,0,366.434,4622.094Z" fill="#d4e0ff"/>
      <path id="Path_109" data-name="Path 109" d="M370.093,4635.259a3.791,3.791,0,0,1-.051-.756C370,4634.926,369.959,4635.29,370.093,4635.259Z" fill="#d4e0ff"/>
      <path id="Path_110" data-name="Path 110" d="M366.807,4619.528c-.624-.831.656-1.893.891-2.719-.454.294-.293-.707-.627-.829a3.684,3.684,0,0,1-.539,1.477c-.464-.1-.173-1.125.335-1.625-.844.381.072-1.563-.889-.771-1.222,2.594-2.008,4.51-2.038,7.228.669-1.507,1.4-3.215,2.357-4.009l.3,1.1c-1.292.672-1.382,1.851-2.2,3l2.022-2.385c1.292-.744.869.23.346,1.353.162-.239.338-.425.482-.375C367.11,4620.62,368.434,4617.233,366.807,4619.528Z" fill="#d4e0ff"/>
      <path id="Path_111" data-name="Path 111" d="M371.29,4628.41l.045-.028a.817.817,0,0,0,.012-.178Z" fill="#d4e0ff"/>
      <path id="Path_112" data-name="Path 112" d="M367.326,4622.9c.478.478-.989,1.766-.132,1.773C367.238,4624.077,367.863,4623.167,367.326,4622.9Z" fill="#d4e0ff"/>
      <path id="Path_113" data-name="Path 113" d="M368.331,4623.256l-.614,1.295.64-.522C368.286,4623.843,368.081,4623.7,368.331,4623.256Z" fill="#d4e0ff"/>
      <path id="Path_114" data-name="Path 114" d="M372.263,4626.26a3.88,3.88,0,0,1,.7-2.479c1.353.863-.655,1.889.13,3.455,1.193-1.619.54-3.216,1.338-4.746C373.518,4622.689,371.438,4625.282,372.263,4626.26Z" fill="#d4e0ff"/>
      <path id="Path_115" data-name="Path 115" d="M373.207,4628.57l.35-1.239-.126.023-.35,1.24Z" fill="#d4e0ff"/>
      <path id="Path_116" data-name="Path 116" d="M350.306,4638.852c-.408-.295-.437.681-.554,1.094A1.758,1.758,0,0,0,350.306,4638.852Z" fill="#d4e0ff"/>
      <path id="Path_117" data-name="Path 117" d="M392.937,4624.589a2.251,2.251,0,0,0-.064-.6C392.761,4624.394,392.825,4624.527,392.937,4624.589Z" fill="#d4e0ff"/>
      <path id="Path_118" data-name="Path 118" d="M396.745,4625.172c-.282-.319-.063-.537-.144-.812-.573-.511.035.92-.687,1.033l-.086-1.585-.807-.032-.147-3.551c-1.413,1.277.1,4.193-1.467,4.791-.031-.4-.305-.336-.471-.427-.009.717-.335,1.235-.151,1.879l-.446.676c-.282-.319-.817-1.342-.362-2.031a8.43,8.43,0,0,0-.929,2.012c-1.215-1.021-2.333-1.945-3.283-2.712.182-.148.355-.22.527-.065.115-.341.217-.441-.159-.905-.2.2-.431.882-.691.074.129-.708.618-.585.835-1.026.093.146.259.808.271.562.353-1.272,1.517-3.084,1.02-5.186-.12.466.254.932-.249,1.177-.282-.317-.077-.515-.163-.781-.569-.515.061.881-.636.951l-.128-1.516-.784-.07-.243-3.4c-1.333,1.15.216,4.009-1.285,4.5-.042-.377-.305-.336-.469-.429.012.68-.282,1.155-.095,1.772a2.361,2.361,0,0,0-.3.466l-.114.171c-.282-.317-.83-1.321-.407-1.956-1.478,2.227-1.132,5.529-3.084,7.264-.2-.049.021-.489-.178-.416-.022.491-.152,1.2.037,1.371-.093-.146-.275-.44-.169-.662a2.023,2.023,0,0,1-.624.977.919.919,0,0,0,.085-.535l.079.166.221-.9a17.8,17.8,0,0,0-.948,1.7,1.17,1.17,0,0,0-.594.995c-.379-.341.137-.833-.058-.88-1.023.857-.316,2.639-1.06,3.813-.253-.925-.676-.292-1.168-.29-.164,1.443-1.347,3.617-1.92,5.453-1.007-1.733-1.058,1.59-2.193.566a1.369,1.369,0,0,0,.032,1.489c-.082-.391.515-.486.7-.193-.222.559-.649,1.317-.185,1.928l-.889.028c.371.46.728,1.159.528,1.48l-.005.008c-.825-.206-.471.042-.228.375-.1.158-.208.316-.319.471a8.081,8.081,0,0,0-.608-1.383c-.413.394-.126.587-.246,1.051-.383-.218-.632-1.27-.6-1.879l-.705.318c.238,1.3.444,3.322-.381,4.105-.27-.562-.059-.877-.736-1.17a4.438,4.438,0,0,0-.025.842c-1.01-1.411-2.036-2.841-3.028-4.216.083-.732.04-1.289-.5-.7l-.061-.083c.391-1.31,1.356-.906,1.634-1.884.4.3.04,1.151.564,1.034a5.2,5.2,0,0,0,1.178-2c-.51.5-.218-.536-1.046.23.043-.591.6-1.678.4-1.827-.119.41-.106.8-.683,1.117a7.444,7.444,0,0,1,2.121-3.179,1.375,1.375,0,0,1,.07.531c.275-2.08,1.768-4.036,1.651-5.753l-.405.265c-.017.556-.431,1.274-.787,1.353.48-1.267-1.121.056-.713-1.391.655-1.887,2.283-2.437,2.027-4.127-1,1.384-2.667,2.915-2.694,3.888l.628-.914-.411,3.191c-.406-.3-.977,2.152-1.527,1.5.367-.856.8-1.531,1.107-2.179-.333-.125-1.385,1.854-1.951,2.559l.828-.765c-.641,2.271-2.21,4.36-2.927,6.457.2-.938-.188-.578-.589-.216l-.477-.655c.243-.3.606-.383.429-.342-.2-.318-.376-.131-.57.148-.358-.488-.7-.955-1.025-1.4.1-.376.185-.712.261-.979l.024.772c.12-2.161,1.75-2.713,2.072-4.719.073.176.015.382.2.146,1.194-1.621.6-3.421,1.949-4.3l.218.529c.036-.161.281-1.276-.186-1.505a10.029,10.029,0,0,1-1.353,2.62,5.539,5.539,0,0,1,.732-2.637l-.529-.7c-.056-1.538,1.4-1.47,1.341-3l-1.032.612a.962.962,0,0,1,.052-.238,2.56,2.56,0,0,0-.341,1.27c-.658,1.886-1.982,1.792-2.447,1.707-.641.524-.563-1.044-.973-1.34-.61,1.3.072,1.918-.54,3.216-.322.27-.332-.118-.274-.328l-.218,1.21c-.2-.148-1.588,1.709-1.254.086.128-.159.316-.5.5-.728-1.437,1.18-3.66,3.5-4.249,2.718-.7.735-.233.826-1.313,2.033.045,1.151.96.95.3,2.835l.993-.974c.069-.347.087-.677.187-1.03l-.743,1.327c.29-1.031-.043-1.152-.336-1.863,1.18-2,2.315-1.674,3.146-2.437-.028.817-.546,1.6-.257,1.96-.669.948-1.36,1.748-1.242,2.62a1.532,1.532,0,0,1-.3.519c-.539.3-.468-.891-1.388.246-.23.707-.4,1.633-.674,2.482-.086-.091-.176-.157-.278-.135.8-3.274-.959-.952.1-4.282-.755-.8-1.512.141-2.312,1.671.9-.586.726,1.777,2.021,1.1a7.805,7.805,0,0,0-.335,3.188c-.053.062-.1.13-.159.187l-.091-.117a10.728,10.728,0,0,0-2.066,4.539l-.219.2c-.262-1.687.77-2.3.727-3.452-1.819.792-.611,3.042-1.865,4.869-.494.159-.677.06-.7-.181.107-.35.21-.711.309-1.087a3.69,3.69,0,0,0,.449-1.779c.155-.637.316-1.274.482-1.9.127.043.458-.293.6.054-.085-.566.962-2.542,1.908-3.716-.362-.891-1.166.645-1.934,1.2a3.409,3.409,0,0,1-.179.624,11.968,11.968,0,0,0-1.436,2.047,3.052,3.052,0,0,0-.9,1.851c-.051.108-.1.217-.16.33-.788,1.249-.474-.67-.6-.643-1.211,1.238.043,1.152-.132,1.771-.083.221-.168.384-.254.562-.083.128-.148.241-.242.378-1.831,1.842-3.63,1.195-5.705,2.195l1.678.227c-1.234,3.959-1.955,1.424-2.55,5l-1.57-2.026c.27,1.823-1.846,3.107-2.859,3.47l.6,2.109c-1.909,1.159-3.012,2.08-4.433,1.45l1.163,1.034c-1.138-.055-4.845,7.4-5.083,3.081-.139.824.055,1.952-.88,3.018l-1.16-1.03c-.912,2.048-2.024,4.221-2.947,4.04a4.49,4.49,0,0,0-.1-2.922c-3.3,4.558-1.434,5.547-.779,7.39-.942,1.883-2.067,3.813-2.948,3.555a4.416,4.416,0,0,0-.009-2.874c-2.9,3.572-1.972,4.919-1.279,6.413l-.01,0a5.838,5.838,0,0,1-.63,3.4l-.734-.808c.441,1.666-1.417,2.828-2.331,3.153l.538,1.325-.917.243a4.949,4.949,0,0,1,.016.847c-.134.162-.269.323-.4.487a2.549,2.549,0,0,1-2.466.323l1.2.955c-1.074-.06-3.794,6.726-4.456,2.775-.046.752.251,1.787-.524,2.747l-1.193-.956c-.654,1.857-1.485,3.827-2.371,3.647a4.115,4.115,0,0,0-.379-2.669c-2.766,4.294-.628,5.122.1,6.97l-.058.049a9.072,9.072,0,0,0-2.822,2.488c-2.671,2.331-5.626,4.638-7.766,4.341-.686,3.172.376.016,1.171,1.015a16.81,16.81,0,0,1-.637,1.675c-1.853,1.162-3.661,1.946-5.069,1.607-.773,3.041.369.052,1.118,1.108-.095.259-.19.487-.285.713a4.473,4.473,0,0,0-.947.533c-.6,1.557-.237,1.281.293.808-1.613,2.79-3.146,1.769-4.958,2.9-1.355,3.1,1.791-1.4,1.543.888-3.585,2.81-1.078,4.642-5.228,8.47-.9-.252.513-1.706.505-2.663-1.443,4.6-6.647,9.919-10.088,15.087-4.879,4.7-11.311,12.639-17.074,18.07l.272.582c-2.955,1.544-4.271,5.621-7.049,8.29l1.684-.891a11.061,11.061,0,0,1-.551,1.4,1.309,1.309,0,0,0-.532,1c-.321.523-.658.982-1,1.456-.946-.546-1.751-.86-1.721.213l.9.988c-.154.252-.308.521-.461.819l-1.859-.223a7.276,7.276,0,0,0-.361.878c-.761.345-.527,1.56.026,3.088-.021.108-.046.22-.079.344-1.479.785-3.111,3.44-4.2,5.249a1.533,1.533,0,0,0-.171-.041c.034.058.055.12.087.179a15.752,15.752,0,0,1-.959,1.494c-.957.031-.08-1.647-.144-2.332a9.135,9.135,0,0,0-.882,2.7c-.542-.176-1.048-.349-1.244-.133a12.653,12.653,0,0,1,1.032,1.263,8.04,8.04,0,0,1-1.551,3.354l-.323-.308c-.215.506-.475,1.008-.71,1.513a9.482,9.482,0,0,1-.445-1.434c.3,1.03-.315,1.836-.19,2.783-.685,1.381-1.411,2.756-2.2,4.127a3.852,3.852,0,0,1-.493-.391,3.024,3.024,0,0,0,.324.672c-.46.792-.941,1.585-1.426,2.377l-9.008,11.578a3.556,3.556,0,0,1,1.568.1q-1.544,2.462-2.958,4.965c-.109-.05-.216-.1-.335-.146l-1.506,2.487-.276-.767c-.118.223-.008.551.168.936l-5.064,8.4a3.088,3.088,0,0,0,.224,1.168c-.794,1.268-1.572,2.544-2.322,3.829-.77-.731-1.382-.975-1.607-.094l.963,1.222c-1.3,2.287-2.495,4.591-3.517,6.9l-.988-1.488a5.636,5.636,0,0,0,.607,2.378c-.355.841-.694,1.683-1,2.525a13.321,13.321,0,0,1-1.254.928l.367.456c-1.667.054-1.434,2.209-2.655,3.019l.955-.024c.006.053,0,.089.008.139l-1.173,2.281-.953-.505a1.909,1.909,0,0,0,.454,1.476l-.65,1.262a1.145,1.145,0,0,0-.8.116c.241.5-.1,1.874.366,1.915a1.961,1.961,0,0,1-.222.52c-.68-.3-.53-1.08-.774-1.54-.225,1.4.9,2.471.157,3.726l-.32-.3c-.209,4.663-2.955,7.953-4.009,12.306.2-.157.4.154.676.312-1.774,3.9-4.248,7.9-3.387,13.547.81-1.909,3.849-3.085,4.031-6.136l.111-.013-.109-.542a5.584,5.584,0,0,0-.091-.769c1.243.165.784-2.177,2.1-1.239,1.674-1.669,1.341-3.949,1.773-6.118a.309.309,0,0,0,.334.156c.75-.643.538-1.248.118-1.56a5.235,5.235,0,0,1,.287-.619c.438-.16.878.617,1.478,1.078l-.763,2.669,1.243-.793c.161,1.1-1.046,2.043-.133,3.286-.034-1.744.8-3.118,1.481-4.532.32.941,1.616.783,1.85,1.753l.618-4.717-.776,3.053c-1.237.971-1.509.353-1.443-.622a5.624,5.624,0,0,0,.526-3.1c-.723.479-1,1.736-1.642,2.529-.6.007-1.242.328-1.762-.3,0-4.215,2.07-5.488,3.164-8.636.255-.736.826-1.437,1.392-1.162a26.832,26.832,0,0,0-2.694,6.967c2.034-2.69,6.571-4.881,8.545-8.829a2.817,2.817,0,0,0,.454.135,3.225,3.225,0,0,0-.35-.342,8.83,8.83,0,0,0,.59-1.695,1.652,1.652,0,0,0,.095.145c.084-.176.159-.338.242-.483-.149.592-.289,1.182-.409,1.77a31.425,31.425,0,0,1,1.864-2.951,5.681,5.681,0,0,0,1.476,1.474,42.89,42.89,0,0,0-2.729,9.125,42.112,42.112,0,0,1,3.76-5.338c-.237,3.351-.628,8.169.362,12.864-1.31-1.094-1.641-.565-1.841.282l.279-3.338-.593,2.793c-2.125,1.543-1.294-1.879-1.019-3.022-1.874,3.918.549,3.23,1.163,4.383-.159.743-.4,1.443-1.153,1.426a5.677,5.677,0,0,1-2.186-2.471l.234-.454c-1.878,1.024-2.08,5.048-1.733,8.92l-2.74-2.317c-2.975,1.385,3.772,4.482,2.1,7.947-2.769-2.666-3.815,1.645-5.726-.95-.218.788-.488.887.821,2.973.544-.19.972-1.777,2.061,1.1-.124,1.846-1.647.552-2.135,1.438-.335-.609-1.085-2.879-1.028-2.173-.588,3.08-3.421,6.2-1.151,13.381.186-1.153-1.11-3.246.318-3.009.969,1.481.423,1.673.779,2.625,1.906,2.616-.508-2.724,1.567-1.6l.946,4.736,2.39,1.705,1.97,10.546c3.616-.872-2.108-12.3,2.246-10.9.263,1.2,1.047,1.577,1.574,2.164-.285-2.048.451-2.889-.374-5.108l1.018-1.062c.976,1.477,3.005,5.488,1.958,6.568,2.261-2.333,2.263-7.179,3.154-10.9.3-.124.164-1.469,1-1.92l-.356,2.287,1.055-.364-.856,5.152c2.242-2.6,1.109-6.122,3.351-7.795-.075.563.3.339.494.387.225-1.059.808-1.986.756-2.841l.787-1.222a2.57,2.57,0,0,1-.123,2.8,25.615,25.615,0,0,0,1.886-3.586c.543-.173.892-.593.793-1.727,1.287,1.714-.091,2.206.516,2.706.948-.214,1.237-1.127,1.286-2.31,3.99,3.864.421,1.445,1.573,2.988l.264.692-.049.109a16.216,16.216,0,0,1-1.807-2.1c.767.987.223,1.1,1.616,2.465l-.505,1.019c-.192-.147-.427-.339-.747-.629a8.9,8.9,0,0,0,.685.752l-2.18,4.455c.457.134,1.541.942,2.139,1.209,1.876,2.249,1.468,1.417,1.985,1.712l-.372.678a16.556,16.556,0,0,0-2.174-2.335l.907,1.5-.89-.947.033.747c.879.8,1.32,1.181,1.8,1.624l-.2.363a22.3,22.3,0,0,0-2.6-2.212l-.094.969-.459-.545a1.989,1.989,0,0,0,.449.609l-.3,3.278a11.816,11.816,0,0,0,2.372,2.471l-.195.988-.432-.584a1.789,1.789,0,0,0,.414.657l-.053.275c-1.6-1.529-3.018-2.831-2.735-2.11l2.652,2.542-.035.183-.2-.034c.06.025.127.065.188.094l-.4,2.073-2.089-2.088a16.132,16.132,0,0,0,2.03,2.4l-.066.341-.291-.348-.1.884,2.228,2.267c-.489-.561-1.35-1.7-.826-1.336.253.273.532.549.828.831l.855.927-.441-.528a20.827,20.827,0,0,1,2.83,3.141c.332-.541,2.318.324-.08-2.531a8.705,8.705,0,0,0,1.243,1.244l-2.379-3.176-1.022-.6c-1.574-2.106-1.547-2.991-.847-2.89.621.6,1.2,1.152,1.648,1.551l-1.256-1.422a4.44,4.44,0,0,1,1.056.745c.5,1.565,3.793,4.68,1.569,3.661a19.61,19.61,0,0,1,2.636,2.9c-.286-1.989,1.713-1.3-.328-5.265a6.892,6.892,0,0,1-2.754-3.092c.083.068.174.148.24.192l-.405-.475a13.41,13.41,0,0,0-2.3-2.817l.158.317-.983-.58c-.313-.367-.57-.694-.776-.981l.035-.063a.564.564,0,0,0-.083-.007c-1.214-1.722-.541-1.957.682-1.085l-.6,1.092c.482.118,1.562.944,2.18,1.2a7.748,7.748,0,0,0,1.406,1.647c-.083.035-.284-.02-.666-.205.734.692,1.983,1.784,2.534,2.458-.1-.06-.2-.13-.321-.217.182.211.366.4.549.6.014.059.025.116.047.184a.137.137,0,0,0,0-.129c1.093,1.176,2.223,2.178,3.539,3.655,2.053,1.189-4.189-5.808-2.843-5.367,1.564,1.751,2.824,3.45,2.865,2.818l.275.473c-.842-1.591.841.084,1.287.381a11.24,11.24,0,0,0,1,1.634c.294.476.7,1.12,1.2,1.9-1.222-1.062,1.053,1.531.566,1.417-.9-1.126-2.4-3.117-2.692-3.369,3.419,4.078-2.977-.884-.468,1.881.816.989,1.546,1.928,2.256,2.857-.7.045-.111,1.568,1.594,4.106-.33-.773.045-.366.612.315-.06.195-.086.427-.419.356-.03-.027-.047-.041-.073-.063l-.978-1.08c-.224-.11-.281-.034-.287.106a8.953,8.953,0,0,0-.75-1.02,8.839,8.839,0,0,1,.757,1.173c.036.259.127.594-.028.687a.81.81,0,0,1-.237-.024l-2.027-1.892a2.711,2.711,0,0,1,.389,1.311c-.173-.019-.216.075-.056.355a.658.658,0,0,1-.09.2,6.991,6.991,0,0,0,.616.55c.26.364.494.715.738,1.071-.295-.3-.636-.638-1.044-1.014a60.373,60.373,0,0,0,5.055,7.648c-1.673-1.411-1.158-.6-.872.025-.085.123-.123.3-.2.434l-.024-.01a19.556,19.556,0,0,1-2.351-2.147l-.019-.189c-.534,0-.152.936.634,2.231a.258.258,0,0,1-.332.227l-2-2.053a2.163,2.163,0,0,1-.005,2.142c1.131,1.264,1.176.623,2.425,2.335.172-.181.047-.635-1.227-1.916.029-.033.122.019.24.1.61.667,1.85,1.736,2.836,2.736l.357,1.09a2.446,2.446,0,0,0-1-.464c-.18-.242-.316-.4-.375-.335l.276.322a1.618,1.618,0,0,1-1.027-.324,12.521,12.521,0,0,0-2.252-2.868,56.133,56.133,0,0,0,4.411,8.478c-2.588-2.381.044,1.292-1.292.628a15.893,15.893,0,0,1-2.26-2.308l.008-.22c-.92.062.251,2.615,1.738,5.244l-2.578-2.386c-1.533-.052,3.966,4.123,3.981,5.849-2.707-2.619-1.993-.135-4.107-2.435.114.445-.034.423,1.516,2.2.3.047.064-.854,1.726,1.373.52,1.167-.913-.162-.946.263a19.017,19.017,0,0,0-1.392-1.747c.616,1.827-.242,2.969,3.606,8.384-.253-.7-1.8-2.475-.772-1.867a10.943,10.943,0,0,1,1.374,1.964c2.118,2.315-1.226-1.943.516-.551l2.173,3.4,2.141,1.872,4.746,7.524c2.115.573-5.411-8.718-2.064-6.42a11.448,11.448,0,0,0,1.751,1.914c-.858-1.431-.644-1.748-1.915-3.461l.329-.371c1.129,1.273,3.785,4.538,3.442,4.915,1.2-1.326-3.721-8.854-.692-8.127.574.528.541.958.976,1.243a15.682,15.682,0,0,0-1.764-2.889,8.038,8.038,0,0,1,1.249,1.724c-.6-2.048,3.122,1.375,1.778-1.009,1.415,1.526.654,1.406,1.222,1.925.978.285-.027-1.408-.9-3-.037-.072-.08-.15-.13-.236-.554-1.016-1.012-1.948-.811-2.244a7.6,7.6,0,0,0,2.374,2.4c.465.633-.827-.217.486,1.2l-.451-.456.777,1.061c-.023-.3.314-.52-.787-1.792a8.672,8.672,0,0,1,1.035.725c-1.328-2.6-.859-4.456-1.588-6.955,4.779,5.728.851-.942,5.1,3.613.175-.185-.347-1.347-1.907-3.107.7.977-.768-.128-1.606-1.12a3.936,3.936,0,0,0-.225-1.146c.51.131.165-.513-.421-1.381l.007-.007,1.082.875c-.3-.336-.6-.69-.907-1.044.028-.032.065-.049.09-.085,1.834.324-.2,1.16,2.038,1.47.2-.043.416-.116.623-.175a29.954,29.954,0,0,1,1.927,2.8l.612.365c.354.63.774,1.326,1.295,2.116-.165-.527-1-1.642-1.045-1.967l.614.366a13.315,13.315,0,0,1,1.046,1.7c2.066,2.394-1.165-2.014.56-.58l2.067,3.523,2.115,1.929,4.492,7.833c2.173.544-5.114-9.075-1.77-6.727a10.7,10.7,0,0,0,1.713,1.972c-.811-1.484-.57-1.823-1.8-3.593l.363-.4c1.1,1.311,3.687,4.676,3.307,5.083,1.335-1.439-3.388-9.205-.289-8.544.571.535.516.989.955,1.273-.368-.709-.727-1.53-1.154-2.223l.035-.021a3.227,3.227,0,0,1,.637,1.036c-.244-.98.41-.777,1.063-.512l.364.887c-.631.2-2.073-.474,1.344,3.285l.59,1.447c-.12-.167-.255-.348-.426-.562.151.238.323.477.488.714l.009.023a22.026,22.026,0,0,1-3.152,6.229c-.1-.166-.211-.344-.353-.544.679,1.013-.38.306-.013,1.081a43.492,43.492,0,0,0-3.718,5.958c.256-.15.4.214.666.42-.913,1.288-1.906,2.58-2.853,3.942a1.036,1.036,0,0,0-1.088-.189c.157.459-.178,1.472,0,1.844a18.851,18.851,0,0,0-3.069,8.842c1.54-2.254,6-3.143,6.148-7.7,1.323.325,1.391-2.294,2.6-1.115,2.951-2.17,2.328-5.9,4.716-8.655.518-.127.813.777,1.359,1.349l-1.477,2.851,1.551-.732c-.085,1.224-1.638,2.126-.937,3.594.545-2.709,2.805-4.425,3.874-6.733q.4.987.77,1.871l-.019.026c-.745.75-1.471,1.538-2.189,2.346a6.705,6.705,0,0,0-.05-1.154,4.419,4.419,0,0,0-.243,1.472,116.037,116.037,0,0,0-12.681,18.583,3.908,3.908,0,0,0-.6,1.461c-1.371,1.941-2.689,3.9-3.95,5.813-.842.875-1.037,3.922-1.705,5.785,1.58-.815,1.25-1.807,2.581-3.029.859-.321,1.76.273,2.718.773a28.32,28.32,0,0,0-3.507,10.888c1.817-3.14,6.991-5.852,7.221-11.089,1.526-.138,1.637-3.138,3.024-2.264.177-.186.3-.377.458-.566.094.09.189.18.288.291l-.233-.359a11.213,11.213,0,0,0,1.362-2.058,1.539,1.539,0,0,1,.634-.236,17.39,17.39,0,0,0-.836,7.466c1.032-2.423,4.961-4.116,4.462-8.338a.553.553,0,0,1,.615.1,3.376,3.376,0,0,0,.094,1.805,2.083,2.083,0,0,1-.312.355l1.089.736.719-2.563a1.333,1.333,0,0,0-.212.008,4.612,4.612,0,0,0-.53-2.221c.179-.145.413-.169.782.078,2-2.121,1.555-4.825,2.348-7.405.365-.491.76-.751,1.165-.457a3.933,3.933,0,0,0,.271,2.254l-.181.566,1.348-.96c.109,1.167-1.2,2.3-.3,3.566.085-3.382,3.094-5.672,2.8-9.021a3.669,3.669,0,0,0-.937,1.274l.208-1.223-.522,1.819a6.432,6.432,0,0,1-.612,1,6.957,6.957,0,0,0-.695.122,5.24,5.24,0,0,0-.348-1,4.011,4.011,0,0,0,1.724-2.457c.5-.962,2.516-.052,3.642-1.618l-.73-1c.011-.008.017,0,.029-.013.075-.107.114-.189.176-.287a5.956,5.956,0,0,0,1.346-.275l.178.164.056-.236c.908-.285,1.946-.672,3.012-.917l0,.021.006-.021a5.108,5.108,0,0,1,4.215.5c.242-2.138-.289-.177-.983-1.3.89-3.512,2.441-1.487,3.948-1.774.676-1.967-1.214.46-1.292-1.264a2.018,2.018,0,0,0,1.367-2.03c.437.059.813.2.791,1.1,1.619-1.211,2.413-3.862,3.042-6.144.876-1.04,1.862-2.063,2.726-3.149.6.623,1.2,1.251,1.813,1.895.209-.32.424-.633.634-.955a8.856,8.856,0,0,1-1.679-1.989c.019-.028.04-.052.058-.08.2-.132.406-.292.609-.438.441.574.926,1.185,1.436,1.871.763-1.163,1.541-2.31,2.307-3.47-.131-.287-.3-.623-.5-1l.051-.044.635.772c.106-.161.212-.319.318-.479a.4.4,0,0,1,.324-.488c.176-.267.354-.531.53-.8-.13-.321-.035-.4.2-.3l.76-1.143a40.011,40.011,0,0,1,4.06-3.2l-.3-.537a2.423,2.423,0,0,0,1.394-.733,1.651,1.651,0,0,1,.371.454c-.13-.212-.222-.382-.3-.534.966-1.008,1.53-2.676,2.785-3.568l-1.187.2c.258-1.985,1.147-2.134,1.713-3.588l1.51.708c.558-1.647-.48-1.649-.382-3.227,1.071-.2,1.932-1.911,2.488-3.01a4.833,4.833,0,0,0,.729-.745c.427.369.134,1.236.28,1.715a5.578,5.578,0,0,0,.214-2.375,8.637,8.637,0,0,1,2.1-2.407l-1.1.154c.142-.563.318-1.113.5-1.659a12.148,12.148,0,0,0,1.338-1.956l1.5.774c.673-1.673-.4-1.716-.189-3.327,1.534-.225,2.861-3.386,3.336-3.849.757.279.263,1.345.4,1.916.828-1.9-.2-3.129,1.227-4.919l.3.348c2.02-6.23,6.733-11.118,9.609-17.135-.31.252-.456-.119-.758-.27,3.556-5.425,7.97-11.236,8.79-18.295.558-.694,1.119-1.383,1.671-2.094.323-.412.632-.834.951-1.249a.815.815,0,0,0,.359.033,1.433,1.433,0,0,1-.121-.347q1.252-1.642,2.449-3.3a8.649,8.649,0,0,1-.178,1.473,2.681,2.681,0,0,0,.406-1.788,161.939,161.939,0,0,0,12.335-20.032c1.737-1.414,3.2-4.3,4.545-6.235-.9.934-1.059.151-.519-.729,3.6-6.309-.11-.792,3.161-7.465.554-1.246,1.4-3,2.444-5.079-.224.882.206,1,.62,1.194-.17,1.15-.952,2.039-1.137,3.13l1.3-3.049a.791.791,0,0,1,.4.557,4.681,4.681,0,0,1-.21-.991l.145-.34-.156.113c-.021-1.472,1.192-1.079-.688-1.142q.774-1.545,1.661-3.287l.053,2.621c1.1-1.864,2.4-4.928,2.834-2.886.762-4.5,4.738-9.556,6.509-14.293l.768,1.265c.153-3.266,4.766-7.507,4.519-10.745l.569.1,1.285-5.446a1.155,1.155,0,0,1,1.982-.177c2.274-4.351,4.17-7.64,6.27-9.766-.853-1.991,1.451-6.655,3.381-10.261a241.606,241.606,0,0,0,15.145-25.584,202,202,0,0,0,9.5-20.738c.614.388,1.006.548.7,0l-.53-.458c.143-.377.279-.754.419-1.132a3.156,3.156,0,0,1,.318.469c.644.194.451-.267-.113-1.024.486-1.334.951-2.668,1.384-4,.4.212.75.392.811.313-.267-.225-.5-.425-.711-.61.03-.091.063-.183.092-.273a9.349,9.349,0,0,0,.439-1.494c.035.044.064.078.1.124-.04-.05-.063-.092-.1-.138a51.532,51.532,0,0,0,.708-7.3l1.211-2.689c-.5-.023-1.65-.683-2.3-.829-1.167-1.31-1.483-1.5-1.672-1.5.088-.214.177-.429.261-.646a12.57,12.57,0,0,0,2.039,1.908l-.912-1.549.928.882.009-.9c-.812-.626-1.268-.951-1.71-1.289.064-.18.118-.362.179-.543a14.958,14.958,0,0,0,2.618,1.806l.164-1.207.475.524c0-.111-.195-.334-.46-.605l.53-4.072c-.023-.038-.054-.069-.079-.106l.4-.322.087-.662s-.875-1.1-2.3-2.706c1.583,1.28,2.937,2.29,2.678,1.537l-3.04-2.476-.432.05c-1.561-1.725-3.591-3.844-5.813-5.848a47.082,47.082,0,0,0-4.453-3.585,31.917,31.917,0,0,0-2.856-2.6c-.043-.355-.09-.739.3-.743l2.177,1.706a2.218,2.218,0,0,1-.178-2.166c-1.245-1.062-1.234-.41-2.637-1.9-.156.213.009.646,1.4,1.7-.147.222-2.163-1.477-3.251-2.119l-.947-2.132a1.61,1.61,0,0,1,.563.325l-2.278-2.025c.145-.218.763.205,1.692,1.048a14.453,14.453,0,0,0-1.651-2.177c.105-.159.209-.321.314-.484,1.1,1.145,1.75,1.918,1.641,2.234l.3-.642c2.039,2.122.964,2.775,4.543,5.533a47.3,47.3,0,0,0-5.211-7.673c2.811,1.894-.177-1.276,1.215-.864a14.091,14.091,0,0,1,2.485,1.871l.013.222c.91-.243-.515-2.568-2.275-4.886l2.818,1.867c.995-.164-1.145-1.513-2.828-2.9.143-.4.279-.793.394-1.2.563-.056.789-.416,2.18.679-.137-.353-.069-.427-1.065-1.293l1.65-.749.031-.49s-2.519-2.994-5.957-6.495c-.122-.126-.234-.247-.364-.379,0,.009.014.021.019.03-.813-.822-1.675-1.667-2.562-2.5a50.81,50.81,0,0,0-8.037-6.4l-.993-1.122c-.33-.032-.4.125-.3.4a10.855,10.855,0,0,0-1.964-.772l-.349-.438a2.263,2.263,0,0,1-.038.339,4.073,4.073,0,0,0-1.923-.014l-.486-.519-.415,1.039c-.837.961-.5,2.018-.982,1.5l.858-1.561c-.733,1.056-.605,0-.679-.706a4.31,4.31,0,0,1-.946,1.135c.086.4.3.012.505-.076-.127.792-.072,2.094-.694,2.666-.645,1.169-.885-.641-1.637.723-2.912,5.066-5.881,9.906-8.7,14.983l-1.87-3.348c-1.3.167.005,2.545,1.136,4.688-.356.654-.7,1.335-1.046,2-.211-.158-.419-.309-.609-.47a6.891,6.891,0,0,1,.384.9c-.256.491-.517.974-.77,1.472-.229-.172-.463-.346-.7-.52a8.188,8.188,0,0,1-1.008-1.673c.013-.043.027-.084.04-.126.8.792,1.208,1.61,1.685,1.812-.821-1.338,1.587-.323-1.2-3.082a2.418,2.418,0,0,0,.162-.52l.385.292c-.139-.148-.267-.288-.386-.419a.28.28,0,0,0-.074-.194c-.015.024-.031.035-.046.058-1.588-1.8-1.127-1.949-.629-2.019.063.093.109.178.185.278a1.689,1.689,0,0,1-.162-.281c.358-.048.711-.074.31-.662.1-.129.115-.335-.155-.767l-.014-.1.183.2-.22-.482a7.389,7.389,0,0,1,.634-4.365c2.016-5.308,3.735-11.348,5.643-16.759.319.27.151,1.531-.02,2.8a8.811,8.811,0,0,1,1-2.445c-1.042,1,.338-2.522-.256-1.621-.132-4.76,2.549-9.467,2.62-13.546l-10.676-9.458-.6-.522a.278.278,0,0,1,.261.067c.129-.366.238-.475-.136-.942-.218.219-.472.948-.717.115.156-.75.657-.647.894-1.121.091.147.242.833.262.573.4-1.352,1.663-3.315,1.214-5.493C396.9,4624.418,397.273,4624.887,396.745,4625.172ZM235.837,4907.216a1.772,1.772,0,0,1-1.142-.582,2.624,2.624,0,0,0,.528-.1C235.4,4906.733,235.6,4906.95,235.837,4907.216Zm.868-.9a1.539,1.539,0,0,1,0-.674C237.155,4906.337,237.058,4906.486,236.705,4906.314Zm10.739,28.143c.02.033.021.046.037.074-.055-.062-.1-.108-.155-.174a4.335,4.335,0,0,0,.238.512c-.169.082-.964-.514-.946-.246-.222-.228-.666-.723-1.02-1.113-.1-.249-.2-.487-.291-.727.12.121.237.239.385.385C245.971,4933.228,245.638,4932.439,247.444,4934.457Zm14.816,6.588c-.16-.192-.318-.381-.468-.564a4.833,4.833,0,0,0,.782-.005A.587.587,0,0,1,262.26,4941.045Zm4.519,2.36c-.192-.294-.379-.585-.559-.869l.259-.081C266.555,4942.745,266.652,4943.057,266.779,4943.4ZM241.8,4907.976a.534.534,0,0,0,.012.284c-.229-.324-.642-.865-1.348-1.754Zm206.739-194.094,1.022-.823c.815,1.369.077,1.72-1.11,1.089C448.481,4714.058,448.516,4713.971,448.542,4713.881Zm-5.069,19.557c-.032.121-.062.238-.093.345-.076-.22-.141-.422-.188-.568C443.273,4733.284,443.376,4733.362,443.473,4733.438Zm-3.461-1.712c-.018.319.032.705-.334.731C439.8,4732.2,439.905,4731.96,440.012,4731.726Zm-1.112,2.459c.263-.6.521-1.164.765-1.7l2.549,1.829-.176.441.735.447a6.871,6.871,0,0,0-.85,1.154,12.011,12.011,0,0,1-2.693-1.676C439.107,4734.508,439,4734.344,438.9,4734.186Zm2.948,2.362a4.927,4.927,0,0,0-.2.819c-.965-1.013-1.882-1.9-2.421-2.456A29.325,29.325,0,0,1,441.848,4736.548Zm-2.332-1.18a15.8,15.8,0,0,0,2.09,2.264c-.026.183-.05.39-.071.616a3.759,3.759,0,0,0-.848-.678l-.627-.623C439.463,4736.047,438.736,4734.962,439.516,4735.368Zm-1.352.54c.5.627,1.034,1.257,1.557,1.838a3.275,3.275,0,0,1-.1.355c-.6-.672-1.135-1.246-1.623-1.765C438.052,4736.192,438.1,4736.051,438.164,4735.907Zm-.74,3.842c-.141-.2-.267-.362-.395-.525a21.087,21.087,0,0,1,.631-2.016l1.475,1.765a6.8,6.8,0,0,1-1.352,1.4Zm-1.725,4.913c-.271-.342-.534-.679-.735-.964.059-.208.119-.412.179-.62.378.43.756.81,1.12,1.156Q435.972,4744.468,435.7,4744.662ZM275.158,4995.3l-.006.012,0-.018Zm-54.791-143.769-.7-.808c.11-.393.206-.789.3-1.183a17.212,17.212,0,0,0,2.557-6.532,2.249,2.249,0,0,0,.582-.4,2.54,2.54,0,0,0-.564,2.32,13.259,13.259,0,0,1,1.641-3.1l.212.435a60.044,60.044,0,0,0-3.295,8.668A1.629,1.629,0,0,1,220.367,4851.529Zm22.656-65.121c.047.063.094.139.142.2l.1-.156a9.317,9.317,0,0,1-.731,2.9,3.369,3.369,0,0,1-.917-.843Q242.32,4787.493,243.024,4786.408Zm94.458,134.611c-.086-.388-.444-.6-.314-1.192a1.992,1.992,0,0,0-.115.743,2.354,2.354,0,0,0-.283-.262c.513-1.208,1.045-2.392,1.54-3.615l-.548.433c.4-.628.783-1.269,1.148-1.933l.461-.1.137-1.012q.991-1.932,1.838-3.993.93-1.779,1.791-3.62c1.072-.957,2-1.805,2.775-2.524-1.6,2.48-3.687,4.76-4.07,7.528,1.087-.754,1.894-2.46,2.991-3.614.343-.051.717-.183,1.065-.252,0,.086-.01.168-.007.255-1.466.181-1.352,3.093-2.758,2.273-3.145,3.434-2.225,7.354-4.821,11.2C337.994,4921.5,337.744,4921.3,337.481,4921.019ZM226.416,4847.5c-1.252.266-1.561,2.018-2.779,2.491.713-.95,1.448-1.927,2.163-2.932C225.957,4847.213,226.266,4847.258,226.416,4847.5Zm12.19-51.9c-.877-1.715.2-2.265,1.336-1.551-.282.64-.592,1.281-.9,1.921A2.026,2.026,0,0,1,238.606,4795.6Zm-5.788,38.882a1.07,1.07,0,0,0,.585,1.034,1.976,1.976,0,0,0-.676.8c-.249-.253-.515-.5-.761-.731a16.984,16.984,0,0,1,1.278-2.108c.257.344.521.575.779.53-.129.487-.243.962-.322,1.4l-.007,0C233.328,4834.557,234.354,4835.242,232.818,4834.48Zm12.3-19.428a3.116,3.116,0,0,1,.241-1.432c.019.087.036.17.056.259-.076.376-.144.748-.208,1.116C245.173,4815.016,245.144,4815.033,245.114,4815.052Zm-.954.57a1.992,1.992,0,0,0,.3.234,6.834,6.834,0,0,0-.661.835A1.263,1.263,0,0,1,244.16,4815.622Zm-1.143,2.31a13.536,13.536,0,0,1-1,1.492l-.085-.561c-.029.03-.057.084-.085.118C241.936,4818.093,242.43,4817.9,243.016,4817.932Zm.225,11.119.215,1.085c-.02.022-.04.041-.061.064.044.027.061.081.1.117l.214,1.075c-.2.223-.663-.323-1.152-.942Q242.875,4829.775,243.242,4829.051Zm-1.743-11.285.235,1.366c-.62.816-1.191,2.257-2.047,3.323l-.137-.049A43.067,43.067,0,0,1,241.5,4817.766Zm-1.2-24.587-.406-.976a3.4,3.4,0,0,1,.658.359C240.467,4792.768,240.386,4792.973,240.3,4793.179Zm-13.016,51.682c.031.152.057.3.087.456l-.446.1C227.044,4845.229,227.165,4845.046,227.283,4844.861Zm119.276,59.629-.274.187a4.528,4.528,0,0,1,.661-1.548c.311-.292.638-.605.966-.918A11.911,11.911,0,0,0,346.559,4904.49Zm-101.72-120.337c.149-.024.271-.052.395-.078a17.841,17.841,0,0,1-.9,1.6.348.348,0,0,1-.436-.237l.456-.731c-.062-.036-.1-.08-.158-.117a18.465,18.465,0,0,1,1.335-1.875A1.447,1.447,0,0,1,244.838,4784.153Zm-18.152,28.068a1.986,1.986,0,0,1,.246,1.944.67.67,0,0,1-.127.018l-.628-.625.184.583a2.166,2.166,0,0,1-.283-.1,7.3,7.3,0,0,0,.454.638l.078.246-1.086-.166C225.92,4813.917,226.3,4813.073,226.686,4812.221Zm-1.252,2.729a2.144,2.144,0,0,1,.141,2.34,2.03,2.03,0,0,1-.827-.947C224.985,4815.876,225.215,4815.412,225.434,4814.949Zm-4.067,8.453c-.725.22-1.568.633-2.508.932l-.148-.4-.047-.006c.585-.864,1.153-1.508,1.847-1.253.158-.182.3-.361.448-.541A11.864,11.864,0,0,1,221.367,4823.4Zm115.484,100.273-1.264-2.244c.627,1.8-.148,2.167-.963,2.639a4.571,4.571,0,0,1,.044-1.44c.079-.219.161-.435.238-.654a8.469,8.469,0,0,1,.586-.828,5.062,5.062,0,0,1,1.589-.347,3.536,3.536,0,0,0,.315.969A16.933,16.933,0,0,1,336.851,4923.675Zm.567-2.1a.929.929,0,0,0,.068-.54.756.756,0,0,1,.071.072c-.032.17-.081.313-.116.479C337.434,4921.579,337.425,4921.579,337.418,4921.574Zm97.384-177.3c.165.176.375.38.6.593a3.7,3.7,0,0,1-.88.418C434.616,4744.948,434.705,4744.62,434.8,4744.273Zm1.023-1.028a6.675,6.675,0,0,0-.584-.495c.056-.187.111-.375.167-.561C435.537,4742.529,435.66,4742.867,435.825,4743.246ZM202.2,4846.356c.02,1.146-.573,1.268-.737,2.253l-.355-.188C201.454,4847.795,201.817,4847.117,202.2,4846.356Zm-1.188,4.127a1.027,1.027,0,0,0-.755.391.59.59,0,0,0-.376-.268c.222-.4.446-.8.675-1.2A2.63,2.63,0,0,1,201.009,4850.484Zm4.183,2.55.7.835c-.166.283-.321.571-.479.857C204.989,4854.162,204.621,4853.659,205.193,4853.034Zm10.994,1.8q.271-.347.543-.7c.8.711,1.421-.032,2.1,1.922.491-.514.68-1.271-.379-2.507.056-.078.118-.149.17-.232a6.026,6.026,0,0,1,1.628,1.324c-.034.187-.091.375-.121.56.076-.144.165-.292.247-.438a9.477,9.477,0,0,0,.957.829c-.431.878-.961,1.891-1.469,2.956-.205-.583-.326-1.115-.593-.836l.551.921a17.6,17.6,0,0,0-1.573,4.539l-.389.471C216.71,4860.427,219.326,4858.41,216.186,4854.831Zm2.794,7.051a.429.429,0,0,1,.1.274l-.716.863A1.737,1.737,0,0,1,218.981,4861.882Zm.094.316c-.011.279-.191.594-.181.864.6.44.3-1.324,1.251-1.978a4.011,4.011,0,0,0-.033.465l-.346,1.907.525-.211c.083.451.181.905.274,1.348l-.132.463.033.06-.436,2.264C219.067,4864.873,218.463,4863.151,219.075,4862.2Zm1.775,4.608a1.083,1.083,0,0,1-.55,1.013A7.15,7.15,0,0,0,220.85,4866.806Zm8.991,13.884c.108-.223.213-.449.327-.67q.473.585.956,1.141c-.151.023-.015.306.305.76l-.531.144-.134.519s.708,1.315,1.87,3.3a7.681,7.681,0,0,0-1.407-1.163c.613.666,1.132,1.308,1.62,1.93l.109-.22q.431.728.926,1.546c-.11-.141-.22-.277-.331-.42a3.665,3.665,0,0,0-.367-.473l-.337-.433-.021.044c-.293-.306-.65-.659-1.154-1.13.5.891-1.041-.382-1.641-.735C230.063,4883.576,229.852,4882.048,229.84,4880.69Zm10.324,17.122-.64-.943c-.086-.211-.059-.33.012-.412.883,1.185,1.791,2.326,2.7,3.377-.4-.332-.848-.731-1.262-1.1C240.64,4898.368,240.375,4898.066,240.164,4897.812Zm2.31,6.044c.357.415,1.592,1.7,2.151,2.515l-3.043-5.211c-1.54-2.163-1.717-1.765-2.717-2.776a6.286,6.286,0,0,1-.429-.576c.073-.049.117-.174.049-.5a1.893,1.893,0,0,1,.341.188l2.069,2.613c.279.186.355.182.319.073a5.3,5.3,0,0,0,.834.841l-2.3-2.972c.425.446,1.6,1.611,2.168,2.346l-1.186-1.749a50.194,50.194,0,0,1,3.571,5.293c.706-.048-.846-2.059-1.079-3.018.346.369.691.726,1.035,1.059-.1.439.939,1.928,2.267,3.7-.113.249-.242.491-.349.742l-1.557.985a8.744,8.744,0,0,0-1.038-1.232C244.8,4906.938,242.025,4903.781,242.475,4903.856Zm.807,4.4a.67.67,0,0,0-.234-.171l.181.205-.312.2c-.18-.175-.358-.349-.575-.57a.963.963,0,0,0-.33-.081,4.422,4.422,0,0,1-.569-2.239l.427.5c-2.045-3.74-.234-1.1-.7-3.3l2.34,3.318c-.206-.2-.439-.4-.716-.625.809.865,1.354,1.489,1.743,1.971Zm43.679,56.767c-.66-.06-1.436.223-1.856-.521a11.456,11.456,0,0,1,1.866-4.307c.073.084.141.167.213.253.39.956.764,1.873,1.128,2.764-.446-.064-.449.247-.371.664A7.867,7.867,0,0,1,286.96,4965.024Zm-13.433,32.813c.318-1.073.619-1.206.881-1.241q-.382.672-.749,1.354Zm46.981-40.388c-.2-.168-.385-.323-.554-.47.273-.229.548-.461.827-.7C321.5,4957.472,321.215,4957.773,320.508,4957.449Zm36.342-62.561c-1.527.052-1.728,3.056-3.085,2.093a10.205,10.205,0,0,0-1.966,2.513c.045-.4.076-.8.1-1.2,1.749-1.763,3.61-3.7,5.532-5.805A7.871,7.871,0,0,0,356.85,4894.888Zm77.612-148.668-.058-.073.084.06C434.48,4746.208,434.47,4746.218,434.462,4746.22Zm2.766-2.787c-.1-.12-.181-.219-.291-.349-1.087-1.854-.267-1.2.776-.3l.065.188Zm11.051-17.088c-.1.347-.225.723-.37,1.134-.039-.036-.064-.064-.107-.1Zm-.716,1.528c.046.039.1.088.145.129-.038.1-.075.2-.117.3l-.091-.286Zm-3.762-3.29c.444.581.245.706-.262.478C443.626,4724.9,443.713,4724.743,443.8,4724.583Zm-2.629,4.723c.14-.257.268-.5.417-.768a.718.718,0,0,0,.189-.337c.243-.435.489-.874.75-1.335a12.431,12.431,0,0,1,3.006,2.956,2.86,2.86,0,0,0,.375.47l.053.066c-.16.125-.319.25-.481.354-.774-.746-1.562-1.554-2.263-2.181l-.187.891a6.431,6.431,0,0,1,1.723,1.709c-.323.169-.653.331-.987.5-.869-1.083-1.4-1.92-.895-1.983-1.081-.237-.936-.015-1.114.424C441.525,4729.749,441.34,4729.511,441.171,4729.306ZM397,4680.878c-.259-.248-.545-.513-.88-.815-.126-.489.5-.038,1.217.509A1.135,1.135,0,0,1,397,4680.878Zm-22.2-28.54-.42-.59a.654.654,0,0,1,.455.265c.049-.039.083-.1.129-.146C374.908,4652.029,374.853,4652.183,374.8,4652.339Zm1.6-4.367a3,3,0,0,1-.1.558c-.208.394-.378.773-.537,1.146a4.69,4.69,0,0,0-.011-.646c-.159.747-.3.15-.516-.164.193-.364.37-.749.535-1.142l.018.009c-.044.086-.08.176-.127.259a1.506,1.506,0,0,1,.173-.231c.187.1.256.244-.153.633.658.484.353-.375.519-.874a.152.152,0,0,1,.154.081C376.372,4647.723,376.386,4647.84,376.4,4647.972Z" fill="#d4e0ff" style="mix-blend-mode: multiply;isolation: isolate"/>
      <path id="Path_119" data-name="Path 119" d="M393.49,4621.117c-.211.42-.763,1.184-.559,1.778-.111-.455.643-.672.421-1.282l.093.146Z" fill="#d4e0ff"/>
      <path id="Path_120" data-name="Path 120" d="M385.612,4618.3a2.168,2.168,0,0,0-.08-.576C385.435,4618.1,385.5,4618.235,385.612,4618.3Z" fill="#d4e0ff"/>
      <path id="Path_121" data-name="Path 121" d="M370.033,4642.536l-.244.884c.126-.134.341,0,.576.147C370.248,4643.361,370.349,4642.712,370.033,4642.536Z" fill="#d4e0ff"/>
      <path id="Path_122" data-name="Path 122" d="M369.789,4643.42a.6.6,0,0,0-.108.386Z" fill="#d4e0ff"/>
      <path id="Path_123" data-name="Path 123" d="M385.928,4615.479l.094.145.025-.61c-.193.39-.706,1.092-.491,1.67C385.437,4616.245,386.16,4616.073,385.928,4615.479Z" fill="#d4e0ff"/>
      <path id="Path_124" data-name="Path 124" d="M433.267,4689.929c.507.487.941,1.069,1.044.93Z" fill="#d4e0ff"/>
      <path id="Path_125" data-name="Path 125" d="M450.789,4702.437l-.175-3.973A19.571,19.571,0,0,0,450.789,4702.437Z" fill="#d4e0ff"/>
      <path id="Path_126" data-name="Path 126" d="M451.435,4719.339l-.189.429C451.463,4719.776,451.575,4719.682,451.435,4719.339Z" fill="#d4e0ff"/>
      <path id="Path_127" data-name="Path 127" d="M448.3,4700.613a1.28,1.28,0,0,0-.308-.271Z" fill="#d4e0ff"/>
      <path id="Path_128" data-name="Path 128" d="M448.934,4701.853l-1.554-1.487,3.1,3.411.161-1.1-2.341-2.059C448.869,4701.2,449.918,4702.515,448.934,4701.853Z" fill="#d4e0ff"/>
      <path id="Path_129" data-name="Path 129" d="M447.526,4701.231c-2.019-1.689-1.088-.187-.776.244l5.455,4.686a19.721,19.721,0,0,0-4.981-4.472C446.134,4700.183,450.332,4704.006,447.526,4701.231Z" fill="#d4e0ff"/>
      <path id="Path_130" data-name="Path 130" d="M450.327,4706.89l-.666.079A.9.9,0,0,0,450.327,4706.89Z" fill="#d4e0ff"/>
      <path id="Path_131" data-name="Path 131" d="M448.778,4706.719l.367.3.516-.05A8.265,8.265,0,0,1,448.778,4706.719Z" fill="#d4e0ff"/>
      <path id="Path_132" data-name="Path 132" d="M451.42,4706.628c1.233,1.058.614.194.306-.236C451.575,4706.4,451.1,4706.192,451.42,4706.628Z" fill="#d4e0ff"/>
      <path id="Path_133" data-name="Path 133" d="M451.964,4694.2c-.628-.409-.942-.613-1.093-.6Z" fill="#d4e0ff"/>
      <path id="Path_134" data-name="Path 134" d="M398.948,4682.469a11.4,11.4,0,0,0-.877-1.436A2.426,2.426,0,0,0,398.948,4682.469Z" fill="#d4e0ff"/>
      <path id="Path_135" data-name="Path 135" d="M396.977,4678.727a6.78,6.78,0,0,0,.558.664A8.5,8.5,0,0,1,396.977,4678.727Z" fill="#d4e0ff"/>
      <path id="Path_136" data-name="Path 136" d="M220.047,4810.1l.752-.952A1.06,1.06,0,0,0,220.047,4810.1Z" fill="#d4e0ff"/>
      <path id="Path_137" data-name="Path 137" d="M416.337,4810.191c-.868-3.037,1.587-2.521-.969-2.429C414.4,4810.066,416.137,4809.024,416.337,4810.191Z" fill="#d4e0ff"/>
      <path id="Path_138" data-name="Path 138" d="M418.577,4800.051a6.3,6.3,0,0,0-1.055,2.91C419.2,4802.215,418.381,4801.256,418.577,4800.051Z" fill="#d4e0ff"/>
    </g>
  </g>
</svg>
