<svg xmlns="http://www.w3.org/2000/svg" xmlns:xlink="http://www.w3.org/1999/xlink" width="291" height="258" viewBox="0 0 291 258">
  <defs>
    <clipPath id="clip-path">
      <rect id="crop" width="258" height="291" transform="translate(397.774)" fill="none"/>
    </clipPath>
  </defs>
  <g id="Vector_Smart_Object" data-name="Vector Smart Object" transform="translate(0 655.774) rotate(-90)" clip-path="url(#clip-path)">
    <g id="Group_2" data-name="Group 2" opacity="0.36" style="mix-blend-mode: multiply;isolation: isolate">
      <path id="Path_56" data-name="Path 56" d="M403.993,22.517c-1.454-4.286-3.856.311-6.219-.468C404.74,23.4,398.146,27.957,403.993,22.517Z" fill="#fec4cf"/>
      <path id="Path_57" data-name="Path 57" d="M406.83,31.54c-2.6,4.462.871,3.391,2.409,4.728A5.928,5.928,0,0,0,406.83,31.54Z" fill="#fec4cf"/>
      <path id="Path_58" data-name="Path 58" d="M622.9,71.13a9.41,9.41,0,0,0,.724,4.29,10.03,10.03,0,0,0,2.672,3.418c-.36-3.331-.868-6.634-1.517-9.846A16.111,16.111,0,0,1,622.9,71.13Z" fill="#ccd8ff"/>
      <path id="Path_59" data-name="Path 59" d="M648.211,123.936l-3.078-3.214a6.516,6.516,0,0,0-1,1.329,6.552,6.552,0,0,0-1.958-3.089l1.574.331c-.807-1.42-1.637-2.812-2.481-4.19a9.688,9.688,0,0,0-.429-3.78,15.485,15.485,0,0,1,3.277.77c-.352-5.574-.472-9.746,1.774-12.864-5.038-1.881-6.258-7.377-6.814-11.542a76.632,76.632,0,0,0,.717-7.761,62.191,62.191,0,0,0-.284-8.007,65.249,65.249,0,0,0-1.717-9.676,2.47,2.47,0,0,0,.261.1l-.382-.573c-.428-1.631-.895-3.23-1.433-4.757,1.7-2.024,2.655-5.617,5.147-4.565.932-7.238-3.271-11.924-6.406-15.646-.645,1.365-.921,2.7-2.451,3.691-2.033-1.615.993-3.576,2.577-5.451-1.943-.658-5.511,2.131-8.657,3.469-.092-.412-.177-.832-.272-1.244,1.593-5.017.071-4.719,3.858-11.4L626,29.259c2.71-5-3.551-.555-1.785-5.069.843-.834,2.127-.635,3.272-.562-1.9-1.29,2.914-4.885.772-5.974l4.994-1.722c-.61-1.74-2.7-3.444,1.411-5.552-5.458.407-5.163-7.166-9.017-9.253l3.526-2.809c-2.414.714-2.94-1.412-3.613-3.462s-1.465-3.982-4.213-2.463L622.6-9.352c-1.967.025-3.974.119-5.922.317-.287-2.393,4.817-7.37,3.41-5.961-2.462-3.586-4.123-6.612-3.8-11.741-4.4,4.99-7.351,2.293-9.552-.005A34.02,34.02,0,0,0,600.179-39a19.763,19.763,0,0,0-5.429-4.35,47.291,47.291,0,0,1,2.432-5.035c-1.275,1.53-2.586,2.928-3.915,4.292a14.16,14.16,0,0,0-2.163-.716c-.068-.016-.137-.013-.205-.029a5.625,5.625,0,0,0,.81-1.769c-.264-1.1-1.183.022-2.026,1.6a12.778,12.778,0,0,0-2.289-.078c-.618-.691-1.242-1.364-1.87-2.031a13.625,13.625,0,0,0,1.395-.893,3.3,3.3,0,0,1-.832-1.436,11.943,11.943,0,0,1-.438-2.047c-.225-1.539-.4-3.395-.762-5-.692-3.192-2.209-5.451-5.436-.575.626-3.062-.013-3.241-.5-3.487s-.829-.682.208-4.758c-.9-3.472-2.647-2.518-4.3-.449-1.618,1.98-3.158,4.9-4.463,5.572-.258-.174-.509-.374-.768-.546.024-1.97.66-5.616,1.028-9.213.421-.459.849-.859,1.285-1.268a18.247,18.247,0,0,1,2.085-1.613c-.357-1.44-.739-2.935-1.179-4.286.682-1.7,1.412-1.554,2.153-1.885.747-.362,1.518-1.143,2.353-4.558a8.575,8.575,0,0,1-2.072,2.163,5.081,5.081,0,0,1-1.884.691c-2.485.5-5.128-.492-7.049,7.157.89,1.819,2.328-.544,3.49.3.227,2.821.709,5.024.087,9.175-.433,1.087-.816,1.986-1.176,2.8A66.564,66.564,0,0,0,554.381-68.3l-.15-3.84a31.541,31.541,0,0,1-.059,3.773c-.289-.1-.579-.186-.869-.28-.7-2.1-1.614-6.571-2.172-8.424.165,1.678.784,5.343.995,8.045-.426-.127-.845-.286-1.272-.4-.1-.834-.193-1.635-.319-2.232.063.635.12,1.4.165,2.2-.295-.08-.594-.128-.89-.2-.028-.942-.078-1.944-.208-3.1-.6.494-1.015,1.478-1.9-1.516a11.076,11.076,0,0,0,.032,4.14c-.35-.076-.694-.172-1.045-.241-.581-4.435-.967-10.352-2.007-15.071.6-6.075,2.132-8.591,2.486-11.931l-2.221,4.266c-.431-4.612-2.833-7-2.01-12-3.253-3-5.819,3.563-7.76,8.451a12.855,12.855,0,0,1,1.555,4.943c-.877,3.293-1.6-2.366-2.375-5.467-.479,3.585.852,11.238,1.2,17.268-2.971-5.46-2.583-1.389-5.821-9.817l1.411,7.614c-2.227-5.516-.387,6.16-2.411,2.369a25.4,25.4,0,0,1-.154-5.833c-.666,3.151-2.178-5.865-2.745-2.264l-.653-9.023c-.843.8-1.655,4.239-2.531-3.3.044,9.632-3.294,7.876-4.213,14.094l-1.181-6.621c.605,8.527-3.726,2.062-2.587,12.061l-.7-2.545-.032,10.061c-1.02-.157-2.876-10.09-2.349-7.341-1.54,3.058-2.873,4.729-4.873,2.322a38.253,38.253,0,0,1,.758,7.07c-.022-.063-.041-.1-.064-.166a49.092,49.092,0,0,0-1.125-8.887c-1.385.613-1.389,3.315-.859,6.824.106,2.436.221,4.872.362,7.3a72.927,72.927,0,0,1-3.84-13.606l1.213,7.733c-.547-2.366-1.471-1.68-2.323-2.093s-1.753-1.9-2.389-8.739c.015,1.915.544,5.976-.207,5.484l-1.628-7.457c-.5,2.537-1.018,4.6-2.2.617a61.323,61.323,0,0,0-1.124-8.851c-2.048.761-.648,6.867.746,13.194,1.413,6.326,2.962,12.839,2.035,14.056l-1.2-4.726.783,5.446-.582-1.465c-.162-1.63-.449-3.366-.732-5.107-2.56,1.988-2.954,5.095-2.476,8.584-.461.085-.714.763-.479,2.749l-.3.657c-.947-1.156-3.4-6.321-3.867-4.628l2.415,6.722c-3.051-6.138-7.333-7.3-14.143-21.159,1.265,6.026.631,1.248,2.671,6.415,1.343,8.593-2.895-1.405-5.308-4.04.459,4.391,1.725,1.456,3.288,6.9-3.438-2.926,2.365,9.211-1.006,7.354-1.76-3.21-.723-3-1.613-5.549.889,4,.421,5.757-.418,7.028s-1.985,2.156-2.434,4.04c-1.97-.577-3.809-.018-5.766.622a17.68,17.68,0,0,1-6.573,1.136l1.2,1.941c-4-2.979-1.908,3.313-4.23,3.42l2.308,1.546c1.66,4.442-.06,3.259.376,5.827l-4.064-4.19c.658,3.06,2.944,4.776,4.516,8.289-2.934-1.785-1.668,3.787-2.059,4.149-1.962-1.673-2.3-3.453-3.31-4.97.683,3.3,4.481,7.477,3.808,9.551l-1.088-1.161a34.226,34.226,0,0,1,2.151,11.483c-3.148,3.143-6.41,6.751-9.979,9.188l1.268,1.8c-4.706-.608-3,7.171-5.891,9.607l2.688.139c1.533,5.3-.469,5.165-.237,8.779L441.254,8.1c.493,4.149,3.092,4.634,4.652,8.654-1.634.013-2.24,1.836-2.488,3.8a6.163,6.163,0,0,0-2.227-1.17c-1.588-7.3-.479-14.753-1.027-19.082-.583,3.823-1.038,7.621-1.421,11.369-2.12-2.805-5.852,3.415-6.619-4.049-2.519,4.348-3.814,10.454-4.369,16.671a137.689,137.689,0,0,0-.173,18.039c1.067-.951,1.89-2.449,3.4-1.313.652,5.74-2.328,3.588-4.3,3.749,1.152,4.621,5.535,6.22,8.416,9.864a24.557,24.557,0,0,0-3.753,6.576c-.791,1.785-1.765,3.319-4.791,5.664l4.412,1.116c-3.971,3.422,2.536,6.156-.436,10.258-.967.02-1.941-2.185-2.823-4.031,1.073,4.822-4.066,3.105-2.7,7.972-1.569-1.563-3.093-3.141-4.636-4.775-.148,3.673,1.078,9.37-3.024,6.6,2.3,3.771,2.854,8.3,3.169,12.978s.476,9.564,1.908,13.582l-3.844-.593c2.318,2.161,2.283,5.976,2.4,9.775.153,3.793.428,7.554,3.323,8.943l-1.533.841q2.755,3.768,5.616,7.158c-.2,3.686-6.03,3.943-4.416,3.823,1.7,7.99,2.693,14.069,1.542,20.227,4.818-.828,7.291,5.451,9.162,10.985-.128,1.479-.273,2.886-.459,4.122a16.475,16.475,0,0,0-1.72.635c-.12.051-.246.127-.368.181l.736-4.248-1.385.072a14.508,14.508,0,0,0-.541,4.764,22.7,22.7,0,0,0-2.857,1.758c2.376,1.743,4.407,7.261,6.958,11.613,1.34,2.17,2.827,3.988,4.536,4.65.07.226.127.465.2.689a94.068,94.068,0,0,0,7.217,16.738c.065.756.15,1.523.245,2.281-1.852.461-3.7.944-5.531,1.429-1.949-.631-6.235,7.8-9.505,10.734,2.663,3.841,3.718-.458,6.679,1.148,1.865,3.483,1.294,13.118,2.484,19.864l.094-8.092c4-4.691,1.581,5.16,5.123-1.51l-1.773,12.287c1.743-5.948,3.264.159,3.807,3.758l1.888-8.225c1.418,5.563,2.533,7.932,2.285,15.984l.685-7.945c.211,5.274,7.962,1.868,4.177,14.514.793-1.611,1.738-5.532,2.978-4.23l-.527,7.961c2.141-1.461,4.414-2.358,4.619,2.25-1.213,1.6-1.866,4.966-2.519,8.345,4.18,1.877,5.12-4.639,5.927-11.287.813-6.686,1.525-13.662,5.062-13.206l-.411,5.147,2.14-5.149,1.523,6.865c1.777-8.631,4.178-7.7,6.827-6,2.5,1.675,5.236,4.312,7.424.6.98.931,1.961,1.863,2.96,2.736,1.208,2.559,2.644,5.476,4.442,4.8l-.027-1.181c.565.432,1.143.814,1.713,1.228a6.265,6.265,0,0,0-.664.8c.432-.1.865-.23,1.3-.347q2.011,1.427,4.064,2.7c.518,3.152,1.6,6.176-.6,8.719a7.6,7.6,0,0,0,7.466,3.1,49.2,49.2,0,0,1,2.15,8.093c2.389-6.5-.331-1.646-.469-7.987.107-.2.2-.342.3-.525a21.955,21.955,0,0,0,3.947-1.57c1.452,2.228,2.44,7.525,4.145,9.978,2.911-4.534-2.53-2.61-1.148-8.924,2.466,2.57,3.319.047,4.235-2.655,1.383.295,2.774.532,4.174.722a4.323,4.323,0,0,0-.793,2.082,13.65,13.65,0,0,1,1.008-2.053,55,55,0,0,0,7.19.528c1.069,0,2.126-.085,3.187-.147l-1.213,6.115c1.782-.222,4.382-3.1,3.508,4.572,1.56-4.672,3.666-6.082,5.886-7.171,2.218-1.161,4.543-1.753,6.347-4.708l.067,6.972c.824-4.379,2.661-4.606,4.473-5.046,1.8-.4,3.587-1.295,4.041-6.478l.518,2.724c.341-1.094.669-2.176,1-3.261.469,0,.934-.02,1.4,0,.3,1.082.479.85.611.038.707.033,1.414.094,2.12.161.1,1.022.116,1.456.066.534.208-.17.4-.32.608-.483.115.013.231.013.347.027a34.05,34.05,0,0,1,3.593.452l-.357-2.85c2.354,2.5,4.181,1.5,5.957-.018,1.774-1.592,3.48-3.834,5.8-3.677l-2.789-2.6c1.515-6.556,3.6-4.493,5.511-8.352l3.185,6.618c1.75-4.1.069-6.753.225-11.078.655-.389,1.311-.772,1.955-1.228,1.425-.148,2.788-1.675,3.926-3.3q1.539-1.465,3.011-3.165c1.173,2.528.112,5.147.313,7.4,1.248-2.971,1.112-6.328,1.328-9.372a62.138,62.138,0,0,0,4.28-6.2c1.484-2.574,2.884-5.16,4.239-7.929a76.95,76.95,0,0,0,3.756-9.367q.875-2.659,1.559-5.391c1.877-3.4,3.756-6.864,5.527-10.4a81.913,81.913,0,0,0,4.817-12.7c-.705.524-1.217-1-2.045-1.939.823-1.657,1.627-3.427,2.423-5.243,1.587.646,3.172.821,4,4.265a8.14,8.14,0,0,0,2.591-4.8,49.537,49.537,0,0,1,3.391,6.308,43.453,43.453,0,0,0-2.846-9.85c.091-1.018.145-2.073.171-3.147.611.79,1.2,1.445,1.819,1.537.551-1.121-.563-2.253-1.8-3.051.006-2-.057-4.006-.115-5.869a9.086,9.086,0,0,1-1.475-.047c.135-.438.269-.875.4-1.318.471.544.95,1.1,1.468,1.691a6.753,6.753,0,0,1,.048-1.568c.148.1.294.2.433.288a8.474,8.474,0,0,0-.343-.937c.416-2.217,1.5-4.791,1.963-7.811a11.71,11.71,0,0,0-.5-6.554c.055-.553.108-1.105.151-1.664.615.966,1.254,1.208,2.039-.394a3.065,3.065,0,0,1-2.008-.1c.066-.915.137-1.832.173-2.753,0-.054,0-.11,0-.165,1.1.072,2.482.57,1.931-1.666l4.01,5.739c.358-2.219-.3-6.361,3.319-2.226a18.366,18.366,0,0,1-1.877-9.79c.132-3,.515-6-.442-9.289l3.584,2.568c-1.971-2.653-1.486-4.883-1.139-7.216.079-.617.147-1.239.165-1.861a2.9,2.9,0,0,1,.227,1.845ZM594.862-44.943c-.089.523-.214,1-.34,1.47-.317-.165-.629-.365-.95-.5C594-44.3,594.436-44.6,594.862-44.943ZM434.277,175.826l.79-2.943.046.137c.081.843.209,1.669.31,2.507C435.043,175.615,434.664,175.7,434.277,175.826Zm13.61,38.472c.089.154.172.318.262.47-.128.031-.255.058-.384.089Zm185.766-29.261a4,4,0,0,1-1.771-1.682,25.728,25.728,0,0,0,.525-3.445A33.4,33.4,0,0,1,633.653,185.037Zm5.72-72.953a1.068,1.068,0,0,1,.793-.687,23.477,23.477,0,0,1,.981,3.516C640.563,113.96,639.975,113.011,639.373,112.085Z" fill="#fcc1cd"/>
      <path id="Path_60" data-name="Path 60" d="M554.951,166.329c.633-12.358,1.626.056.373-11.1C554.076,157.359,555.258,162.179,554.951,166.329Z" fill="#fec4cf"/>
      <path id="Path_61" data-name="Path 61" d="M400.121,54.822l4.419-6.458-2.384-2.731C400.384,46.283,400.2,50.846,400.121,54.822Z" fill="#fec4cf"/>
      <path id="Path_62" data-name="Path 62" d="M414.006,42.822c-4.036-2.38-5.366,8.166-7.876,12.117,2-1.516,4.025-3.158,6.015-4.813l-3.51,1.579C408.471,44.7,412.617,43.437,414.006,42.822Z" fill="#fec4cf"/>
      <path id="Path_63" data-name="Path 63" d="M413.818,55.2c1.374,2.764,3.112-3.357,3.15-5.97C415.923,51.441,413.841,52.579,413.818,55.2Z" fill="#fec4cf"/>
      <path id="Path_64" data-name="Path 64" d="M526.17,169.4c1.115-1.049,2.232-2.219,3.331-3.326l-.464-1.1C528.2,168.543,527.049,167.035,526.17,169.4Z" fill="#ccd8ff"/>
      <path id="Path_65" data-name="Path 65" d="M563.622,188.041c.164-12.591,2.736-.792-.193-11.206C561.512,179.586,563.831,183.764,563.622,188.041Z" fill="#fec4cf"/>
      <path id="Path_66" data-name="Path 66" d="M567.5,171.721c2.245,4.681,1.549-1.537,2.106-4.29C568.374,167.572,567.943,169.644,567.5,171.721Z" fill="#fec4cf"/>
      <path id="Path_67" data-name="Path 67" d="M633.054,33.142c1.559,2.451.443,3.093,1.41,5.12l-.721-5.187Z" fill="#ccd8ff"/>
    </g>
  </g>
</svg>
