<svg xmlns="http://www.w3.org/2000/svg" xmlns:xlink="http://www.w3.org/1999/xlink" width="366.471" height="344.835" viewBox="0 0 366.471 344.835">
  <defs>
    <clipPath id="clip-path">
      <rect id="crop" width="323" height="183" transform="translate(-166.471 1185.379) rotate(-38.726)" fill="none"/>
    </clipPath>
  </defs>
  <g id="Vector_Smart_Object" data-name="Vector Smart Object" transform="translate(166.471 -983.31)" clip-path="url(#clip-path)">
    <g id="Group_44" data-name="Group 44">
      <path id="Path_171" data-name="Path 171" d="M-80.411,1140.827a.325.325,0,0,0-.13-.116l-.1.689.011-.008A5.885,5.885,0,0,0-80.411,1140.827Z" fill="#cae5d6"/>
      <path id="Path_172" data-name="Path 172" d="M-70.369,1127.2l-1.68,2.24c.01-.545-1.011.293-.874-.426-.128.171-.832.85-.455.877l.451-.333c-.343,1.8.723,1.691-.612,3.769,1.76-.235,1.829-1.131,2.091-2.02a5.616,5.616,0,0,1,.48-.534l.7-2.655Z" fill="#cae5d6"/>
      <path id="Path_173" data-name="Path 173" d="M-21.3,1101.162l.076,0,.063-.139Z" fill="#cae5d6"/>
      <path id="Path_174" data-name="Path 174" d="M-42.05,1112.533c-.108.117-.212.216-.32.352A1.023,1.023,0,0,0-42.05,1112.533Z" fill="#cae5d6"/>
      <path id="Path_175" data-name="Path 175" d="M-62.336,1125.906l-.69.7A2.081,2.081,0,0,0-62.336,1125.906Z" fill="#cae5d6"/>
      <path id="Path_176" data-name="Path 176" d="M-54.656,1119.8a.476.476,0,0,0-.131-.081C-54.893,1119.849-54.794,1119.844-54.656,1119.8Z" fill="#cae5d6"/>
      <path id="Path_177" data-name="Path 177" d="M-24.468,1103.3c1.71-.63.786-1.442,1.588-2.142-1.732.992-2.276.936-4.281,2.224C-25.3,1102.8-24.776,1102.706-24.468,1103.3Z" fill="#cae5d6"/>
      <path id="Path_178" data-name="Path 178" d="M-22.88,1101.16l.6-.354A2.183,2.183,0,0,0-22.88,1101.16Z" fill="#cae5d6"/>
      <path id="Path_179" data-name="Path 179" d="M-28.646,1104.034c-.314-.6-1.53.459-1.2.336A2.709,2.709,0,0,1-28.646,1104.034Z" fill="#cae5d6"/>
      <path id="Path_180" data-name="Path 180" d="M-52.433,1116.949l.509-.843-1.1.468C-52.621,1116.551-52.587,1117.552-52.433,1116.949Z" fill="#cae5d6"/>
      <path id="Path_181" data-name="Path 181" d="M-57.172,1121.623l.2.021,1.183-.951Z" fill="#cae5d6"/>
      <path id="Path_182" data-name="Path 182" d="M-64.433,1123.753l-.373-.036-.8,1.015.377.033Z" fill="#cae5d6"/>
      <path id="Path_183" data-name="Path 183" d="M-106.871,1161.1l-.18.342A1.109,1.109,0,0,0-106.871,1161.1Z" fill="#cae5d6"/>
      <path id="Path_184" data-name="Path 184" d="M-97.853,1148.774l1.96-1.65c-1.058.179,0-.921-.149-1.288l-2.466,1.97C-98.219,1148.069-98.156,1148.566-97.853,1148.774Z" fill="#cae5d6"/>
      <path id="Path_185" data-name="Path 185" d="M-99.737,1147.873a1.68,1.68,0,0,1-.095,1.04c.441-.37.87-.753,1.324-1.107C-98.719,1147.614-99.071,1147.536-99.737,1147.873Z" fill="#cae5d6"/>
      <path id="Path_186" data-name="Path 186" d="M-139.509,1194.414l.141.629.727-.837Z" fill="#cae5d6"/>
      <path id="Path_187" data-name="Path 187" d="M-139.125,1196.114l-.242-1.071-.724.831A2.53,2.53,0,0,0-139.125,1196.114Z" fill="#cae5d6"/>
      <path id="Path_188" data-name="Path 188" d="M-141.185,1197.136l-.8.925c.328-.321.635-.6.95-.874Z" fill="#cae5d6"/>
      <path id="Path_189" data-name="Path 189" d="M-142.393,1196.728l1.208.408,1.093-1.262A1.515,1.515,0,0,0-142.393,1196.728Z" fill="#cae5d6"/>
      <path id="Path_190" data-name="Path 190" d="M-49.741,1312.26c-.034-.01-.03.031-.055.039l.973,2.51Z" fill="#cae5d6"/>
      <path id="Path_191" data-name="Path 191" d="M-139.306,1186.068c.482.366.879.62,1.236.844C-138.858,1186.164-139.536,1185.642-139.306,1186.068Z" fill="#cae5d6"/>
      <path id="Path_192" data-name="Path 192" d="M-149.533,1199.175c-.094-.075-.178-.148-.278-.227A2.619,2.619,0,0,0-149.533,1199.175Z" fill="#cae5d6"/>
      <path id="Path_193" data-name="Path 193" d="M-140.015,1194.147l2.261-.492C-139.734,1193.846-140.475,1191.8-140.015,1194.147Z" fill="#cae5d6"/>
      <path id="Path_194" data-name="Path 194" d="M16.93,1069.372l-2.233-2.561A13.419,13.419,0,0,0,16.93,1069.372Z" fill="#cae5d6"/>
      <path id="Path_195" data-name="Path 195" d="M27.733,1075.513a3.446,3.446,0,0,1-1.1-.087C27.294,1075.682,27.617,1075.766,27.733,1075.513Z" fill="#cae5d6"/>
      <path id="Path_196" data-name="Path 196" d="M14.7,1071.3l-.441.6C14.56,1071.906,14.693,1071.668,14.7,1071.3Z" fill="#cae5d6"/>
      <path id="Path_197" data-name="Path 197" d="M12.87,1075.74l1.2.592-.087-.175C13.3,1075.468,12.936,1075.319,12.87,1075.74Z" fill="#cae5d6"/>
      <path id="Path_198" data-name="Path 198" d="M27.733,1075.513a1.176,1.176,0,0,0,.138,0c-.023-.017-.034-.044-.056-.06C27.8,1075.5,27.752,1075.475,27.733,1075.513Z" fill="#cae5d6"/>
      <path id="Path_199" data-name="Path 199" d="M38.888,1060.542a2.935,2.935,0,0,0-.633-1.445A4.144,4.144,0,0,0,38.888,1060.542Z" fill="#cae5d6"/>
      <path id="Path_200" data-name="Path 200" d="M33.977,1058.652l.259.194c.041,0,.064-.041.112-.038Z" fill="#cae5d6"/>
      <path id="Path_201" data-name="Path 201" d="M-13.74,1087.725c.051-.417.57-1.525-.553-1.923l-1.272.859C-14.538,1087.877-14.119,1087.595-13.74,1087.725Z" fill="#cae5d6"/>
      <path id="Path_202" data-name="Path 202" d="M-4.809,1087.867c-1.125-.407,2.023,2.451.811,2.88l2.553,1.351Z" fill="#cae5d6"/>
      <path id="Path_203" data-name="Path 203" d="M-6.83,1079.319l4.517,4.242C-1.947,1083.7-4.966,1079.988-6.83,1079.319Z" fill="#cae5d6"/>
      <path id="Path_204" data-name="Path 204" d="M.508,1077.206l-3.091-.264,1.793,1.089Z" fill="#cae5d6"/>
      <path id="Path_205" data-name="Path 205" d="M5.329,1076.375l.617,1.1,1.673-.681Z" fill="#cae5d6"/>
      <path id="Path_206" data-name="Path 206" d="M67.175,1052.777c.337,2.989-.543,2.7-1.442,2.429-.881-.284-1.738-.54-.755,2.335C65.321,1056.079,69.022,1057.214,67.175,1052.777Z" fill="#cae5d6"/>
      <path id="Path_207" data-name="Path 207" d="M-111.56,1169.008l1.555-1.427-3.71.8Z" fill="#cae5d6"/>
      <path id="Path_208" data-name="Path 208" d="M173.273,1168.4c2.793.32,3.185-.2,3.761-.635C174.332,1167.6,173.1,1167.762,173.273,1168.4Z" fill="#cae5d6"/>
      <path id="Path_209" data-name="Path 209" d="M177.1,1167.769l-.035-.017c0,.007-.016.01-.026.014Z" fill="#cae5d6"/>
      <path id="Path_210" data-name="Path 210" d="M178.45,1119.291c-2.357-.24.423-1.124-1.917-.96,5.57-1.422.867-1.723,6.383-3.493l-3.252.514,1.828-.776c-4.381-2.213-1.792-.3-2.1-3.117-1.117-1.4-5.723-.9-4.48-2.155a4.632,4.632,0,0,1-2.692.842c2.689-.849-2.367-.419.293-1.4-.5-.265-.662-1.548-4.168-.011,1.766-.761,2.026-2.041,3.907-1.924-.063-.386.306-.9-.626-.9l-.8.78c-1.1-.992,1.382-2.6-2.273-2.238l-1.224.925c-.572-.611-1.122-1.075,2.288-2.633l1.463.338c-.688-1.147-1.293-1.785-3.661-2.033l.081.38c-2.043.041-4.723-1.165-7.415-2.214s-5.477-1.918-7.9-1.379l-2.3,1.686-2.7.253a1.574,1.574,0,0,0,.378-.127l.971-.4,2.884-1.22c1.694-.717,3.3-1.386,3.607-1.468-.785-.869-3.085-3.462-5.462-5.938a41.775,41.775,0,0,1-3.112-3.666,4.862,4.862,0,0,1-1.354-2.709c.729-1.513,3.563-2.646,3.941-2.883-1.559-.2-2.74,1.354-3.126.554a6.036,6.036,0,0,1,2.244-1.357c-.531-.1.016-.943-1.068-.2-.5.957-3.468,2.814-5.177,4.269l-.47-.986,1.8-1.249c-.122-.227-5.231,3.056-4.99,1.611-.479-1.837-2.432-2.735-3.3-4.308a6.266,6.266,0,0,1,2.735-1.262c-.123-.218-.643-.266-.088-1.03-1.448,1.793-1.713.451-2.208,1.319-4.808,2.458-3.106-1.793-6.285-.611a48.946,48.946,0,0,0-14.981-7.005c.4-2.071.739-4.256-1.152-4.8-.948,1.338-.935,2.048-1.9,3.025-2.421.163,4.711-7.078.095-6.477l-.838,1.743c-1.509.253-.239-2.209.223-2.543-2.491,2.722-3.6,1.746-5.146.854a6.878,6.878,0,0,0-1.289-.6,4.236,4.236,0,0,0-1.706-.281c-1.2.083-2.611.752-4.262,2.527a9.127,9.127,0,0,0-.764-6.066c-.884-1.615-2.192-2.576-3.2-1.8a4.984,4.984,0,0,0-1.548,4.338,12.089,12.089,0,0,1,.014,1.8l-.061-.006c-.587-.01-1.165.013-1.685,0-.243-.937-.651-1.693-1.687-1.4.487-2,1.983-3.64,3.1-5.172,1.079-1.514,1.771-3.082-.155-5.1l-1.166,1.9c.5-.113,1.348-.673,1.824.1.488,2.832-1.511,2.338-2.037,3.323-1.276-.99-2.634-1.88-4.039-2.763.283-4.53,3-2.54,3.528-3.522-2.045-.237-4.436.965-6.465,1.911-2.066.939-3.781,1.578-5.513-.074l.414,1.724c-2.182-2.071-2.626-.019-2.82,1.652-.262,1.656-.271,2.873-2.471-.72-1.285,1.329,1.492,4.792-.531,5.375-.571.11-.686-1.666-.717-2.262-1.575-.626-1.564.536-1.578,1.337-.039.81-.061,1.268-1.985-.53.756,1.557,1.48,3.1,2.19,4.68-1.788-1.381-4.323-3.866-6.841-5.561-2.488-1.709-4.922-2.592-5.615-1.065,2.325,3.365,3.61,2.427,5.641,4.9a6.9,6.9,0,0,0-4.2-1.786,4.845,4.845,0,0,0-2.764.829c-1.52.94-2.646,2.206-5.015,1.193-1.319-3.21-5.905-6.037-6.044-9.183,3.522,4.128,2.184.925,3.4.977-8.159-8.743-2.366,7.4-8.674-.547l2.062,3.515c-.731-.306-3.511-2.344-3.616-3.723L38,1056.335c2.788,2.035,8.971,6.833,6.976,2.917,3.327,3.163.613,2.9,4.23,6.621-5.807-4.647.617,2.9-2.091,2.622-2.688-5.243-6.6-5.591-8.226-7.954.052,1.2-2.93-.339-4.653-1.7-1.408.1-.976,5.247-3.917,4.478a21.069,21.069,0,0,1,6.454,5.7c-2.122-1.3-3.009-.78-.51,2.852,7.769,4.941-5.128-8.649.674-5.85,3.654,3.693,5.114,4.3,7.375,4.8a17.1,17.1,0,0,0,1.992,3.557,4.432,4.432,0,0,1-1.069.418c-2-1.261-2.733-.587-3.414.218a3.76,3.76,0,0,0-.556.161,3.618,3.618,0,0,1-1.026,1.07,3.378,3.378,0,0,1-2.278-.624c-2.787-2.006-6.1-7.723-8.9-7.538l-.145-3.558c-.221,3.414-2.352-2.262-4.713-2.328l2.732,2.41c-.6,1.077-1.335.783-3.406-.921l4.071,3.81c-.144.813-.727,1.9-2.648-.615a26.288,26.288,0,0,0,1.776,2.693c-.643-.654-1.239-.968-1.766-.491.74.29.8-.124,1.768,1.135-3.165.288,2.94,4.91,1.147,5.3a4.021,4.021,0,0,1,1.368,3.119c-5.073-6.721-8.678-5.991-12.308-9.264l.085.092-4.077-1.572c.827.316,1.795,2.381,1.759,3.408l.07-.085c.168,1.387,6.358,6.822,2.973,5.952l-2.523-1.41c.364.139.983,1.25,1.284,1.808l-2.432-1.234c3.294,7.087-5.695-1.836-5.148,2.255.114-.829,1.294-.816,2.533,1.394.24.958-.867.537-1.917-.286l.676.687L3.484,1078.3c2.057,2.064,4.141,1.112,5.27,4.135,1.878,3.311-1.657.685-2.463.82-1.309-1.787-1.384-4-3.3-4.262.54.941.872,3.386,2.392,4.332-2.609-1.087-5.2-1.162-8.754-3.617.274.96,1.387,1.367,1.755,1.5l-.315-.547c1.495.543,3.7,4.4,3.658,1.773,4.7,5.645-.756,2.757-1.341,4.283l4.841,2.6a46.852,46.852,0,0,0-4.963,1.4l.836.733c-.319.148-.638.3-.957.446-.1-.425-.209-.972-1.2-.549l-.32,1.2-.19-.038-.107.231c-.677.319-1.354.649-2.033.975a.413.413,0,0,0-.01-.195l-.656.515q-.874.422-1.748.85c-.007-.042-.014-.087-.018-.127a.667.667,0,0,0-.013-.309c.03-1.382,1.266-.956-2-4.751-3.767-.907-2.7-.094-5.454.231l.366.128c.84,2.89-4.2-.587-1.58,3.779,2.47,2.152-.435-3.182,3.681,1.714l-2.83,1.166c.129.1.245.17.363.248-.3.2-.587.4-.852.587a6.934,6.934,0,0,1,.386,1.365c-.7.365-1.4.729-2.1,1.1q-.373-.349-.729-.666a.825.825,0,0,0,.191-.422l-.379.254c-1.635-1.435-2.963-2.252-3.567-1.315l2.131,1.687c-.432.307-.849.717-1.3,1.048-1.569-1.428-3.318-3.087-3.3-1.4.667.317,1.517.752,2.448,1.243a2.1,2.1,0,0,0-.486.567l.529-.543c.189.1.372.195.567.3a2.158,2.158,0,0,1-1.159.382,4.434,4.434,0,0,1-2.89,2.926l-.041-.19a1.408,1.408,0,0,1-.411.727c-.309.174-.617.351-.926.526-1.421.474-3.49.314-3.934,1.1.135.6.528.692,1.026.57q-.764.444-1.529.891c-.609-.437.136-1.766.528-2.182l-3.414.155c-2.965,2.071-5.4,2.568-8.448,5.011l-.138-.562c-6.514,1.623-2.884,4.61-7.442,7.274-1-1.032-2,1.37-2.678.2,1.448-.72.836-.978.034-1.262-.51.84-.4,1.937-2.277,2.425.127-.888-1.615-.566-.26-1.657-2.309.963-3.36,1.781-3.646,3.371-2.633,2.971-1.991-.577-4.923,2l.159-.705q-.995.7-1.966,1.436l1.131.107-1.913,2.183c-1,1.541,1.187.294,1.358.854l-.154-1.1c1.143-.438,1.972-2,2.651-1.554-1.536,1.1-.618,1.5-1,2.21l1.274-1.279,1,.289c1.563-.908,2.859-1.489,3.237-2.711-.887.083-.57,1.2-1.511,1.1-.054-1.448,1.792-2.693,3.393-4.147.242.208.9-.067.805.282.036.115-.3.292-.518.362.5.366-.321,1.256,1.666.5-.045.608-.178,1.5-.24,2.2q-1.668,1.144-3.33,2.309-3.063,2.149-6.04,4.331c-.787-.252-1.462-.351-.446-1.992-.06.079-.839.8-2.092,1.932l-.038-.164a.484.484,0,0,0,.006-.339c.322-.151.454-.32.7-.115.11-1.438-1.355-.859-2.772-.078l.28.9c-1.511.331-2.743.162-4.008,1.482l-1.28,4.965-.9.854c-.832-.106-2.087,1.282-2.209.052-.44-.206-.076-.739.743-1.047.18.016.059.183.247.2-.185-.553-.568-1.131-1.812-1.026.929-.488,1.124-.465,1.443-1.168l-.949.475c1.139-1,2.232-3.283,1.676-3.87.362,1.119-1.205.82-2.035,1.129.384-.518,1.1-1.74.144-1.263-.007.548-1.924,2.59.041,1.819-.51.691-1.086,1.73-2.08,2.047.55-1.062-.318-.927-.572-1.677a2.359,2.359,0,0,0,.318,2.032c-2.987.929-5.341.088-7.451,2.54-.252.349,1.367-1.391,1.632-.655-1.05,2.3-3.437.8-4.723,2.415l1.342.583a21.045,21.045,0,0,1-1.993,2.144c-.453-.194-2.822.481-1.795-.775-3.365,1.56-.56,3.854-4,6.029a13.2,13.2,0,0,0,2.937-2.011c-.721,1.468.215.555.7,1.293-1.307-.01-3.152,2.371-2.289.356-1.011.729-3.041,2.193-3.114,2.922l1.167-.362a4.941,4.941,0,0,0-2.1,3.882c1.6-1.5.366-2.611,2.7-4.248,3.032-1.266.078,1.1,2.544.745l1.044-2.007-.9.544c-.632-1.105,2.731-2,1.432-2.932,2.583-.506,2.631-1.394,5.35-2.051.1-.727-.632-.2-1.243.144,1.031-.7.054-1.824,1.98-2.131.8-.343-.529-.934-1.688-.052a36.644,36.644,0,0,1,3.052-2.28l-1.809.113,1.166-.872-1.372.317c2.154-1.751,4.935-3.413,6.992-3.308-1.286,2.13-4.864,4.092-4.843,6.13.738.02.751-1.984,2.275-1.355l-.022-1.088c.491-.7,1.85-2.086,2.611-1.5a9.131,9.131,0,0,0-1.808,4c.125.149.022.342-.222.566l-.012.037v-.029a12.059,12.059,0,0,0-1.811,1.6c-.787.333-.7-.385-.765-.573-3.015.824-2.523,4.082-5.355,5.305-.588-.559-2.49.707-2.231-.025-1.489.9-1.526,2.185-2,3.272-.715-.366-2.2,1.447-2.094.355l-.329,1.84c-1.136.38-2.377,2.24-3.279,1.889-.712.931.672,1.088-.864,1.849-.081-.18-.265-.177.025-.365a3.569,3.569,0,0,0-2.348,2.262c1.034-.587.354-.028,1.513-.786.331.355-.276,1.845-1.853,2.464.633-2.246-2.126.272-1.9-.845-2.562,2.153-2.771,4.524-3.844,7.223-1.67,1.787-3.957,3.639-5.351,5.542-.464-.118-.939-.255-1.434-.431a1.543,1.543,0,0,0,1.095.948,6.433,6.433,0,0,0-.679,1.328l.265-.212-.326,1.024c-.333-.264-.72-.549-1.139-.826a3.576,3.576,0,0,0,1.052-1.66c-2.52,1,.66-2.318-1.143-1.766.531.98-.12,1.874-1.009,2.777a5.369,5.369,0,0,0-2.2-.707l1.832,1.084c-.992.956-2.123,1.933-2.327,3.047-1.547,1.34-.168-1.31-.94-.647l.147.939c-.694.465-1.056.516-1.441.186-.1.081-.186.184-.284.268a5.319,5.319,0,0,1-3.457-2.1c.229-.615.323-1.19-.358-1.237l-.215.432c-.112-.167-.22-.3-.335-.493l.018-.045c.624-.416,1.289-.756,1.92-1.237-.086,1.923,1.317-1.128,1.926-.053a2.839,2.839,0,0,1-1.565,1.73c.308.532,1.294.208,1.773.718,2.281-1.438.419-3.44,2.483-5,.472.517.409,1.464,1.473.222l-.172.4c1.22-2.394,2.632-.456,2.307-2.88l.743.683c.256-1.335,1.935-2.942,2.768-3.944l.091.181c1.793-3.289,1.249-1.638,3.954-4.732l-.535,2.057c1.418-.627.7-1.7,1.563-2.293.075.15.582.413.413.942l2.218-4.219c.334-1.318-.724-.34-1.178-.506-.151-.743,1.75-1.948,2.3-1.581-.037.366-.728,1.326.114,1.1l.151-2.211c2.494-.782.169,2.543-.219,3.707,1.875-1.412,1.675-2.54,3.567-4.148a3.735,3.735,0,0,1-1.852.41c-.884-.721,1.255-1.876,2.461-3.006-1.161.341-.991-.339-.716-1.146a.494.494,0,0,0,.1-.312l.086-.28-.151.13a.8.8,0,0,0-.484-.228c-.836,1.13-2.334,1.168-3.037,1.741,2.012.693-2.052,2.263-2.49,3.4l-.838,1-.359.329c-.222-.071-.3-.334-.017-1.081-.2.663-1.834,1.966-1.255,2.235l-3.494,3.185a1.524,1.524,0,0,1-.517.078c-.032.19.02.271.1.319-4.646,4.483-9.2,9.055-13.477,13.874l.492-1.234c-2.442-2.153-2.8-3.486-4.544-5.367-2.728-.625-5.51-1.23-8.29-1.759,1.456,1.3,2.888,1.809,3.961,3.4.033,2-3.237-1.931-2.487.743l2.167,1.542c-.731-.652-1.084-.776-1.081-1.175-.746-1.462.709-.156,1.791,1.024,1.816,2.627-.657,1.742-2.488.334-1.027,1.249,3.711,4.437,4.1,5.364-4.389-3.47-2.014,1.655-4.529.429l2.945,2.146c2.026,3.757-1.225,1.888-2.656,1.444l2.246,1.881c-.567.214-.223,1.18.168,2.125-.346.461-.7.915-1.038,1.382-.654-.412-1.54-1.042-2.742-1.964l1.517,1.233c.136,1.052.94,3.163-1.754,1.47a18.182,18.182,0,0,1,1.409,1.52l-.206.3c-1.911-1.338-1,.275-.932,1.345l-.216.311c-.146.015-.227.119-.231.333l-.055.079c-.743,1.92,1.717-.172,1.687,1.593.2-.266.43-.544.669-.824a31.829,31.829,0,0,0,4.193,3.086c-.046.278-.1.563-.135.833-.114.058-.212.133-.317.2-1.776-1.11-4.876-3.63-5.4-3.1,1.414,2.261,2.615,1.5,4.165,2.691-1.08-.2-.891.763-.372,1.988-.6.827-1.122,1.748-1.835,2.551l-.035-.024-.172-.5c-.049.047-.092.122-.14.175l-1.76-2.49c-2.219-.963-2.5-.662-1.7-.091-.083-.387.71.2,1.5.77,1.425,2.856-1.482,1.637-4.238.636l.2-.23c-.069.069-.142.152-.211.226-2.06-.748-4.032-1.372-4.04-.075,1.626,1.105,2.339,1.273,3.61,2.3.854,2.008-8.5-5.6-6.55-1.8l1.993,1.16c.589,1.1-1.5-.07-2.346-.69,6.331,5.145-2.952,2.355,5.383,10.067a20.436,20.436,0,0,0-2.724-1.2l-.116-1.773c-.276.49-.557.975-.83,1.466-2.82-.827-4.792-.587-3.569.927a14.791,14.791,0,0,0,2.1,1.869c-.161.34-.321.681-.483,1.019-2.34-2.323-4.382-4.574-6.92-4.435l1.967,1.775c-.145-.389-.761-1.224-.035-1.12,2.771,1.158,2.45,2.219,3.442,3.1-.893.354-1.8.692-2.69,1.076-4.437-2.811-2.524-3.316-3.514-4.184-.335,2.242,4.7,8.366.773,7.977l1.752.911c-5.081-.413,7.43,6.145-.731,3.286.684,1.522,4.945,2.57,4.586,3.975-.176.349-1.773-.842-2.312-1.241-2.508.6,3.955,3.105-1.044,2.151l5.025,2.384c-2.109-.142-5.526-.875-8.29-1.162-2.746-.29-4.838-.136-4.1,1.224,3.921,1.69,3.966.519,7.069,1.583-3.936-.672-4.737.6-5.02,2.009-.295,1.425-.087,2.951-2.306,3.388a21.613,21.613,0,0,0-5.639-1.843c-1.962-.48-3.836-1-5.029-2.354,5.3,1.419,2.1-.553,2.956-1.2-5.84-1.508-4.94.689-3.722,2.619,1.25,2,2.77,3.729-2.233,2.6l4.007,1.543c-.667.233-3.926.571-5.091-.544.693,1.308,1.49,2.637,2.267,3.9,1.6-.254,4.244-.532,5.938-.881,1.723-.345,2.494-.8.346-1.747,4.451.438,2.7,1.9,7.768,2.563-7.062-.05,2.72,1.764,1.073,3.054a13.136,13.136,0,0,0-6.672-.772c-1.657.262-2.933.778-4.37.482.544.449.094.919-.706,1.374a11.17,11.17,0,0,1-2.96,1.11c-.236.661.822,1.929,1.836,3.182s1.859,2.525,1.008,3.584a14.109,14.109,0,0,1,7.774-1.7c-2.025.816-1.82,1.909,2.588,2.006,3.716-1.458,1.237-1.641-1.679-1.99-2.892-.295-6.157-.69-3.744-2.05,4.964-.35,6.164-.923,7.606-2.029a21.332,21.332,0,0,0,3.773.915c-.012.327-.011.647,0,.964-1.479.4-1.5,1.077-1.113,1.753.559,1.081,1.723,2.079-.6,3.136-2.837.985-9.576.486-10.1,3-1.253-.6-2.441-1.269-3.673-1.969,3.443,2.291-2.979.722-3.522,2.962,1.024-.384,2.05-.75,3.092-1.1,1.015,1.193.565,1.663-1.619,2.663q2.383-.85,4.8-1.6c.831.578,1.832,1.627-1.161,2.06a22.329,22.329,0,0,0,3.158-.2c-.8.235-1.266.62-.812,1.322.412-.519-.023-.774,1.48-1.007-.165,2.878,5.675-.292,5.788,1.322a5,5,0,0,1,3.46.043c-7.9,1.567-7.355,5.024-11.02,7.268l.1-.044c-.572,1.1-1.1,2.228-1.61,3.406.31-.713,2.617-.876,3.766-.5l-.1-.1c1.538.268,7.383-3.741,6.488-1q-.723.931-1.414,1.908c.128-.3,1.321-.582,1.918-.723q-.61.936-1.187,1.915c3.747-.7,3.371.366,2.687,1.844-.694,1.443-1.655,3.3.621,3.3-.97-.215-1.187-1.3,1.064-2.118,1.023-.1.75.82.049,1.686l.629-.536a38.168,38.168,0,0,0-.628,6.05c1.658-1.814.081-3.758,3.16-4.572,3.183-1.531,1.136,1.441,1.529,2.2-1.564,1.169-4.055,1.094-3.741,2.889.906-.438,3.487-.69,4.065-2.074-.4,2.329.447,4.7-.666,8.168.972-.3.9-1.365.891-1.709l-.481.316c-.037-1.438,3.374-3.6.506-3.466,2.266-2.213,3.059-2.093,3.522-1.36s.729,2.067,1.652,2.241c.219-1.271.488-2.5.8-3.707a38.044,38.044,0,0,0,5.4,4.389l-2.562,3.653c.16,1.062,1.493-2.24,2.543-1.359.017-.758.042-1.488.1-2.239a43.463,43.463,0,0,0,4.776,2.786c-1.422.592-1.681-.718-3.623,3.205,1.478,3.375,1.632,2.3,3.9,4.419l-.14-.339c1.15-.878,1.737-.006,2.4.638s1.364,1.053,2.4-.942c.2-2.764-2.677,1.676-1.023-3.533.965.57,1.957,1.06,2.966,1.531-.106-1.754-.805-2.069-1.632-2.174s-1.788.042-2.227-.556c-.939-.056,1.4,1.386-.082,4.63-2.255-1.03-2.518-3.292-2.1-6.471a56.16,56.16,0,0,0,10.316,3.677c-.016,2.755.2,5.045,1.817,4.869q-.284-1.588-.513-3.2a5.684,5.684,0,0,1,.9-1.146l.258.055c-.761,7.567-1.336,13.031-1.354,14.406-1.388-.3-2.766-.608-3.178-1.144.319,1.408,3.062,2.455,4.52,1.882l.255-3.067c3.293-.626.778,1.954,4.02,2.194.226,2.568-2.793,2.7-5.467,2.558,2.39.637,4.834,2.826,5.764.174,2.284,1.369-.2,3.077,2.586,4.54,1.969-.442,4.364-2.76,6.668-1.024l-.013.447c5.646,3.137,7.96-3.074,13.033-.281l-.426.834c1.907,1.568,5.05-.274,8.387,1.436-.97-.555-2-2.446-.185-2.676,3.778,1.683,5.889.032,8.82,2.042l1.987-2.524a59.188,59.188,0,0,0,7.139-.216q.6.793,1.214,1.709l-.528-1.759c.319-.024.655-.051.986-.078.376.57.6.762.419-.033,1.625-.132,3.356-.284,5.2-.444,2-.246,4.127-.53,6.3-.834a45.2,45.2,0,0,1,2.254,5.91c-1.466-5.231-1.4-4.576-1.417-6.03l.532-.076a25.14,25.14,0,0,1,1.565,4.212c2.344,2.719-.362-2.41.468-2.448-.241-.61-.5-1.265-.774-1.946,3.677-.552,7.467-1.2,11.182-1.988,1.786-.359,3.556-.74,5.3-1.131l.093.2-.073-.2c.276-.062.55-.126.824-.189l.36.626c-.108-.247-.191-.441-.278-.645.471-.108.946-.215,1.412-.324a7.084,7.084,0,0,0,1.262,1.971l-.666-2.113c10.475-2.481,19.5-5.263,23.59-6.56l-.234.5c7.883-2.548,19.692-6.446,30.906-11.207,11.253-4.712,21.637-10.559,27.634-15.62,3.779,1.107,6.433-.965,9.173-1.525-1.957-.26-2.686-2.042-1.636-2.458,6.853-3.423-.684-1.76,5.285-6.395,3.061-3.136,12.1-8.395,21.028-13.5,8.986-5.06,17.749-10.021,21.546-11.4.359-5.32,6.32-6.173,7.522-10.393l.387.925c1.027-1.847,6.795-5.731,12.362-9.806,2.832-2.018,5.6-4.083,7.822-5.9a20.463,20.463,0,0,0,4.485-4.4l-.9.022c1.067-4.452,4.026-1.038,7.436-2.256-3.761-2.816-3.226-6.914-2.551-8.04l.726.708c.845-1.873,1.058-7.582,2.865-10.219l1.835,1.759c-.131-3.654,4.325-6.4,5.463-7.923,3.92-2.369,12.066-4.262,13.527-10.542l8.2,2-.173-.852s-2.823-2.695-7.453-7c1.156.158,2.226.288,3.108.356l2.485.611-.2-.619c1.382-.386-1.445-1.313,1.039-.733l-.513.835c.876-.5,2.094.246,3.448.823a2.5,2.5,0,0,1,1.485-.5,2.952,2.952,0,0,0-1.625-.137c-.8-.562-3.031-1.551-1.779-1.745.391-.638,4.056.786,4.512.016a50.938,50.938,0,0,0,4.127-6.134,11.413,11.413,0,0,0,1.747-6.771,2.3,2.3,0,0,1,1.453.283c-1.035-1.527-.559-2.764-1.716-4.133a19.281,19.281,0,0,1,3.651-.385c-2.031.093-2.489-7.371-2.105-7.5l-4.436-.048c-.208-1.381,5.019-.478,3.782-1.774-6.293-.338.392-2.2-2.974-2.527.5-.011.6-.654,2.549-.712-3.394-.026-.862-.617-1.784-.974-.961-.089-.982.166-1.986.33l-1.338-.828c1.019-.419,2.976-.646,3.41-.277a30.755,30.755,0,0,0,.721-8.505,31.794,31.794,0,0,0-.657-5.183,6.863,6.863,0,0,0-1.52-3.281C180.268,1117.785,182.174,1118.256,178.45,1119.291Zm-338.46,108.64-.567-.361,2.122-.118.567.355Zm16.332-19.31a7.046,7.046,0,0,0,1.228.75c-.028.084-.055.173-.082.259ZM51.2,1073.467c-.087-.91.341-.763.968-.234C51.843,1073.312,51.523,1073.387,51.2,1073.467Zm45.417-5.18c.3-.348.609-.684.91-1.029.007.049.029.1-.021.138a5.038,5.038,0,0,1,1.323-.2,2.748,2.748,0,0,0,.782,1.309Q98.13,1068.375,96.615,1068.287Zm-39.539,3.586c-.283-.35-.538-.639-.781-.9.07-.024.139-.051.21-.073C56.69,1071.2,56.881,1071.519,57.076,1071.874Zm38.551-10.613c1.052-.269,1.908.3,1.24,2.253-1.091-.178-2.075-.69-2.894-.514a5.551,5.551,0,0,0-.549-.106A4.183,4.183,0,0,1,95.628,1061.261Zm-3.766,2.915-.537.562c-.069-.23-.127-.492-.182-.772C91.341,1064.027,91.567,1064.093,91.861,1064.176Zm-32.289-6.047-.211-.589c.8.309,1.581.639,2.342.973l.207.586C61.152,1058.766,60.368,1058.434,59.572,1058.129Zm-10.825,4.038,2.023,1.737-.6,1.061Zm7.351,8.127c-.131.022-.27.049-.411.079-2.427-2.174-2.583.609-3.766-.279C52.194,1068.655,53.546,1066.633,56.1,1070.294ZM9.3,1087.8l-.082.035-.035-.035Zm-4.46.546c-.276-1.864,1.463-1.381,3.346-.062q-.679.295-1.36.6c-.208.063-.423.123-.64.183Zm-18.737,4.087c1.726-.9,3.8.223,6.569,2.3a4.237,4.237,0,0,1-1.274.528l-.072-.377a6.627,6.627,0,0,0-1.519.334A6.19,6.19,0,0,1-13.9,1092.428Zm1.107,4.98c1.2.465,1.637-.319,2.091-.987.423,0,.4.35.367.575-.845.429-1.691.857-2.537,1.3A1.479,1.479,0,0,1-12.791,1097.408Zm-6.682,3.689.513.277q-.159-.136-.329-.285a2.467,2.467,0,0,1,.494-.009l-.678-.67a4.774,4.774,0,0,1,1.384-.509l.3.24c.081.251.133.448.186.645l-1.226.66-.132-.072c.039.032.071.055.108.086q-1.014.548-2.025,1.1C-20.622,1101.867-20.293,1101.242-19.473,1101.1Zm-16.405,8.617c.91-.762,1.7-.453,2.514-.866-.375-.062-1.08.005-1.17-.368,1.678-.068,2.672-1.026,4.506-.719q-.849.5-1.7,1c-.154-.262-.513-.312-1.217.334a1.065,1.065,0,0,1,.639.012q-2.823,1.682-5.643,3.425c.362-.636-.236-1.324.928-2.278l1.98-.047C-34.273,1109.6-35.647,1109.926-35.878,1109.714Zm-9.84,5.756c-.9-.666,2.126-2.4,1-2.563l3.162-1.173c-.439.324-.36.541-.49.8,1.519-1.668,2.8-1.323,3.581-3.05,1.234-.118-1,1.406.142,1a3.537,3.537,0,0,0-.851,2.818q-.906.565-1.811,1.139a4.446,4.446,0,0,1,1.116-1.736C-43.69,1114.137-42.418,1114.14-45.718,1115.47Zm-69.986,59.155,1.37.812c-.08.09-.162.18-.242.271-.509.187-.912-.826-1.514.224C-116.346,1175.469-116.09,1175.062-115.7,1174.625Zm-18.062,10.857a6.158,6.158,0,0,1,.256.721l-.514.362A2.661,2.661,0,0,1-133.766,1185.482Zm.355,2.672a1.3,1.3,0,0,0,.019-.15c1.156.616,2.525,1.452,1.825.075-.613-.506-.992-.916-1.268-.9l-.04-.7.057-.313a16.105,16.105,0,0,1,2.614,2c-.529.488-.861.926-.728,1.306,0,.057-.015.125-.016.183C-131.836,1189.062-132.677,1188.6-133.411,1188.155Zm-3.537,12.7c-.226.391-.46.8-.722,1.2C-139.995,1199.781-138.085,1200.626-136.948,1200.859Zm-3.188,8.509.346.241c-.243.192-.446.182-.611-.024a5.4,5.4,0,0,0-.334,1.624l-1.084-.953c.07-.207.134-.406.186-.6C-140.709,1209.828-140.37,1209.315-140.135,1209.368Zm-4.152,3.409c-2.174-1.437-4.879-5.577-.674-2.975C-144.948,1210.878-145.737,1211.46-144.287,1212.777Zm-2.887-4.84v0h0Zm-2.1,2.606c2,1.433,3.483,1.528,5.7,3.061-.055.27-.1.534-.144.8-1.331-.424-3.052-1.114-2.589.155a25.463,25.463,0,0,1-3.442-2.98C-149.593,1211.247-149.435,1210.9-149.273,1210.544Zm-3.633,28.158c-.045.072-.089.146-.132.222-.236-.039-.443-.064-.628-.08-.05-.087-.085-.1-.1-.007-2.374-.153-.542,1.678-1.816,1.628C-156.659,1239.324-157.461,1237.139-152.905,1238.7Zm-10.882-2.358,2.562.214.484,1.131Zm10.448,9.98c-.021.153-.042.306-.061.46-.125.011-.248.023-.363.036a2.279,2.279,0,0,1,.059-.551Zm-1.128.509c.037.016.044.047.072.067-.046.008-.08.018-.124.027C-154.5,1246.895-154.491,1246.867-154.468,1246.833Zm10.53,33.578c-1.548.321-1.823-.667-1.371-1.958.258.3.51.606.779.9.223.244.462.476.693.714C-143.869,1280.184-143.907,1280.3-143.938,1280.411Z" fill="#b7eadb"/>
      <path id="Path_211" data-name="Path 211" d="M155.017,1096.561l.023.025C155.111,1096.542,155.085,1096.542,155.017,1096.561Z" fill="#cae5d6"/>
    </g>
  </g>
</svg>
