<svg xmlns="http://www.w3.org/2000/svg" xmlns:xlink="http://www.w3.org/1999/xlink" width="376.164" height="388.533" viewBox="0 0 376.164 388.533">
  <defs>
    <clipPath id="clip-path">
      <rect id="crop" width="363.541" height="177.782" transform="translate(-170.076 6302.78) rotate(-47.699)" fill="none"/>
    </clipPath>
  </defs>
  <g id="Vector_Smart_Object" data-name="Vector Smart Object" transform="translate(170.076 -6033.9)" clip-path="url(#clip-path)">
    <g id="Group_1" data-name="Group 1" transform="translate(-173.355 5886.891)" opacity="0.48" style="mix-blend-mode: multiply;isolation: isolate">
      <path id="Path_1" data-name="Path 1" d="M58.137,5956.55c-.975.054-1.634,1.228-2.3,2.288A3.342,3.342,0,0,0,58.137,5956.55Z" transform="translate(204.898 -5897.69)" fill="#f9cd93"/>
      <path id="Path_2" data-name="Path 2" d="M55.811,5958.566v.027l.025-.036Z" transform="translate(204.895 -5897.41)" fill="#f9cd93"/>
      <path id="Path_3" data-name="Path 3" d="M71.033,5919.756c-.307-.433-.05-.7-.129-1.056-.627-.7,0,1.188-.823,1.271l-.029-2.045-.915-.107-.014-4.579c-1.658,1.522-.068,5.4-1.871,6.034-.018-.508-.332-.458-.515-.586-.041.92-.434,1.557-.254,2.4l-.534.832a2.775,2.775,0,0,1-.323-2.642,11.1,11.1,0,0,0-1.142,2.51c-1.335-1.416-2.563-2.7-3.608-3.763.212-.177.412-.252.6-.039.145-.43.266-.55-.141-1.177-.24.236-.527,1.1-.788.037.177-.9.726-.7.991-1.249.1.195.258,1.06.283.742.455-1.6,1.855-3.835,1.381-6.577-.155.588.249,1.217-.334,1.492-.307-.434-.065-.67-.151-1.021-.623-.709.031,1.138-.762,1.172l-.081-1.961-.885-.156-.13-4.388c-1.562,1.367.072,5.171-1.653,5.678-.029-.488-.332-.458-.512-.591-.017.874-.37,1.461-.186,2.27a2.988,2.988,0,0,0-.356.574l-.136.21c-.308-.432-.886-1.767-.38-2.548-1.772,2.739-1.522,7.011-3.813,9.078-.219-.078.045-.628-.185-.55-.046.63-.223,1.532-.016,1.766-.1-.2-.293-.591-.163-.864a2.527,2.527,0,0,1-.751,1.2,1.319,1.319,0,0,0,.12-.682l.083.22.288-1.139a22.654,22.654,0,0,0-1.149,2.1,1.471,1.471,0,0,0-.717,1.229c-.416-.469.19-1.059-.027-1.135-1.2,1.015-.474,3.366-1.368,4.812-.247-1.211-.752-.433-1.312-.471-.248,1.842-1.683,4.535-2.413,6.847-1.068-2.312-1.269,1.956-2.511.543a1.956,1.956,0,0,0-.03,1.917c-.076-.51.607-.582.8-.189-.277.7-.793,1.638-.293,2.463l-1.01-.04c.4.623.777,1.551.535,1.947l-.005.009c-.927-.332-.536.015-.274.465-.124.195-.25.388-.381.578a11.727,11.727,0,0,0-.631-1.83c-.486.471-.169.745-.324,1.333a3.783,3.783,0,0,1-.606-2.468l-.813.349c.214,1.685.36,4.31-.609,5.247-.282-.746-.03-1.135-.786-1.567a6.535,6.535,0,0,0-.063,1.081c-1.086-1.9-2.189-3.824-3.254-5.673.125-.935.1-1.653-.542-.939l-.066-.114c.5-1.65,1.577-1.05,1.936-2.283.445.416-.005,1.481.6,1.377a6.613,6.613,0,0,0,1.424-2.472c-.6.6-.226-.706-1.2.207.074-.755.749-2.1.527-2.314-.153.517-.154,1.018-.824,1.379a9.23,9.23,0,0,1,2.545-3.907,2.033,2.033,0,0,1,.057.688c.4-2.648,2.179-5.037,2.121-7.256l-.472.308c-.044.71-.544,1.6-.951,1.67.6-1.588-1.275-.023-.75-1.846.826-2.371,2.7-2.941,2.479-5.136-1.2,1.694-3.153,3.523-3.226,4.772l.752-1.124-.6,4.067c-.448-.417-1.2,2.686-1.8,1.8.452-1.07.973-1.9,1.349-2.707-.371-.19-1.65,2.267-2.324,3.125l.971-.914c-.823,2.865-2.694,5.417-3.6,8.052.269-1.187-.189-.757-.659-.327-.174-.3-.345-.592-.514-.88.29-.363.7-.443.5-.4-.211-.427-.421-.2-.653.143-.384-.66-.753-1.289-1.1-1.881.125-.474.24-.9.338-1.236l-.006,1c.229-2.766,2.1-3.339,2.554-5.892.075.232,0,.493.224.2,1.426-1.981.826-4.346,2.4-5.361l.226.7c.046-.2.373-1.617-.146-1.95a13.036,13.036,0,0,1-1.649,3.255,7.64,7.64,0,0,1,.945-3.329l-.57-.94c0-1.979,1.648-1.772,1.65-3.745l-1.2.7a1.307,1.307,0,0,1,.068-.3,3.556,3.556,0,0,0-.442,1.6c-.827,2.372-2.325,2.138-2.851,1.99-.749.619-.592-1.389-1.045-1.8-.748,1.615,0,2.473-.751,4.087-.377.319-.371-.179-.3-.443l-.3,1.538c-.226-.208-1.875,2.063-1.426,0,.151-.193.379-.62.6-.9-1.681,1.4-4.3,4.2-4.938,3.14-.827.884-.3,1.04-1.577,2.5,0,1.481,1.048,1.3.224,3.668l1.168-1.168c.094-.438.128-.862.256-1.306l-.9,1.644c.374-1.3,0-1.486-.3-2.423,1.426-2.473,2.7-1.959,3.674-2.87-.066,1.049-.689,2.011-.376,2.5-.8,1.164-1.619,2.133-1.523,3.264a1.908,1.908,0,0,1-.359.642c-.624.337-.492-1.186-1.585.2-.292.888-.522,2.063-.871,3.133-.094-.125-.193-.217-.31-.2,1.05-4.142-1.049-1.3.3-5.495-.823-1.092-1.722.054-2.7,1.954,1.048-.677.747,2.346,2.246,1.587a11.188,11.188,0,0,0-.518,4.07,2.577,2.577,0,0,1-.188.225l-.1-.159c-1.5,1.741-1.97,3.748-2.541,5.661l-.257.233c-.224-2.191.974-2.893.975-4.375-2.1.865-.823,3.857-2.325,6.1-.569.163-.772.021-.785-.29.135-.443.269-.9.4-1.375a5.137,5.137,0,0,0,.587-2.248c.2-.806.412-1.612.628-2.409.142.068.533-.336.677.121-.074-.735,1.2-3.186,2.323-4.616-.372-1.176-1.35.732-2.246,1.381a4.8,4.8,0,0,1-.229.788,14.838,14.838,0,0,0-1.718,2.509,3.977,3.977,0,0,0-1.1,2.3c-.064.135-.128.27-.2.41-.947,1.54-.508-.9-.649-.874-1.426,1.488,0,1.482-.226,2.263-.1.278-.207.481-.311.7-.1.157-.179.3-.291.466-2.158,2.215-4.171,1.229-6.569,2.341l1.893.434c-1.57,4.984-2.28,1.664-3.109,6.211l-1.693-2.736c.227,2.364-2.23,3.838-3.394,4.221l.594,2.76c-2.215,1.329-3.507,2.421-5.091,1.492l1.275,1.426c-1.288-.165-5.816,9.1-5.9,3.536-.192,1.046-.02,2.511-1.128,3.8l-1.271-1.422c-1.122,2.558-2.478,5.256-3.518,4.945a6.5,6.5,0,0,0,.017-3.763c-3.94,5.58-1.865,7.009-1.2,9.432-1.151,2.342-2.509,4.729-3.5,4.322a6.4,6.4,0,0,0,.115-3.694c-3.447,4.348-2.45,6.156-1.727,8.135l-.012,0a8.2,8.2,0,0,1-.862,4.319l-.8-1.1c.428,2.176-1.73,3.516-2.781,3.857l.553,1.747-1.05.237a7.3,7.3,0,0,1-.018,1.089l-.479.592a2.59,2.59,0,0,1-2.812.208l1.318,1.327c-1.216-.165-4.594,8.327-5.177,3.194-.084.963.209,2.318-.712,3.485l-1.312-1.328c-.822,2.333-1.851,4.793-2.847,4.489a6.014,6.014,0,0,0-.315-3.462c-3.323,5.287-.933,6.531-.193,8.966l-.068.059a10.19,10.19,0,0,0-3.307,2.961c-3.131,2.771-6.584,5.489-9,4.927-.914,4.019.426.052,1.285,1.4a22.2,22.2,0,0,1-.795,2.1c-2.153,1.34-4.238,2.194-5.821,1.64-1.008,3.846.417.1,1.221,1.521-.12.324-.237.608-.354.892a4.768,4.768,0,0,0-1.1.6c-.75,1.95-.325,1.626.3,1.063-1.95,3.449-3.646,2.008-5.752,3.309-1.673,3.875,2.093-1.65,1.712,1.271-4.188,3.31-1.424,5.875-6.3,10.447-1.014-.4.657-2.15.687-3.381-1.834,5.786-7.969,12.192-12.1,18.543-5.739,5.631-13.379,15.293-20.152,21.791l.282.771c-3.418,1.737-5.087,6.866-8.355,10.062l1.949-1a14.774,14.774,0,0,1-.685,1.752,1.668,1.668,0,0,0-.647,1.238c-.386.644-.789,1.206-1.2,1.785-1.05-.781-1.95-1.252-1.963.128l.982,1.347c-.187.311-.374.643-.56,1.012l-2.1-.443a9.525,9.525,0,0,0-.448,1.1c-.878.378-.665,1.958-.1,3.971-.03.136-.062.28-.1.436-1.713.885-3.679,4.161-5,6.393a1.207,1.207,0,0,0-.191-.066c.036.077.057.159.091.236a20.57,20.57,0,0,1-1.153,1.841c-1.086-.042-.019-2.125-.062-3.011a12.462,12.462,0,0,0-1.117,3.4c-.608-.271-1.174-.536-1.407-.276a16.779,16.779,0,0,1,1.118,1.711,10.584,10.584,0,0,1-1.9,4.179l-.353-.423c-.267.633-.583,1.255-.871,1.884a13.707,13.707,0,0,1-.442-1.879c.291,1.348-.437,2.335-.336,3.563-.836,1.716-1.72,3.422-2.675,5.117a4.9,4.9,0,0,1-.544-.542,4.324,4.324,0,0,0,.34.89c-.557.982-1.135,1.96-1.72,2.938l-10.719,14.122a3.619,3.619,0,0,1,1.775.255q-1.858,3.039-3.57,6.135c-.122-.073-.241-.149-.373-.219l-1.815,3.071-.28-1.009a1.7,1.7,0,0,0,.151,1.217l-6.11,10.377a4.561,4.561,0,0,0,.2,1.52c-.956,1.564-1.893,3.14-2.8,4.728-.842-1-1.527-1.371-1.82-.257l1.039,1.653c-1.572,2.829-3.029,5.692-4.287,8.578l-1.056-2a8.2,8.2,0,0,0,.585,3.106c-.439,1.051-.859,2.105-1.239,3.162a14.571,14.571,0,0,1-1.464,1.089l.4.617c-1.9-.07-1.723,2.721-3.144,3.656l1.086.05c0,.068,0,.115,0,.179l-1.431,2.833-1.058-.73a2.754,2.754,0,0,0,.45,1.934l-.791,1.568a1.155,1.155,0,0,0-.914.083c.251.667-.192,2.4.331,2.491a2.621,2.621,0,0,1-.272.649c-.76-.439-.556-1.432-.812-2.044-.316,1.78.916,3.251.017,4.8l-.35-.418c-.438,5.974-3.695,9.973-5.079,15.48.231-.187.445.23.754.458-2.18,4.857-5.161,9.8-4.427,17.125,1-2.386,4.5-3.642,4.838-7.547l.128-.008-.1-.706a8.531,8.531,0,0,0-.07-1c1.4.317.984-2.732,2.433-1.417,1.971-2.005,1.691-4.963,2.276-7.714a.35.35,0,0,0,.371.228,1.255,1.255,0,0,0,.2-1.995,6.556,6.556,0,0,1,.351-.77c.5-.168.97.866,1.63,1.508l-.98,3.368,1.444-.916c.137,1.421-1.274,2.54-.291,4.213.036-2.245,1.047-3.939,1.876-5.7.322,1.235,1.8,1.141,2.023,2.408l.906-6.012-1.012,3.859c-1.445,1.144-1.728.329-1.612-.919a7.91,7.91,0,0,0,.731-3.947c-.84.556-1.211,2.148-1.973,3.114-.684-.042-1.422.318-1.986-.527.179-5.419,2.585-6.881,3.962-10.835.323-.925,1-1.777,1.629-1.376a36.022,36.022,0,0,0-3.356,8.728c2.425-3.286,7.668-5.721,10.077-10.628a3.189,3.189,0,0,0,.509.209,4.561,4.561,0,0,0-.381-.467,11.971,11.971,0,0,0,.742-2.129c.037.063.057.131.1.193.1-.217.194-.42.3-.6-.2.75-.38,1.5-.542,2.243a39.379,39.379,0,0,1,2.241-3.638,7.35,7.35,0,0,0,1.612,2.017,58.969,58.969,0,0,0-3.489,11.5,51.835,51.835,0,0,1,4.5-6.543c-.414,4.287-1.064,10.446-.144,16.564-1.439-1.516-1.837-.864-2.1.207l.46-4.268-.794,3.539c-2.478,1.808-1.388-2.524-1.025-3.969-2.3,4.878.484,4.2,1.13,5.731-.213.942-.513,1.823-1.371,1.738a7.481,7.481,0,0,1-2.374-3.362l.285-.563c-2.176,1.157-2.579,6.314-2.351,11.318l-3.009-3.208c-3.436,1.532,4.088,6.079,2.043,10.392-3.027-3.659-4.4,1.792-6.456-1.7-.281,1-.594,1.1.8,3.89.625-.2,1.179-2.2,2.292,1.589-.221,2.361-1.893.571-2.486,1.668-.353-.809-1.105-3.791-1.072-2.878-.8,3.908-4.149,7.683-1.882,17.1.262-1.466-1.119-4.264.49-3.841,1.036,1.988.409,2.189.77,3.442,2.051,3.523-.458-3.543,1.847-1.927l.869,6.169,2.639,2.391,1.781,13.721c4.14-.816-1.863-15.99,3.018-13.819.246,1.559,1.12,2.115,1.693,2.915-.236-2.657.636-3.676-.2-6.6l1.2-1.278c1.044,1.98,3.174,7.306,1.938,8.605,2.666-2.808,2.877-9.035,4.048-13.748.351-.133.25-1.876,1.217-2.386l-.5,2.913,1.213-.38-1.194,6.551c2.656-3.15,1.522-7.775,4.139-9.739-.111.718.329.463.544.539.3-1.343,1-2.484.98-3.588l.946-1.5a3.676,3.676,0,0,1-.261,3.6,33.2,33.2,0,0,0,2.295-4.451c.622-.178,1.038-.688.975-2.153,1.386,2.31-.2,2.828.468,3.52,1.086-.195,1.453-1.344,1.559-2.861,4.361,5.3.415,1.9,1.657,3.973l.27.915-.06.133a21.548,21.548,0,0,1-1.959-2.854c.829,1.334.206,1.44,1.727,3.3l-.616,1.269c-.212-.208-.47-.472-.821-.874a11.794,11.794,0,0,0,.745,1.027l-2.667,5.542c.514.21,1.71,1.341,2.376,1.733,2.032,3.048,1.6,1.945,2.179,2.37l-.451.839a21.718,21.718,0,0,0-2.367-3.183l.964,2-.969-1.291.006.964c.962,1.106,1.448,1.627,1.975,2.237l-.241.449a28.157,28.157,0,0,0-2.853-3.061l-.148,1.239-.5-.741a2.711,2.711,0,0,0,.483.821l-.48,4.188a15.465,15.465,0,0,0,2.585,3.375l-.264,1.254-.465-.787a2.466,2.466,0,0,0,.441.879l-.072.349c-1.745-2.1-3.3-3.891-3.013-2.941l2.9,3.489-.048.231-.226-.06c.067.04.142.1.209.139l-.541,2.629-2.282-2.859a21.712,21.712,0,0,0,2.2,3.252l-.089.434-.315-.474-.156,1.129,2.429,3.1c-.531-.762-1.46-2.3-.88-1.786.276.373.58.75.9,1.137l.932,1.263-.477-.716a27.64,27.64,0,0,1,3.075,4.273c.4-.666,2.616.614.019-3.257a11.193,11.193,0,0,0,1.356,1.7l-2.563-4.279-1.134-.855c-1.7-2.836-1.626-3.973-.836-3.784.678.819,1.314,1.58,1.8,2.132l-1.364-1.935a5.437,5.437,0,0,1,1.167,1.046c.5,2.057,4.1,6.335,1.624,4.838a25.9,25.9,0,0,1,2.865,3.946c-.238-2.58,2-1.524-.144-6.8a9.136,9.136,0,0,1-2.992-4.2c.091.1.191.2.263.266l-.439-.644a18.048,18.048,0,0,0-2.494-3.815l.165.421-1.09-.829c-.34-.5-.616-.938-.838-1.323l.043-.08a.415.415,0,0,0-.094-.015c-1.3-2.316-.53-2.562.82-1.339l-.726,1.354c.541.191,1.731,1.347,2.422,1.722a10.3,10.3,0,0,0,1.523,2.236c-.095.037-.322-.051-.746-.319.8.949,2.173,2.458,2.77,3.371a4.278,4.278,0,0,1-.356-.307c.2.288.4.549.6.819.012.076.023.15.046.241a.2.2,0,0,0,.008-.167c1.189,1.6,2.429,2.989,3.859,5,2.279,1.7-4.5-7.817-3-7.138,1.7,2.382,3.056,4.671,3.13,3.861l.291.63c-.886-2.115.952.18,1.445.6a15.337,15.337,0,0,0,1.064,2.184c.312.636.743,1.5,1.284,2.539-1.341-1.47,1.13,2.056.582,1.869-.976-1.524-2.585-4.209-2.909-4.558,3.7,5.529-3.34-1.386-.614,2.378.885,1.338,1.671,2.608,2.438,3.863-.8,0-.194,2,1.631,5.411-.341-1.021.067-.467.681.456-.076.246-.116.542-.491.422-.032-.036-.051-.056-.079-.087l-1.063-1.47c-.25-.161-.319-.067-.331.113a12.5,12.5,0,0,0-.807-1.374,12.484,12.484,0,0,1,.808,1.571c.029.335.118.774-.062.879a.845.845,0,0,1-.268-.048l-2.219-2.6a3.94,3.94,0,0,1,.385,1.715c-.194-.038-.248.08-.078.453a.861.861,0,0,1-.113.244,8.833,8.833,0,0,0,.676.759c.278.49.529.961.789,1.438-.32-.415-.694-.872-1.14-1.39a83.8,83.8,0,0,0,5.406,10.253c-1.837-1.956-1.286-.869-.99-.04-.1.15-.153.373-.247.539l-.028-.015a25.118,25.118,0,0,1-2.573-2.958l-.013-.245c-.606-.05-.213,1.19.623,2.921-.049.2-.15.326-.387.262l-2.176-2.806a3.1,3.1,0,0,1-.1,2.752c1.228,1.719,1.307.9,2.65,3.207.2-.219.081-.814-1.31-2.567.033-.039.138.035.267.153.663.909,2.025,2.386,3.1,3.755l.357,1.429a2.773,2.773,0,0,0-1.117-.679c-.193-.325-.34-.537-.41-.46l.3.435a1.753,1.753,0,0,1-1.152-.5,16.887,16.887,0,0,0-2.432-3.875,79.559,79.559,0,0,0,4.64,11.267c-2.833-3.279-.005,1.661-1.492.7a20.7,20.7,0,0,1-2.466-3.159l.019-.281c-1.047,0,.173,3.383,1.746,6.887l-2.822-3.283c-1.737-.195,4.323,5.631,4.265,7.85-2.958-3.593-2.255-.339-4.555-3.475.11.583-.058.542,1.625,2.959.337.086.108-1.091,1.9,1.91.54,1.543-1.029-.285-1.087.259a25.1,25.1,0,0,0-1.5-2.361c.619,2.4-.4,3.8,3.73,11.076-.257-.913-1.93-3.33-.8-2.464a15.169,15.169,0,0,1,1.475,2.641c2.3,3.152-1.308-2.6.609-.665l2.32,4.55,2.348,2.586,5.062,10.069c2.375.914-5.764-11.659-2.066-8.427a15.018,15.018,0,0,0,1.9,2.607c-.911-1.909-.655-2.3-2.024-4.607l.39-.451c1.226,1.733,4.1,6.152,3.693,6.605,1.414-1.6-3.841-11.694-.435-10.5.629.728.572,1.277,1.054,1.68a22.127,22.127,0,0,0-1.878-3.863,10.949,10.949,0,0,1,1.343,2.323c-.6-2.683,3.483,2.027,2.061-1.15,1.54,2.081.682,1.864,1.3,2.577,1.1.448.031-1.812-.9-3.934-.037-.1-.083-.2-.137-.315-.585-1.353-1.064-2.589-.823-2.951a9.773,9.773,0,0,0,2.591,3.284c.5.853-.93-.347.5,1.589l-.492-.626.836,1.431c-.013-.382.38-.644-.816-2.371a10.47,10.47,0,0,1,1.143,1.021c-1.4-3.449-.782-5.8-1.5-9.074,5.176,7.763,1.006-1.14,5.635,5.074.205-.225-.336-1.763-2.029-4.156.748,1.314-.866-.23-1.775-1.576a5.766,5.766,0,0,0-.206-1.49c.573.212.209-.643-.42-1.81l.008-.007,1.191,1.216c-.324-.458-.656-.938-.984-1.418.033-.04.075-.059.106-.1,2.066.571-.281,1.474,2.249,2.061.223-.04.475-.113.714-.174a41.127,41.127,0,0,1,2.065,3.76l.68.521c.375.838.821,1.767,1.377,2.829-.162-.692-1.062-2.194-1.1-2.617l.681.522a18.483,18.483,0,0,1,1.113,2.27c2.241,3.251-1.236-2.686.66-.7l2.195,4.7,2.317,2.656,4.759,10.443c2.443.884-5.412-12.092-1.718-8.793a14.241,14.241,0,0,0,1.858,2.68c-.856-1.978-.568-2.394-1.885-4.771l.429-.481c1.2,1.777,3.983,6.319,3.533,6.812,1.579-1.738-3.447-12.116.042-11.006.625.735.543,1.314,1.027,1.717-.387-.942-.758-2.026-1.213-2.955l.041-.025a4.56,4.56,0,0,1,.679,1.386c-.236-1.279.5-.965,1.227-.57.123.383.247.775.375,1.172-.725.207-2.332-.782,1.382,4.336l.607,1.909c-.128-.226-.273-.47-.458-.759.16.32.346.64.522.96l.01.029a28.606,28.606,0,0,1-3.845,7.741c-.1-.221-.224-.459-.378-.728.728,1.357-.444.36-.061,1.387a54.623,54.623,0,0,0-4.475,7.347c.3-.173.443.306.737.594-1.092,1.581-2.275,3.157-3.407,4.827a1.1,1.1,0,0,0-1.226-.333c.158.6-.267,1.878-.086,2.369a25.491,25.491,0,0,0-3.861,11.106c1.844-2.767,6.939-3.536,7.308-9.382,1.488.529,1.676-2.833,3-1.215,3.442-2.539,2.9-7.381,5.724-10.729.593-.117.889,1.067,1.484,1.851l-1.8,3.539,1.793-.811c-.15,1.564-1.951,2.6-1.219,4.542.735-3.437,3.374-5.454,4.686-8.33.279.869.542,1.688.794,2.47l-.024.032c-.877.9-1.735,1.854-2.583,2.831a9.894,9.894,0,0,0-.007-1.487,6.223,6.223,0,0,0-.339,1.872c-5.741,6.712-10.814,15-15.191,22.821a5.18,5.18,0,0,0-.739,1.826c-1.641,2.381-3.22,4.785-4.733,7.139-.992,1.055-1.345,4.955-2.185,7.292,1.829-.915,1.5-2.217,3.06-3.676.988-.341,1.985.5,3.05,1.222a38.638,38.638,0,0,0-4.448,13.7c2.2-3.884,8.185-6.934,8.671-13.648,1.739-.049,1.994-3.894,3.529-2.656.209-.223.358-.459.544-.687.1.123.206.245.314.4l-.249-.48a13.86,13.86,0,0,0,1.635-2.53,1.541,1.541,0,0,1,.73-.25,24.836,24.836,0,0,0-1.27,9.526c1.276-3.029,5.807-4.875,5.422-10.344a.586.586,0,0,1,.695.186,4.9,4.9,0,0,0,.029,2.327,2.5,2.5,0,0,1-.371.431l1.205,1.037.926-3.235a1.273,1.273,0,0,0-.241-.007,6.754,6.754,0,0,0-.506-2.9c.209-.171.475-.183.884.168,2.363-2.559,1.973-6.073,2.985-9.322.435-.6.893-.9,1.34-.489a5.749,5.749,0,0,0,.212,2.92l-.229.712,1.57-1.122c.075,1.51-1.464,2.854-.5,4.56.243-4.34,3.757-7.03,3.566-11.359a4.469,4.469,0,0,0-1.117,1.558l.288-1.556-.67,2.3a8.1,8.1,0,0,1-.739,1.232,6.725,6.725,0,0,0-.794.1,7.523,7.523,0,0,0-.351-1.32,4.915,4.915,0,0,0,2.062-3.012c.61-1.194,2.857.144,4.2-1.774l-.786-1.34c.013-.01.02,0,.033-.017.09-.13.137-.232.212-.353a5.916,5.916,0,0,0,1.541-.24l.194.225.074-.3c1.044-.292,2.238-.7,3.458-.924l-.006.026.008-.026a5.323,5.323,0,0,1,4.763.994c.366-2.727-.32-.253-1.06-1.75,1.16-4.44,2.834-1.707,4.555-1.949.853-2.471-1.4.489-1.412-1.733,1.319-.462,1.493-1.423,1.638-2.494.494.113.915.327.85,1.482,1.889-1.421,2.9-4.759,3.716-7.641,1.039-1.262,2.2-2.494,3.229-3.816.65.85,1.307,1.708,1.975,2.586.252-.395.51-.779.762-1.174a11.784,11.784,0,0,1-1.819-2.7c.022-.033.047-.065.069-.1.228-.152.472-.34.709-.511.476.774,1,1.6,1.548,2.524.917-1.432,1.848-2.839,2.768-4.266-.135-.379-.31-.826-.525-1.334l.059-.053.686,1.048q.192-.294.383-.59c-.015-.371.131-.557.39-.6q.316-.49.636-.98c-.134-.424-.023-.514.242-.373q.454-.7.911-1.4a44.03,44.03,0,0,1,4.743-3.772l-.319-.715a2.544,2.544,0,0,0,1.615-.825,2.188,2.188,0,0,1,.4.613c-.138-.281-.235-.508-.315-.71,1.139-1.213,1.85-3.31,3.313-4.351l-1.356.157c.378-2.528,1.394-2.645,2.1-4.466l1.683,1.036c.7-2.07-.474-2.16-.295-4.18,1.223-.172,2.274-2.293,2.953-3.66a5.5,5.5,0,0,0,.859-.9c.468.512.1,1.6.243,2.229a7.982,7.982,0,0,0,.346-3.033,10.206,10.206,0,0,1,2.483-2.919l-1.254.107c.185-.712.408-1.4.639-2.089a14.918,14.918,0,0,0,1.6-2.4l1.674,1.121c.835-2.093-.375-2.239-.071-4.291,1.751-.162,3.393-4.113,3.95-4.668.848.42.242,1.75.37,2.494,1.022-2.372-.1-4.04,1.606-6.219l.319.472c2.561-7.839,8.121-13.724,11.642-21.216-.362.3-.512-.191-.848-.411,4.268-6.672,9.527-13.771,10.761-22.776.664-.846,1.33-1.682,1.987-2.552.385-.5.753-1.016,1.132-1.523a.867.867,0,0,0,.407.073,2.054,2.054,0,0,1-.121-.458q1.49-2.006,2.921-4.038a12.543,12.543,0,0,1-.266,1.877,3.745,3.745,0,0,0,.537-2.265,203.62,203.62,0,0,0,14.86-24.711c2.032-1.671,3.818-5.256,5.425-7.632-1.057,1.126-1.209.106-.558-.979,4.353-7.805-.089-1.028,3.908-9.329.683-1.554,1.722-3.732,2.993-6.324-.293,1.116.191,1.3.653,1.589-.243,1.465-1.169,2.539-1.427,3.927l1.6-3.809a1.066,1.066,0,0,1,.425.747,7,7,0,0,1-.2-1.291l.179-.425-.181.132c.041-1.895,1.4-1.286-.731-1.526.63-1.277,1.306-2.643,2.026-4.082l-.053,3.371c1.325-2.3,2.936-6.132,3.341-3.47,1.058-5.724,5.787-11.882,8-17.824l.816,1.688c.315-4.183,5.733-9.247,5.592-13.429l.64.181,1.692-6.892c1.507-2.131,2.571.689,2.257-.062,2.767-5.4,5.06-9.47,7.534-12.025-.882-2.629,1.934-8.433,4.281-12.9a306.562,306.562,0,0,0,18.288-31.611,266.241,266.241,0,0,0,11.674-25.856c.679.549,1.117.788.793.057l-.58-.633c.179-.474.349-.947.523-1.42a4.385,4.385,0,0,1,.342.63c.722.3.522-.307-.085-1.327.609-1.674,1.194-3.347,1.743-5.022.443.3.835.566.907.468-.293-.309-.547-.586-.78-.843.038-.115.079-.228.117-.342a12.817,12.817,0,0,0,.562-1.885c.037.06.069.107.106.169-.042-.066-.067-.122-.1-.185a73.8,73.8,0,0,0,1.12-9.33l1.49-3.355c-.565-.072-1.845-1.017-2.573-1.258-1.269-1.781-1.619-2.056-1.833-2.063.109-.27.219-.538.323-.81a16.262,16.262,0,0,0,2.232,2.625l-.968-2.067,1.015,1.211.048-1.154c-.893-.873-1.4-1.327-1.884-1.8.081-.225.149-.455.227-.683a18.313,18.313,0,0,0,2.893,2.541l.238-1.539.517.714a2.1,2.1,0,0,0-.5-.817l.776-5.188c-.025-.052-.06-.095-.086-.144l.47-.382.127-.841s-.945-1.482-2.49-3.673c1.74,1.779,3.235,3.191,2.972,2.2l-3.343-3.435-.492.027c-1.7-2.348-3.91-5.242-6.345-8a58.349,58.349,0,0,0-4.9-4.981,40.58,40.58,0,0,0-3.128-3.588c-.034-.458-.072-.959.369-.931l2.4,2.376a3.19,3.19,0,0,1-.109-2.8c-1.369-1.468-1.383-.63-2.91-2.666-.187.26-.017.832,1.513,2.306-.176.272-2.391-2.079-3.6-3l-.982-2.821a1.924,1.924,0,0,1,.624.466l-2.5-2.793c.176-.269.858.326,1.876,1.487a19.594,19.594,0,0,0-1.779-2.935c.125-.195.251-.4.377-.6,1.2,1.563,1.9,2.615,1.764,3.009l.368-.8c2.223,2.9.976,3.648,4.918,7.495a65.19,65.19,0,0,0-5.582-10.3c3.108,2.668-.146-1.657,1.417-1.01a17.454,17.454,0,0,1,2.738,2.614l.006.286c1.044-.237-.475-3.345-2.371-6.472l3.117,2.636c1.136-.125-1.234-2.04-3.084-3.971.18-.495.351-1,.5-1.512.641-.022.913-.468,2.446,1.058-.141-.465-.06-.555-1.153-1.751l1.9-.823.057-.627s-2.729-4.062-6.48-8.849c-.131-.173-.253-.337-.4-.517,0,.011.016.027.021.039-.889-1.125-1.828-2.283-2.8-3.432a63.3,63.3,0,0,0-8.844-8.9l-1.079-1.524c-.373-.066-.461.128-.36.5a12.165,12.165,0,0,0-2.195-1.158l-.378-.594a3.027,3.027,0,0,1-.058.433,4.132,4.132,0,0,0-2.181-.178l-.528-.709-.516,1.3c-.992,1.164-.653,2.552-1.178,1.842l1.041-1.934c-.878,1.3-.686-.058-.742-.964a5.1,5.1,0,0,1-1.122,1.379c.081.524.342.041.578-.055-.18,1.006-.172,2.687-.9,3.368-.782,1.451-.976-.9-1.887.793-3.522,6.267-7.1,12.236-10.515,18.525l-1.98-4.46c-1.476.107-.1,3.272,1.089,6.12-.432.812-.848,1.658-1.274,2.484-.232-.22-.461-.433-.671-.657a10.2,10.2,0,0,1,.4,1.189c-.312.61-.63,1.208-.938,1.827-.251-.241-.509-.483-.77-.727a11.544,11.544,0,0,1-1.073-2.235c.017-.055.034-.108.051-.161.877,1.086,1.3,2.172,1.834,2.473-.874-1.791,1.815-.282-1.227-4.063a3.389,3.389,0,0,0,.205-.655c.142.139.284.277.424.411-.153-.2-.29-.392-.419-.573a.407.407,0,0,0-.075-.255c-.02.03-.037.042-.055.07-1.725-2.448-1.195-2.6-.628-2.646.066.124.117.238.2.37a2.38,2.38,0,0,1-.173-.373c.409-.033.81-.037.382-.825.121-.157.145-.42-.143-1l-.012-.128.2.279-.231-.638a10.5,10.5,0,0,1,.909-5.557c2.516-6.653,4.727-14.27,7.125-21.066.35.373.106,1.981-.144,3.6a11.727,11.727,0,0,1,1.241-3.059c-1.226,1.2.491-3.215-.222-2.105.055-6.129,3.3-11.952,3.557-17.19-.633-.7-6.158-6.866-11.706-13.051l-.661-.722a.3.3,0,0,1,.292.107,1,1,0,0,0-.114-1.22c-.257.261-.578,1.178-.818.086.208-.952.772-.778,1.062-1.367.1.2.239,1.093.273.761.517-1.705,2.029-4.122,1.614-6.961C71.243,5918.8,71.644,5919.434,71.033,5919.756ZM-123.7,6268.744a2.013,2.013,0,0,1-1.27-.842,2.562,2.562,0,0,0,.6-.083C-124.173,6268.088-123.96,6268.384-123.7,6268.744Zm1.024-1.083a2.258,2.258,0,0,1,.031-.867C-122.171,6267.727-122.287,6267.912-122.68,6267.661Zm10.973,37.073c.021.044.021.059.038.1-.058-.085-.106-.147-.167-.237a6.172,6.172,0,0,0,.248.679c-.195.091-1.072-.742-1.063-.4-.242-.31-.724-.984-1.109-1.516-.108-.327-.2-.641-.3-.958.132.165.261.328.422.527C-113.326,6303.031-113.669,6301.987-111.707,6304.734Zm16.528,9.712c-.174-.26-.345-.517-.507-.766a5.04,5.04,0,0,0,.888.06A.753.753,0,0,1-95.178,6314.446Zm5.027,3.413c-.205-.4-.405-.784-.6-1.166l.3-.082C-90.378,6316.99-90.282,6317.4-90.152,6317.859Zm-26.815-47.638a.779.779,0,0,0,0,.369c-.246-.437-.691-1.166-1.453-2.369Zm242.953-232.1,1.194-.97c.866,1.829.015,2.216-1.305,1.306C125.909,6038.346,125.953,6038.236,125.986,6038.123Zm-6.6,24.711c-.04.153-.079.3-.119.436-.077-.288-.144-.554-.19-.747C119.172,6062.621,119.286,6062.729,119.391,6062.834Zm-3.852-2.491c-.035.407.005.908-.41.912C115.274,6060.936,115.407,6060.635,115.539,6060.344Zm-1.369,3.066c.325-.743.641-1.452.941-2.117l2.814,2.566-.22.553.816.637a8.465,8.465,0,0,0-1.016,1.413,14.271,14.271,0,0,1-2.982-2.38C114.392,6063.844,114.276,6063.623,114.17,6063.41Zm3.243,3.286a6.649,6.649,0,0,0-.262,1.034c-1.052-1.384-2.056-2.6-2.642-3.357A34.34,34.34,0,0,1,117.414,6066.7Zm-2.594-1.714a20.7,20.7,0,0,0,2.273,3.085c-.037.234-.071.5-.106.788a4.68,4.68,0,0,0-.933-.943l-.685-.855C114.73,6065.851,113.951,6064.4,114.819,6064.982Zm-1.558.58c.541.847,1.12,1.7,1.687,2.493a3.8,3.8,0,0,1-.13.447c-.652-.912-1.234-1.7-1.767-2.4C113.123,6065.919,113.188,6065.742,113.261,6065.563Zm-1,4.875c-.152-.272-.288-.486-.426-.707.212-.8.479-1.653.8-2.539l1.6,2.393a7.948,7.948,0,0,1-1.595,1.69Zm-2.17,6.17c-.292-.464-.576-.918-.793-1.3.077-.262.153-.519.232-.781.409.583.822,1.1,1.22,1.581C110.519,6076.29,110.3,6076.457,110.086,6076.608ZM-82.88,6385.261l-.008.013,0-.022Zm-55.979-189.39-.755-1.094c.141-.5.268-1,.387-1.5a23.07,23.07,0,0,0,3.184-8.181,2.469,2.469,0,0,0,.677-.459,3.512,3.512,0,0,0-.742,2.934,17.182,17.182,0,0,1,2-3.841l.223.578A80.533,80.533,0,0,0-138,6195.175,1.791,1.791,0,0,1-138.859,6195.871Zm28.514-81.793c.051.085.1.185.152.265l.117-.192a12.977,12.977,0,0,1-.955,3.67,4.3,4.3,0,0,1-1-1.159C-111.471,6115.83-110.909,6114.964-110.344,6114.078ZM-8.961,6295.027c-.08-.507-.479-.81-.305-1.562a2.826,2.826,0,0,0-.162.947,2.945,2.945,0,0,0-.309-.362c.634-1.509,1.288-2.987,1.9-4.516l-.641.51c.477-.773.941-1.564,1.386-2.388l.527-.1.2-1.29c.807-1.6,1.558-3.262,2.259-4.975q1.134-2.21,2.188-4.5c1.257-1.139,2.352-2.152,3.257-3.013-1.925,3.056-4.389,5.808-4.943,9.337,1.266-.879,2.255-3,3.55-4.4.391-.037.82-.175,1.219-.235,0,.111-.019.215-.019.329-1.671.11-1.667,3.861-3.227,2.689-3.718,4.151-2.841,9.265-5.954,13.992C-8.4,6295.692-8.675,6295.414-8.961,6295.027ZM-131.821,6191.2c-1.434.236-1.858,2.463-3.26,2.967.849-1.162,1.726-2.355,2.581-3.586C-132.329,6190.8-131.981,6190.877-131.821,6191.2Zm16.068-65.685c-.922-2.279.319-2.9,1.582-1.882-.348.8-.728,1.6-1.1,2.395A2.509,2.509,0,0,1-115.753,6125.517ZM-124,6175a1.486,1.486,0,0,0,.619,1.381,2.311,2.311,0,0,0-.8.964c-.272-.347-.563-.682-.833-1a21.286,21.286,0,0,1,1.541-2.6c.277.464.566.78.861.747-.166.614-.318,1.213-.425,1.767l-.009,0C-123.421,6175.146-122.286,6176.112-124,6175Zm14.789-23.935a4.422,4.422,0,0,1,.335-1.822c.018.114.034.225.054.338-.1.479-.2.951-.284,1.417Zm-1.106.651a2.506,2.506,0,0,0,.324.327,8.362,8.362,0,0,0-.785,1.017A1.707,1.707,0,0,1-110.313,6151.72Zm-1.4,2.875a16.794,16.794,0,0,1-1.2,1.833l-.072-.729c-.034.039-.068.1-.1.146C-112.944,6154.71-112.373,6154.5-111.711,6154.595Zm-.224,14.307.2,1.414c-.025.028-.047.049-.072.077.047.039.065.111.1.16l.2,1.4c-.237.269-.738-.471-1.265-1.308C-112.512,6170.085-112.231,6169.5-111.934,6168.9Zm-1.492-14.651.207,1.777c-.738,1-1.447,2.8-2.465,4.1l-.153-.072A57,57,0,0,1-113.426,6154.25Zm-.3-31.7-.418-1.287a4,4,0,0,1,.732.518C-113.52,6122.035-113.621,6122.292-113.728,6122.548Zm-16.995,65.334c.026.2.051.395.079.593l-.512.087C-131.011,6188.337-130.864,6188.111-130.723,6187.883ZM2.051,6274.544l-.318.216a6,6,0,0,1,.816-1.935c.364-.351.75-.726,1.135-1.1A15.286,15.286,0,0,0,2.051,6274.544Zm-110.239-163.215c.171-.019.31-.043.451-.066a22.315,22.315,0,0,1-1.095,1.979.408.408,0,0,1-.484-.34l.548-.9c-.068-.05-.113-.11-.174-.164a22.964,22.964,0,0,1,1.6-2.3A1.865,1.865,0,0,1-108.188,6111.329Zm-21.807,34.55a2.871,2.871,0,0,1,.195,2.521.918.918,0,0,1-.144.014l-.686-.859.183.766a1.947,1.947,0,0,1-.316-.15c.146.316.323.576.487.86l.077.322-1.223-.3C-130.937,6148-130.471,6146.942-129.995,6145.879Zm-1.537,3.4a3.078,3.078,0,0,1,.059,3.02,2.7,2.7,0,0,1-.9-1.287Q-131.938,6150.149-131.532,6149.282Zm-4.98,10.524c-.833.22-1.807.68-2.886.986l-.152-.52-.052-.014c.7-1.062,1.372-1.84,2.15-1.456.188-.221.353-.439.531-.658A16.557,16.557,0,0,1-136.513,6159.806ZM-9.789,6298.387l-1.339-2.991c.634,2.365-.262,2.774-1.206,3.312a6.6,6.6,0,0,1,.111-1.846c.1-.275.2-.547.3-.823a10.891,10.891,0,0,1,.7-1.014c.6-.1,1.288-.459,1.819-.313a5.108,5.108,0,0,0,.317,1.274A23.412,23.412,0,0,1-9.789,6298.387Zm.734-2.654a1.314,1.314,0,0,0,.1-.688,1.238,1.238,0,0,1,.077.1c-.043.219-.1.4-.152.606C-9.039,6295.742-9.048,6295.741-9.055,6295.733Zm118.141-219.7c.18.241.409.519.657.811a3.813,3.813,0,0,1-1.015.465C108.846,6076.886,108.961,6076.471,109.086,6076.034Zm1.2-1.236a7.906,7.906,0,0,0-.641-.684c.072-.238.142-.476.214-.71C110,6073.852,110.12,6074.3,110.29,6074.8Zm-269.542,112.9c-.027,1.474-.7,1.582-.934,2.835l-.395-.272C-160.16,6189.484-159.719,6188.644-159.252,6187.7Zm-1.527,5.2a1.08,1.08,0,0,0-.873.441.731.731,0,0,0-.414-.376c.268-.5.54-.988.817-1.487A3.775,3.775,0,0,1-160.78,6192.9Zm4.637,3.631.754,1.132c-.2.35-.389.706-.58,1.063C-156.421,6197.964-156.818,6197.285-156.142,6196.532Zm12.4,3.234.647-.86c.872.981,1.615.08,2.3,2.648.579-.618.825-1.574-.323-3.255.066-.1.14-.179.2-.282a7.52,7.52,0,0,1,1.79,1.839c-.046.236-.12.473-.162.709.092-.18.2-.362.3-.544a11.783,11.783,0,0,0,1.05,1.146c-.526,1.094-1.171,2.351-1.794,3.676-.208-.766-.322-1.459-.635-1.123l.585,1.231a23.819,23.819,0,0,0-1.98,5.7l-.463.572C-143.392,6207-140.335,6204.629-143.745,6199.767Zm2.868,9.3a.615.615,0,0,1,.1.36l-.848,1.05A2.237,2.237,0,0,1-140.877,6209.063Zm.092.416c-.024.356-.242.745-.242,1.093.656.615.4-1.677,1.5-2.436a5.518,5.518,0,0,0-.058.6l-.475,2.42.6-.225c.075.585.166,1.177.253,1.753l-.169.585.033.079-.591,2.874C-140.909,6212.915-141.52,6210.649-140.785,6209.479Zm1.815,6.068a1.379,1.379,0,0,1-.668,1.258A9.193,9.193,0,0,0-138.969,6215.547Zm9.6,18.6c.132-.28.26-.56.4-.835.343.528.688,1.042,1.036,1.548-.171.016-.03.392.314,1l-.609.142-.174.654s.746,1.749,1.98,4.4a9.548,9.548,0,0,0-1.548-1.612c.668.906,1.229,1.775,1.756,2.615l.133-.273q.458.974.984,2.064c-.118-.19-.237-.374-.356-.566a5.114,5.114,0,0,0-.4-.641c-.123-.2-.241-.385-.364-.584l-.025.056c-.319-.418-.71-.9-1.263-1.549.526,1.186-1.165-.579-1.829-1.083C-129.238,6237.876-129.411,6235.895-129.366,6234.15Zm10.977,22.871-.685-1.266c-.088-.277-.054-.428.032-.527.951,1.6,1.932,3.14,2.923,4.567-.44-.46-.931-1.011-1.384-1.522C-117.872,6257.776-118.16,6257.369-118.389,6257.021Zm2.361,7.964c.389.563,1.735,2.316,2.334,3.413l-3.229-6.952c-1.654-2.909-1.872-2.415-2.963-3.8a8.86,8.86,0,0,1-.462-.776c.085-.059.14-.217.077-.638a2.139,2.139,0,0,1,.379.269l2.234,3.535c.309.262.4.263.359.122a6.805,6.805,0,0,0,.91,1.148l-2.479-4.013c.463.61,1.748,2.205,2.358,3.2l-1.27-2.348a69.829,69.829,0,0,1,3.824,7.1c.8,0-.871-2.718-1.094-3.968.376.5.753.991,1.129,1.448-.135.558.982,2.557,2.413,4.945-.14.311-.3.613-.428.928l-1.809,1.133a11.692,11.692,0,0,0-1.126-1.669C-113.522,6269.14-116.534,6264.852-116.028,6264.985Zm.727,5.726a.824.824,0,0,0-.259-.24l.2.279-.363.227c-.2-.243-.391-.481-.628-.783a1.059,1.059,0,0,0-.372-.131,6.453,6.453,0,0,1-.549-2.923l.464.675c-2.159-4.979-.218-1.439-.647-4.3l2.513,4.462c-.227-.272-.481-.557-.786-.862.881,1.178,1.472,2.026,1.893,2.679Zm47.118,76.631c-.746-.133-1.64.165-2.085-.826a15.137,15.137,0,0,1,2.3-5.379c.079.116.151.227.231.343.4,1.26.786,2.472,1.16,3.649-.5-.121-.52.278-.45.82A9.448,9.448,0,0,1-68.184,6347.342Zm-16.656,41.044c.408-1.354.753-1.5,1.051-1.521-.307.554-.611,1.112-.908,1.678Zm55.05-47.964c-.221-.231-.423-.447-.608-.651.32-.271.642-.545.968-.829C-28.661,6340.537-29,6340.9-29.79,6340.422Zm43.934-77.355c-1.736-.061-2.093,3.783-3.591,2.431a12.347,12.347,0,0,0-2.339,3.065c.069-.505.121-1.019.163-1.533,2.061-2.119,4.255-4.457,6.527-7A10.961,10.961,0,0,0,14.144,6263.066ZM108.617,6078.5l-.064-.1.093.085C108.638,6078.493,108.625,6078.5,108.617,6078.5Zm3.259-3.348c-.109-.164-.2-.3-.315-.474-1.155-2.476-.251-1.567.893-.323l.065.247C112.294,6074.8,112.084,6074.978,111.875,6075.157Zm13.276-21.036c-.131.436-.286.91-.47,1.424-.043-.046-.07-.085-.116-.136Zm-.88,1.9c.052.054.106.121.159.179-.048.125-.094.249-.145.381l-.09-.376Zm-4.126-4.544c.479.783.246.929-.319.594C119.933,6051.878,120.038,6051.679,120.146,6051.48Zm-3.187,5.85c.168-.318.325-.622.506-.952a.926.926,0,0,0,.229-.417c.294-.538.593-1.082.908-1.652a16.063,16.063,0,0,1,3.284,4.05,3.814,3.814,0,0,0,.4.636l.057.089a6.958,6.958,0,0,1-.56.414c-.845-1.022-1.7-2.126-2.473-2.992l-.252,1.128a8.331,8.331,0,0,1,1.881,2.343c-.373.189-.754.371-1.14.555-.939-1.464-1.5-2.583-.93-2.624-1.217-.4-1.062-.1-1.282.452C117.341,6057.928,117.141,6057.61,116.959,6057.33Zm-48.037-65.952c-.284-.34-.6-.707-.963-1.124-.122-.637.571,0,1.359.758A1.3,1.3,0,0,1,68.922,5991.377ZM44.96,5952.83l-.453-.794a.765.765,0,0,1,.507.378c.057-.045.1-.122.152-.175C45.1,5952.439,45.029,5952.633,44.96,5952.83Zm2-5.48a4.135,4.135,0,0,1-.133.71c-.253.488-.464.961-.659,1.428a6.977,6.977,0,0,0,.016-.831c-.213.947-.347.168-.579-.254.234-.451.45-.931.656-1.423l.02.016c-.052.105-.1.218-.155.32a1.979,1.979,0,0,1,.2-.284c.207.147.281.336-.2.8.725.676.415-.451.626-1.079a.176.176,0,0,1,.172.115C46.945,5947.029,46.955,5947.181,46.965,5947.35Z" transform="translate(172.954 -5904.902)" fill="#f9cd93"/>
      <path id="Path_4" data-name="Path 4" d="M75.056,5993.662c.556.667,1.024,1.453,1.145,1.283Z" transform="translate(207.582 -5892.509)" fill="#f9cd93"/>
      <path id="Path_5" data-name="Path 5" d="M92.048,6009.687l-.028-5.12A28.555,28.555,0,0,0,92.048,6009.687Z" transform="translate(209.935 -5890.985)" fill="#f9cd93"/>
      <path id="Path_6" data-name="Path 6" d="M92.063,6028.172l-.232.534C92.076,6028.733,92.207,6028.624,92.063,6028.172Z" transform="translate(209.924 -5887.689)" fill="#f9cd93"/>
      <path id="Path_7" data-name="Path 7" d="M89.666,6006.865a1.681,1.681,0,0,0-.338-.375Z" transform="translate(209.575 -5890.717)" fill="#f9cd93"/>
      <path id="Path_8" data-name="Path 8" d="M90.414,6008.517l-1.7-2.043,3.376,4.646.231-1.408-2.569-2.844C90.369,6007.667,91.5,6009.448,90.414,6008.517Z" transform="translate(209.489 -5890.719)" fill="#f9cd93"/>
      <path id="Path_9" data-name="Path 9" d="M89,6007.6c-2.218-2.344-1.227-.333-.89.247l5.987,6.48a25.1,25.1,0,0,0-5.458-6.166C87.465,6006.13,92.065,6011.4,89,6007.6Z" transform="translate(209.333 -5890.717)" fill="#f9cd93"/>
      <path id="Path_10" data-name="Path 10" d="M91.5,6014.047l-.758.047A.9.9,0,0,0,91.5,6014.047Z" transform="translate(209.771 -5889.662)" fill="#f9cd93"/>
      <path id="Path_11" data-name="Path 11" d="M89.865,6013.742l.4.416.589-.021A8.667,8.667,0,0,1,89.865,6013.742Z" transform="translate(209.65 -5889.705)" fill="#f9cd93"/>
      <path id="Path_12" data-name="Path 12" d="M92.515,6013.879c1.353,1.464.688.3.358-.28C92.7,6013.6,92.171,6013.291,92.515,6013.879Z" transform="translate(210.004 -5889.736)" fill="#f9cd93"/>
      <path id="Path_13" data-name="Path 13" d="M93.661,5999.969c-.694-.579-1.042-.866-1.214-.865Z" transform="translate(210.01 -5891.748)" fill="#f9cd93"/>
      <path id="Path_14" data-name="Path 14" d="M41.282,5982.952a15.712,15.712,0,0,0-.933-1.917A3.345,3.345,0,0,0,41.282,5982.952Z" transform="translate(202.736 -5894.271)" fill="#f9cd93"/>
      <path id="Path_15" data-name="Path 15" d="M39.346,5978.352a9.182,9.182,0,0,0,.605.9C39.709,5978.927,39.518,5978.637,39.346,5978.352Z" transform="translate(202.596 -5894.646)" fill="#f9cd93"/>
      <path id="Path_16" data-name="Path 16" d="M-88.545,6282.474c.221.51.49,1.084.92,1.883A4.848,4.848,0,0,0-88.545,6282.474Z" transform="translate(184.739 -5852.183)" fill="#f9cd93"/>
      <path id="Path_17" data-name="Path 17" d="M-43.663,6295.4c-.284-.334-.522-.588-.739-.808C-44.113,6294.92-43.84,6295.211-43.663,6295.4Z" transform="translate(190.903 -5850.491)" fill="#f9cd93"/>
      <path id="Path_18" data-name="Path 18" d="M-44.278,6296.265c.378.043.242-.277-.042-.934C-45.9,6293.317-44.222,6295.968-44.278,6296.265Z" transform="translate(190.819 -5850.492)" fill="#f9cd93"/>
      <path id="Path_19" data-name="Path 19" d="M-86.635,6286.772c-.13-.242-.315-.553-.57-.947C-86.981,6286.176-86.8,6286.479-86.635,6286.772Z" transform="translate(184.926 -5851.715)" fill="#f9cd93"/>
      <path id="Path_20" data-name="Path 20" d="M-135.307,6228.688l2.31,3.069.762.135c-1.166-1.556-2.358-3.138-3.092-3.93a18.884,18.884,0,0,0-.2-1.907l.081,1.779c-.437-.452-.677-.561-.585-.1l.617.821.084,1.83C-135.335,6229.807-135.3,6229.3-135.307,6228.688Z" transform="translate(178.107 -5860.06)" fill="#f9cd93"/>
      <path id="Path_21" data-name="Path 21" d="M-123.426,6216.927l.286.528A3.675,3.675,0,0,0-123.426,6216.927Z" transform="translate(179.869 -5861.334)" fill="#f9cd93"/>
      <path id="Path_22" data-name="Path 22" d="M-133.007,6229.01l-.319-.408A2.489,2.489,0,0,0-133.007,6229.01Z" transform="translate(178.487 -5859.705)" fill="#f9cd93"/>
      <path id="Path_23" data-name="Path 23" d="M-134.519,6222.172a.928.928,0,0,0-.685-.163Z" transform="translate(178.224 -5860.628)" fill="#f9cd93"/>
      <path id="Path_24" data-name="Path 24" d="M-136.1,6221.99c-1.28-1.6-.634-.44-.313.138C-136.253,6222.176-135.764,6222.579-136.1,6221.99Z" transform="translate(177.993 -5860.742)" fill="#f9cd93"/>
      <path id="Path_25" data-name="Path 25" d="M-136.631,6233.4a5.612,5.612,0,0,0,1.13,1.068Z" transform="translate(178.025 -5859.034)" fill="#f9cd93"/>
      <path id="Path_26" data-name="Path 26" d="M-110.73,6285.494c.235.494.519,1.048.969,1.822A5.1,5.1,0,0,0-110.73,6285.494Z" transform="translate(181.641 -5851.761)" fill="#f9cd93"/>
      <path id="Path_27" data-name="Path 27" d="M-135.7,6240.311a25.9,25.9,0,0,0,.323-4.869Z" transform="translate(178.155 -5858.75)" fill="#f9cd93"/>
      <path id="Path_28" data-name="Path 28" d="M-120.954,6223.862l.267.575A3.475,3.475,0,0,0-120.954,6223.862Z" transform="translate(180.214 -5860.366)" fill="#f9cd93"/>
      <path id="Path_29" data-name="Path 29" d="M-127.631,6231.868c.013.143.013.265.035.423C-127.529,6232.212-127.56,6232.056-127.631,6231.868Z" transform="translate(179.282 -5859.249)" fill="#f9cd93"/>
      <path id="Path_30" data-name="Path 30" d="M-132.935,6238.587l-.3-.437A2.1,2.1,0,0,0-132.935,6238.587Z" transform="translate(178.499 -5858.372)" fill="#f9cd93"/>
      <path id="Path_31" data-name="Path 31" d="M-133.489,6236.982l1.51,2.35-2.966-5.226-.306,1.289,2.3,3.32C-133.5,6237.807-134.481,6235.838-133.489,6236.982Z" transform="translate(178.218 -5858.937)" fill="#f9cd93"/>
      <path id="Path_32" data-name="Path 32" d="M-131.874,6238.65c1.993,2.752,1.165.6.876-.038l-5.379-7.566a31.337,31.337,0,0,0,4.888,7.147C-130.484,6240.406-134.594,6234.307-131.874,6238.65Z" transform="translate(178.06 -5859.364)" fill="#f9cd93"/>
      <path id="Path_33" data-name="Path 33" d="M-133.185,6229.756l1.061,1.717.51.093Z" transform="translate(178.506 -5859.544)" fill="#f9cd93"/>
      <path id="Path_34" data-name="Path 34" d="M-132.191,6231.275l-.51-.1c.862,1.152,1.706,2.277,2.319,3.029Z" transform="translate(178.574 -5859.345)" fill="#f9cd93"/>
      <path id="Path_35" data-name="Path 35" d="M-133.779,6230.979a.9.9,0,0,0-.734-.131Z" transform="translate(178.321 -5859.396)" fill="#f9cd93"/>
      <path id="Path_36" data-name="Path 36" d="M-132.934,6231.559l-.367-.486-.569-.114A10.831,10.831,0,0,1-132.934,6231.559Z" transform="translate(178.411 -5859.376)" fill="#f9cd93"/>
      <path id="Path_37" data-name="Path 37" d="M-135.492,6230.895c-1.218-1.7-.644-.447-.359.182C-135.685,6231.117-135.195,6231.533-135.492,6230.895Z" transform="translate(178.08 -5859.504)" fill="#f9cd93"/>
      <path id="Path_38" data-name="Path 38" d="M-137.494,6243.814c.626.733.94,1.1,1.107,1.14Z" transform="translate(177.905 -5857.581)" fill="#f9cd93"/>
      <path id="Path_39" data-name="Path 39" d="M-108.7,6289.644c-.136-.234-.329-.534-.591-.916C-109.057,6289.064-108.871,6289.36-108.7,6289.644Z" transform="translate(181.843 -5851.31)" fill="#f9cd93"/>
      <path id="Path_40" data-name="Path 40" d="M-108.034,6292.619c.054-.483.638-.842-.726-3.087.912,1.575-.959-.165.472,2.171l-.457-.684Z" transform="translate(181.904 -5851.198)" fill="#f9cd93"/>
      <path id="Path_41" data-name="Path 41" d="M53.821,6128.444c-.854-3.978,1.909-3.107-.994-3.205C51.633,6128.12,53.646,6126.925,53.821,6128.444Z" transform="translate(204.426 -5874.139)" fill="#f9cd93"/>
      <path id="Path_42" data-name="Path 42" d="M56.43,6116.776a8.5,8.5,0,0,0-1.323,3.651C57.049,6119.611,56.156,6118.31,56.43,6116.776Z" transform="translate(204.797 -5875.319)" fill="#f9cd93"/>
      <path id="Path_43" data-name="Path 43" d="M-96.069,6303.311l-1.532,3.464c-2.954,1.267-.952-2.947-.291-4.349-3.544,4.718.028,4.437.09,6.493Z" transform="translate(183.215 -5849.397)" fill="#f9cd93"/>
      <path id="Path_44" data-name="Path 44" d="M-89.5,6344.509l-1.087-2.586-.79,1.54C-91.373,6344.543-90.364,6344.53-89.5,6344.509Z" transform="translate(184.343 -5843.882)" fill="#f9cd93"/>
      <path id="Path_45" data-name="Path 45" d="M-91.008,6336.782c-.922,2.629,1.321,3.232,1.965,4.741l-.52-3.683.021,2.172C-91.091,6340.262-91.028,6337.653-91.008,6336.782Z" transform="translate(184.365 -5844.6)" fill="#f9cd93"/>
      <path id="Path_46" data-name="Path 46" d="M-88.52,6336.971c.739-.889-.419-1.947-.994-1.935C-89.136,6335.679-89.092,6336.983-88.52,6336.971Z" transform="translate(184.604 -5844.844)" fill="#f9cd93"/>
      <path id="Path_47" data-name="Path 47" d="M-74.965,6321.943l1.165,1.051.349-2.61C-74.667,6319.981-74.192,6321.273-74.965,6321.943Z" transform="translate(186.635 -5846.9)" fill="#f9cd93"/>
      <path id="Path_48" data-name="Path 48" d="M-76.414,6317.794l-.722.013-.066,1.46-2.195,3.8c-.609,2.1,1.216.739,2.782-.422l-.457-3.58Z" transform="translate(186 -5847.251)" fill="#f9cd93"/>
      <path id="Path_49" data-name="Path 49" d="M-102.352,6319.1l-1.083,1.353c-.179,1.1.858,1.341,1.75,1.544Z" transform="translate(182.657 -5847.068)" fill="#f9cd93"/>
      <path id="Path_50" data-name="Path 50" d="M-100.526,6319.583l.1-3.853-.353,2.2c-1.631-.145-1.13-2.73-.958-3.619.314-.089.637-.192.953-.3l-.064-3.544-2.532,2.908c-.617,1.373.41,1.288,1.638.937C-103.118,6316.709-100.929,6317.9-100.526,6319.583Z" transform="translate(182.642 -5848.274)" fill="#f9cd93"/>
      <path id="Path_51" data-name="Path 51" d="M-99.4,6314.658c.916-.707-.1-2.069-.694-2.206C-99.811,6313.2-99.991,6314.524-99.4,6314.658Z" transform="translate(183.127 -5847.997)" fill="#f9cd93"/>
      <path id="Path_52" data-name="Path 52" d="M-84.8,6297.82l-.308,1.53,1.056-1.387Z" transform="translate(185.22 -5850.041)" fill="#f9cd93"/>
      <path id="Path_53" data-name="Path 53" d="M-104.594,6356.288l-.763-2.94-1.287,1.97C-106.865,6356.618-105.643,6356.444-104.594,6356.288Z" transform="translate(182.208 -5842.287)" fill="#f9cd93"/>
      <path id="Path_54" data-name="Path 54" d="M-104.775,6347.237c-1.674,3.291.913,3.672,1.373,5.381l.153-4.337-.436,2.6C-105.616,6351.42-104.984,6348.282-104.775,6347.237Z" transform="translate(182.395 -5843.141)" fill="#f9cd93"/>
      <path id="Path_55" data-name="Path 55" d="M-101.836,6347.072a1.222,1.222,0,0,0-.8-2.162C-102.309,6345.624-102.534,6347.179-101.836,6347.072Z" transform="translate(182.772 -5843.466)" fill="#f9cd93"/>
    </g>
  </g>
</svg>
